<svg width="140" height="42" viewBox="0 0 140 42" fill="none" xmlns="http://www.w3.org/2000/svg">
<path d="M39.048 7.65847C39.0374 7.41841 39.0238 7.1791 39.0071 6.9398C38.9988 6.81863 38.9897 6.69823 38.9791 6.57782C38.9708 6.4771 38.9215 6.31049 38.9465 6.21356C38.9458 6.21508 35.0624 21.1829 23.6735 26.3506C12.2847 21.1829 8.4013 6.21508 8.40054 6.21356C8.42553 6.31049 8.37632 6.4771 8.36799 6.57782C8.35814 6.69823 8.34904 6.81939 8.33996 6.9398C8.3233 7.1791 8.30966 7.41841 8.29906 7.65847C8.27786 8.1348 8.26878 8.61189 8.27181 9.08899C8.27862 10.2219 8.35511 11.3548 8.50051 12.4786C8.6391 13.5487 8.83977 14.6111 9.10104 15.6585C9.35094 16.6619 9.65537 17.6509 10.0098 18.6217C10.3498 19.5532 10.7368 20.4672 11.1646 21.3608C11.5743 22.2158 12.0211 23.0526 12.5028 23.869C12.9594 24.6437 13.4464 25.401 13.9606 26.1393C14.4422 26.8307 14.9481 27.5063 15.4751 28.1643C15.9606 28.7702 16.4634 29.3608 16.9837 29.9364C17.4502 30.4529 17.9303 30.9572 18.4233 31.4495C18.8496 31.8743 19.2858 32.29 19.7311 32.6952C20.0953 33.0269 20.4664 33.351 20.8436 33.6675C21.1912 33.9583 21.5516 34.2279 21.8644 34.5589C22.2953 35.014 22.6648 35.5403 22.9064 36.1204L23.6728 37.9659L24.4392 36.1204C24.6807 35.5396 25.0503 35.014 25.4812 34.5589C25.794 34.2279 26.1544 33.9583 26.502 33.6675C26.8799 33.351 27.2502 33.0269 27.6145 32.6952C28.0598 32.29 28.496 31.8743 28.9223 31.4495C29.4153 30.958 29.8954 30.4536 30.3619 29.9364C30.8822 29.3608 31.3858 28.7694 31.8704 28.1643C32.3975 27.5063 32.9034 26.8315 33.385 26.1393C33.8992 25.401 34.3861 24.6445 34.8428 23.869C35.3237 23.0526 35.7712 22.2158 36.1809 21.3608C36.6088 20.4665 36.9958 19.5524 37.3358 18.6217C37.691 17.6509 37.9954 16.6619 38.2445 15.6585C38.5051 14.6111 38.7065 13.5487 38.8451 12.4786C38.9905 11.3548 39.0662 10.2219 39.0738 9.08899C39.0783 8.61189 39.0692 8.1348 39.048 7.65847Z" fill="#163649"/>
<path d="M23.6736 23.5896C26.3553 23.5896 28.5293 21.4156 28.5293 18.7338C28.5293 16.0521 26.3553 13.8781 23.6736 13.8781C20.9918 13.8781 18.8179 16.0521 18.8179 18.7338C18.8179 21.4156 20.9918 23.5896 23.6736 23.5896Z" fill="#163649"/>
<path d="M23.6738 5.30865C21.6389 8.41505 17.3413 12.7021 13.4595 13.7933L17.6957 17.2693C18.1956 14.4188 20.681 12.256 23.6738 12.256C26.6673 12.256 29.152 14.4181 29.6518 17.2693L33.8881 13.7933C30.0062 12.7021 25.7094 8.41505 23.6738 5.30865Z" fill="#163649"/>
<path d="M23.5546 15.3359L23.3403 18.9777H24.0067L23.7568 15.2821L23.5546 15.3359Z" fill="#163649"/>
<path d="M23.6737 3.05176e-05L24.1629 1.50477H25.7449L24.4651 2.43472L24.9535 3.93945L23.6737 3.0095L22.3939 3.93945L22.8831 2.43472L21.6033 1.50477H23.1852L23.6737 3.05176e-05Z" fill="#1BABA1"/>
<path d="M19.1753 2.97464L19.4472 3.8122H20.3279L19.6153 4.33019L19.8871 5.16699L19.1753 4.64976L18.4627 5.16699L18.7345 4.33019L18.0227 3.8122H18.9027L19.1753 2.97464Z" fill="#1BABA1"/>
<path d="M28.1726 2.97461L28.4445 3.81217H29.3252L28.6126 4.33016L28.8845 5.16696L28.1726 4.64973L27.46 5.16696L27.7326 4.33016L27.02 3.81217H27.9008L28.1726 2.97461Z" fill="#1BABA1"/>
<path d="M38.9466 29.3897L27.3154 35.7653H25.2419L34.9534 27.0618C36.3589 27.7191 37.6925 28.4983 38.9466 29.3897Z" fill="#1BABA1"/>
<path d="M43.9681 34.0227L32.6512 35.7652H29.2146L40.6376 30.6891C41.8462 31.6948 42.9624 32.8118 43.9681 34.0227Z" fill="#1BABA1"/>
<path d="M8.40063 29.3897L20.0318 35.7653H22.1053L12.3938 27.0618C10.989 27.7191 9.65471 28.4983 8.40063 29.3897Z" fill="#1BABA1"/>
<path d="M3.37915 34.0227L14.6961 35.7652H18.1327L6.70971 30.6891C5.50183 31.6948 4.38483 32.8118 3.37915 34.0227Z" fill="#1BABA1"/>
<path d="M27.1957 36.3961H25.0617V38.2643V38.5127C25.0617 39.2238 24.4847 39.8009 23.7766 39.8009H23.6736H23.5706C22.8626 39.8009 22.2855 39.2238 22.2855 38.5127V38.2643V36.3961H20.1514H1.61377C1.0193 37.2927 0.480121 38.2325 0 39.2041H20.1514V40.3779C20.1514 41.2745 20.8769 42 21.7736 42H23.6728H25.5721C26.4688 42 27.1942 41.2745 27.1942 40.3779V39.2041H47.3457C46.8656 38.2333 46.3256 37.2935 45.7319 36.3961H27.1957Z" fill="#1BABA1"/>
<path d="M54.2418 24.3938H50.3122L49.6821 26.2537H46.9976L50.8075 15.7243H53.7776L57.5875 26.2537H54.8726L54.2418 24.3938ZM52.2774 18.5596L50.9877 22.4142H53.5822L52.2774 18.5596Z" fill="black"/>
<path d="M69.1355 20.989C69.1355 24.109 66.9757 26.2537 63.6156 26.2537H59.6709V15.7243H63.6156C66.9757 15.7243 69.1355 17.8546 69.1355 20.989ZM63.4513 24.0341C65.3862 24.0341 66.5259 22.9239 66.5259 20.989C66.5259 19.0541 65.3862 17.9144 63.4513 17.9144H62.2366V24.0341H63.4513Z" fill="black"/>
<path d="M71.5049 15.7243H74.5348L77.4897 23.014L80.4144 15.7243H83.4292V26.2537H80.8642V19.9394L78.509 26.2537H76.4394L74.0698 19.9243V26.2537H71.5049V15.7243Z" fill="black"/>
<path d="M86.2039 15.7243H88.7688V26.2537H86.2039V15.7243Z" fill="black"/>
<path d="M95.3679 26.359C93.1028 26.359 91.333 25.2336 91.2581 23.1041H93.9881C94.063 23.9144 94.5727 24.3044 95.2929 24.3044C96.0426 24.3044 96.5227 23.9296 96.5227 23.3147C96.5227 21.3646 91.258 22.415 91.2883 18.68C91.2883 16.6854 92.9233 15.5752 95.1278 15.5752C97.4224 15.5752 98.9673 16.7149 99.0725 18.7247H96.2978C96.2531 18.05 95.773 17.6448 95.0831 17.6297C94.4682 17.6145 94.0032 17.9296 94.0032 18.5899C94.0032 20.4195 99.2081 19.5949 99.2081 23.1193C99.2081 24.8891 97.8275 26.359 95.3679 26.359Z" fill="black"/>
<path d="M105.522 26.359C103.257 26.359 101.488 25.2336 101.413 23.1041H104.143C104.218 23.9144 104.727 24.3044 105.447 24.3044C106.197 24.3044 106.677 23.9296 106.677 23.3147C106.677 21.3646 101.413 22.415 101.443 18.68C101.443 16.6854 103.078 15.5752 105.282 15.5752C107.577 15.5752 109.122 16.7149 109.227 18.7247H106.452C106.408 18.05 105.928 17.6448 105.238 17.6297C104.623 17.6145 104.158 17.9296 104.158 18.5899C104.158 20.4195 109.363 19.5949 109.363 23.1193C109.362 24.8891 107.982 26.359 105.522 26.359Z" fill="black"/>
<path d="M111.866 15.7243H114.431V26.2537H111.866V15.7243Z" fill="black"/>
<path d="M122.2 26.359C119.216 26.359 116.785 24.1242 116.785 20.9595C116.785 17.7948 119.216 15.5752 122.2 15.5752C125.2 15.5752 127.584 17.7948 127.584 20.9595C127.584 24.1242 125.185 26.359 122.2 26.359ZM122.2 24.0189C123.88 24.0189 124.975 22.8042 124.975 20.9587C124.975 19.0837 123.88 17.8993 122.2 17.8993C120.49 17.8993 119.41 19.0844 119.41 20.9587C119.41 22.8042 120.49 24.0189 122.2 24.0189Z" fill="black"/>
<path d="M139.359 15.7243V26.2537H136.794L132.504 19.7592V26.2537H129.939V15.7243H132.504L136.794 22.2491V15.7243H139.359Z" fill="black"/>
<path d="M81.778 36.8717H78.6951L78.1036 38.4809H77.3865L79.8583 31.7918H80.6239L83.0866 38.4809H82.3694L81.778 36.8717ZM80.2369 32.6445L78.8988 36.309H81.5743L80.2369 32.6445Z" fill="black"/>
<path d="M86.8285 38.5491C85.4715 38.5491 84.5794 37.7736 84.5408 36.7361H85.2579C85.3163 37.2988 85.7327 37.9773 86.8285 37.9773C87.7691 37.9773 88.3212 37.4245 88.3212 36.727C88.3212 34.7301 84.5983 35.9902 84.5983 33.4404C84.5983 32.3931 85.4609 31.6274 86.7702 31.6274C88.0599 31.6274 88.8354 32.3446 88.9512 33.2753H88.2144C88.1372 32.8005 87.6812 32.2189 86.7407 32.209C85.9455 32.1992 85.2867 32.6354 85.2867 33.4207C85.2867 35.3791 89.0096 34.1772 89.0096 36.6975C89.0103 37.6184 88.2636 38.5491 86.8285 38.5491Z" fill="black"/>
<path d="M92.9745 38.5491C91.6175 38.5491 90.7254 37.7736 90.6868 36.7361H91.4039C91.4622 37.2988 91.8787 37.9773 92.9745 37.9773C93.9151 37.9773 94.4671 37.4245 94.4671 36.727C94.4671 34.7301 90.7443 35.9902 90.7443 33.4404C90.7443 32.3931 91.6069 31.6274 92.9162 31.6274C94.2059 31.6274 94.9813 32.3446 95.0972 33.2753H94.3604C94.2831 32.8005 93.8272 32.2189 92.8867 32.209C92.0915 32.1992 91.4327 32.6354 91.4327 33.4207C91.4327 35.3791 95.1555 34.1772 95.1555 36.6975C95.1563 37.6184 94.4096 38.5491 92.9745 38.5491Z" fill="black"/>
<path d="M97.0654 31.7047H97.744V38.4809H97.0654V31.7047Z" fill="black"/>
<path d="M101.942 38.5491C100.585 38.5491 99.6924 37.7736 99.6538 36.7361H100.371C100.429 37.2988 100.846 37.9773 101.942 37.9773C102.882 37.9773 103.435 37.4245 103.435 36.727C103.435 34.7301 99.7121 35.9902 99.7121 33.4404C99.7121 32.3931 100.575 31.6274 101.884 31.6274C103.174 31.6274 103.949 32.3446 104.065 33.2753H103.328C103.251 32.8005 102.795 32.2189 101.854 32.209C101.059 32.1992 100.401 32.6354 100.401 33.4207C100.401 35.3791 104.123 34.1772 104.123 36.6975C104.123 37.6184 103.377 38.5491 101.942 38.5491Z" fill="black"/>
<path d="M105.548 31.7047H109.998V32.2673H108.117V38.4817H107.439V32.2673H105.549V31.7047H105.548Z" fill="black"/>
</svg>
