<svg width="92" height="30" viewBox="0 0 92 30" fill="none" xmlns="http://www.w3.org/2000/svg">
<path d="M66.2406 15.2177C65.8974 16.9716 64.9922 18.2864 63.5244 19.163C65.0295 20.2305 65.63 21.7456 65.3254 23.7089C65.0774 25.3862 64.2533 26.739 62.8526 27.7686C61.452 28.7975 59.6263 29.3122 57.3777 29.3122H48.9158L51.6859 13.5484C52.1175 11.0915 54.2518 9.2998 56.7458 9.2998H60.0939C62.2667 9.2998 63.9148 9.85715 65.0401 10.9725C66.1641 12.0872 66.5645 13.5025 66.2406 15.2177ZM59.7514 22.9653C59.9037 22.1459 59.5798 21.6791 58.779 21.5647L56.0056 21.5361L55.4908 24.3953H57.8924C58.3686 24.3953 58.7737 24.2669 59.1075 24.0095C59.4408 23.7521 59.6556 23.4043 59.7514 22.9653ZM59.1794 14.2175H57.2925L56.8064 16.9051L59.0078 16.8765C59.8465 16.7621 60.332 16.3238 60.4657 15.5616C60.5415 15.0854 60.4517 14.7422 60.1943 14.5327C59.9369 14.3225 59.5984 14.2175 59.1794 14.2175Z" fill="#FF7F45"/>
<path d="M65.926 29.3125L68.476 15.0178H73.7308L71.1809 29.3125H65.926ZM73.5592 13.0738C72.9108 13.6458 72.1772 13.9317 71.3578 13.9317C70.5384 13.9317 69.8853 13.6411 69.3991 13.0598C68.9129 12.4785 68.7367 11.7975 68.8704 11.016C68.9848 10.2538 69.3658 9.57743 70.0136 8.98617C70.6614 8.39557 71.4143 8.09961 72.2723 8.09961C73.0917 8.09961 73.7395 8.39025 74.2163 8.97154C74.6925 9.55349 74.8641 10.2345 74.7311 11.016C74.5981 11.8161 74.207 12.5025 73.5592 13.0738Z" fill="#FF7F45"/>
<path d="M86.7452 9.2998H92L88.4491 29.3122H83.1943L83.4144 28.0719C82.309 29.1659 80.9742 29.7126 79.4119 29.7126C77.5058 29.7126 76.0712 28.9691 75.1095 27.4826C74.1471 25.9961 73.8086 24.2044 74.0946 22.108C74.3806 20.031 75.1953 18.2625 76.5388 16.8046C77.8822 15.3468 79.5449 14.6178 81.5276 14.6178C83.3672 14.6178 84.6741 15.2789 85.4496 16.6005L86.7452 9.2998ZM81.4611 24.8528C82.2232 24.8528 82.871 24.6234 83.4051 24.1631C83.9385 23.7029 84.2817 23.0897 84.434 22.3229L84.4839 22.0409C84.579 21.282 84.4519 20.6648 84.1014 20.1906C83.7509 19.7164 83.185 19.4783 82.4041 19.4783C81.6227 19.4783 80.9556 19.7264 80.4029 20.2218C79.8496 20.718 79.507 21.3651 79.3734 22.1659C79.2397 22.9474 79.3541 23.5912 79.7165 24.096C80.079 24.6001 80.6603 24.8528 81.4611 24.8528Z" fill="#FF7F45"/>
<path fill-rule="evenodd" clip-rule="evenodd" d="M80.5047 3.52741L79.2071 0.287109L90.044 6.3507L78.858 7.81123L79.9101 5.98689L78.8367 5.74746L80.8758 4.31221L84.2984 4.88418L80.5047 3.52741Z" fill="#2B3D41"/>
<path d="M15.6096 14.5034H8.31956L7.94778 16.6763H14.5235L13.6083 21.822H7.03262L6.63224 24.0521H14.0652L13.1501 29.3122H0L3.51631 9.2998H16.5241L15.6096 14.5034Z" fill="#2B3D41"/>
<path d="M28.1663 9.2998H33.4212L29.8703 29.3122H24.6154L24.8356 28.0719C23.7302 29.1659 22.3954 29.7126 20.8331 29.7126C18.9269 29.7126 17.4923 28.9691 16.5306 27.4826C15.5683 25.9961 15.2297 24.2044 15.5157 22.108C15.8017 20.031 16.6164 18.2625 17.9599 16.8046C19.3034 15.3468 20.9661 14.6178 22.9487 14.6178C24.7883 14.6178 26.0952 15.2789 26.8707 16.6005L28.1663 9.2998ZM22.8822 24.8528C23.6444 24.8528 24.2922 24.6234 24.8262 24.1631C25.3596 23.7029 25.7028 23.0897 25.8551 22.3229L25.905 22.0409C26.0001 21.282 25.8731 20.6648 25.5226 20.1906C25.1721 19.7164 24.6061 19.4783 23.8253 19.4783C23.0438 19.4783 22.3767 19.7264 21.8241 20.2218C21.2714 20.718 20.9282 21.3651 20.7952 22.1659C20.6615 22.9474 20.7759 23.5912 21.1383 24.096C21.5002 24.6001 22.0814 24.8528 22.8822 24.8528Z" fill="#2B3D41"/>
<path d="M43.6037 15.0176H48.8586L46.3086 29.3123H41.0538L41.3052 27.9023C40.2005 29.1094 38.8391 29.7126 37.2202 29.7126C35.6972 29.7126 34.5399 29.1553 33.7492 28.04C32.9584 26.9253 32.7442 25.3384 33.1067 23.2799L34.5639 15.0176H39.8187L38.4925 22.7046C38.2638 23.9843 38.7459 24.6234 39.9404 24.6234C41.1755 24.6234 41.9477 23.9404 42.2569 22.5736L43.6037 15.0176Z" fill="#2B3D41"/>
<path d="M48.8586 15.0171C48.8586 15.0171 48.3711 0.0885906 83.9632 4.84329C83.9632 4.84329 45.7646 -5.64711 43.6038 15.0171H48.8586Z" fill="#2B3D41"/>
</svg>
