<svg width="140" height="46" viewBox="0 0 140 46" fill="none" xmlns="http://www.w3.org/2000/svg">
<path d="M39.048 8.4821C39.0374 8.22604 39.0238 7.9708 39.0071 7.71555C38.9988 7.58631 38.9897 7.45788 38.9791 7.32945C38.9708 7.22201 38.9215 7.04431 38.9465 6.94092C38.9458 6.94253 35.0624 22.9077 23.6735 28.4198C12.2847 22.9077 8.4013 6.94253 8.40054 6.94092C8.42553 7.04431 8.37632 7.22201 8.36799 7.32945C8.35814 7.45788 8.34904 7.58711 8.33996 7.71555C8.3233 7.9708 8.30966 8.22604 8.29906 8.4821C8.27786 8.99017 8.26878 9.49906 8.27181 10.0079C8.27862 11.2163 8.35511 12.4247 8.50051 13.6234C8.6391 14.7648 8.83977 15.898 9.10104 17.0152C9.35094 18.0854 9.65537 19.1404 10.0098 20.1759C10.3498 21.1694 10.7368 22.1444 11.1646 23.0975C11.5743 24.0095 12.0211 24.902 12.5028 25.7728C12.9594 26.5991 13.4464 27.4069 13.9606 28.1944C14.4422 28.9319 14.9481 29.6524 15.4751 30.3543C15.9606 31.0005 16.4634 31.6306 16.9837 32.2445C17.4502 32.7954 17.9303 33.3333 18.4233 33.8584C18.8496 34.3115 19.2858 34.755 19.7311 35.1871C20.0953 35.5409 20.4664 35.8866 20.8436 36.2243C21.1912 36.5344 21.5516 36.822 21.8644 37.175C22.2953 37.6604 22.6648 38.2218 22.9064 38.8406L23.6728 40.809L24.4392 38.8406C24.6807 38.221 25.0503 37.6604 25.4812 37.175C25.794 36.822 26.1544 36.5344 26.502 36.2243C26.8799 35.8866 27.2502 35.5409 27.6145 35.1871C28.0598 34.755 28.496 34.3115 28.9223 33.8584C29.4153 33.3341 29.8954 32.7962 30.3619 32.2445C30.8822 31.6306 31.3858 30.9997 31.8704 30.3543C32.3975 29.6524 32.9034 28.9327 33.385 28.1944C33.8992 27.4069 34.3861 26.5999 34.8428 25.7728C35.3237 24.902 35.7712 24.0095 36.1809 23.0975C36.6088 22.1436 36.9958 21.1686 37.3358 20.1759C37.691 19.1404 37.9954 18.0854 38.2445 17.0152C38.5051 15.898 38.7065 14.7648 38.8451 13.6234C38.9905 12.4247 39.0662 11.2163 39.0738 10.0079C39.0783 9.49906 39.0692 8.99017 39.048 8.4821Z" fill="white"/>
<path d="M23.6736 25.4748C26.3553 25.4748 28.5293 23.1559 28.5293 20.2955C28.5293 17.4351 26.3553 15.1162 23.6736 15.1162C20.9918 15.1162 18.8179 17.4351 18.8179 20.2955C18.8179 23.1559 20.9918 25.4748 23.6736 25.4748Z" fill="white"/>
<path d="M23.6738 5.97571C21.6389 9.2891 17.3413 13.8618 13.4595 15.0257L17.6957 18.7333C18.1956 15.6929 20.681 13.386 23.6738 13.386C26.6673 13.386 29.152 15.6921 29.6518 18.7333L33.8881 15.0257C30.0062 13.8618 25.7094 9.2891 23.6738 5.97571Z" fill="white"/>
<path d="M23.5546 16.6711L23.3403 20.5556H24.0067L23.7568 16.6138L23.5546 16.6711Z" fill="white"/>
<path d="M23.6737 0.313354L24.1629 1.91836H25.7449L24.4651 2.91027L24.9535 4.51527L23.6737 3.52336L22.3939 4.51527L22.8831 2.91027L21.6033 1.91836H23.1852L23.6737 0.313354Z" fill="#1BABA1"/>
<path d="M19.1753 3.48621L19.4472 4.37958H20.3279L19.6153 4.93208L19.8871 5.82464L19.1753 5.27295L18.4627 5.82464L18.7345 4.93208L18.0227 4.37958H18.9027L19.1753 3.48621Z" fill="#1BABA1"/>
<path d="M28.1726 3.48621L28.4445 4.37958H29.3252L28.6126 4.93208L28.8845 5.82464L28.1726 5.27295L27.46 5.82464L27.7326 4.93208L27.02 4.37958H27.9008L28.1726 3.48621Z" fill="#1BABA1"/>
<path d="M38.9466 31.6614L27.3154 38.4618H25.2419L34.9534 29.1783C36.3589 29.8795 37.6925 30.7106 38.9466 31.6614Z" fill="#1BABA1"/>
<path d="M43.9681 36.6031L32.6512 38.4617H29.2146L40.6376 33.0474C41.8462 34.1201 42.9624 35.3115 43.9681 36.6031Z" fill="#1BABA1"/>
<path d="M8.40063 31.6614L20.0318 38.4618H22.1053L12.3938 29.1783C10.989 29.8795 9.65471 30.7106 8.40063 31.6614Z" fill="#1BABA1"/>
<path d="M3.37915 36.6031L14.6961 38.4617H18.1327L6.70971 33.0474C5.50183 34.1201 4.38483 35.3115 3.37915 36.6031Z" fill="#1BABA1"/>
<path d="M27.1957 39.1346H25.0617V41.1274V41.3923C25.0617 42.1508 24.4847 42.7663 23.7766 42.7663H23.6736H23.5706C22.8626 42.7663 22.2855 42.1508 22.2855 41.3923V41.1274V39.1346H20.1514H1.61377C1.0193 40.091 0.480121 41.0934 0 42.1298H20.1514V43.3818C20.1514 44.3382 20.8769 45.112 21.7736 45.112H23.6728H25.5721C26.4688 45.112 27.1942 44.3382 27.1942 43.3818V42.1298H47.3457C46.8656 41.0942 46.3256 40.0918 45.7319 39.1346H27.1957Z" fill="#1BABA1"/>
<path d="M54.2418 26.3326H50.3122L49.6821 28.3164H46.9976L50.8075 17.0854H53.7776L57.5875 28.3164H54.8726L54.2418 26.3326ZM52.2774 20.1097L50.9877 24.2211H53.5822L52.2774 20.1097Z" fill="white"/>
<path d="M69.1355 22.7009C69.1355 26.0289 66.9757 28.3164 63.6156 28.3164H59.6709V17.0854H63.6156C66.9757 17.0854 69.1355 19.3577 69.1355 22.7009ZM63.4513 25.9489C65.3862 25.9489 66.5259 24.7647 66.5259 22.7009C66.5259 20.6371 65.3862 19.4215 63.4513 19.4215H62.2366V25.9489H63.4513Z" fill="white"/>
<path d="M71.5049 17.0854H74.5348L77.4897 24.8608L80.4144 17.0854H83.4292V28.3164H80.8642V21.5814L78.509 28.3164H76.4394L74.0698 21.5652V28.3164H71.5049V17.0854Z" fill="white"/>
<path d="M86.2039 17.0854H88.7688V28.3164H86.2039V17.0854Z" fill="white"/>
<path d="M95.3679 28.4287C93.1028 28.4287 91.333 27.2284 91.2581 24.957H93.9881C94.063 25.8213 94.5727 26.2373 95.2929 26.2373C96.0426 26.2373 96.5227 25.8375 96.5227 25.1816C96.5227 23.1016 91.258 24.222 91.2883 20.2382C91.2883 18.1106 92.9233 16.9264 95.1278 16.9264C97.4224 16.9264 98.9673 18.1421 99.0725 20.2858H96.2978C96.2531 19.5661 95.773 19.134 95.0831 19.1178C94.4682 19.1017 94.0032 19.4377 94.0032 20.142C94.0032 22.0936 99.2081 21.2139 99.2081 24.9732C99.2081 26.8609 97.8275 28.4287 95.3679 28.4287Z" fill="white"/>
<path d="M105.522 28.4287C103.257 28.4287 101.488 27.2284 101.413 24.957H104.143C104.218 25.8213 104.727 26.2373 105.447 26.2373C106.197 26.2373 106.677 25.8375 106.677 25.1816C106.677 23.1016 101.413 24.222 101.443 20.2382C101.443 18.1106 103.078 16.9264 105.282 16.9264C107.577 16.9264 109.122 18.1421 109.227 20.2858H106.452C106.408 19.5661 105.928 19.134 105.238 19.1178C104.623 19.1017 104.158 19.4377 104.158 20.142C104.158 22.0936 109.363 21.2139 109.363 24.9732C109.362 26.8609 107.982 28.4287 105.522 28.4287Z" fill="white"/>
<path d="M111.866 17.0854H114.431V28.3164H111.866V17.0854Z" fill="white"/>
<path d="M122.2 28.4287C119.216 28.4287 116.785 26.0451 116.785 22.6695C116.785 19.2939 119.216 16.9264 122.2 16.9264C125.2 16.9264 127.584 19.2939 127.584 22.6695C127.584 26.0451 125.185 28.4287 122.2 28.4287ZM122.2 25.9328C123.88 25.9328 124.975 24.6372 124.975 22.6687C124.975 20.6687 123.88 19.4054 122.2 19.4054C120.49 19.4054 119.41 20.6695 119.41 22.6687C119.41 24.6372 120.49 25.9328 122.2 25.9328Z" fill="white"/>
<path d="M139.359 17.0854V28.3164H136.794L132.504 21.3891V28.3164H129.939V17.0854H132.504L136.794 24.045V17.0854H139.359Z" fill="white"/>
<path d="M81.778 39.6419H78.6951L78.1036 41.3584H77.3865L79.8583 34.2235H80.6239L83.0866 41.3584H82.3694L81.778 39.6419ZM80.2369 35.133L78.8988 39.0417H81.5743L80.2369 35.133Z" fill="white"/>
<path d="M86.8285 41.431C85.4715 41.431 84.5794 40.6039 84.5408 39.4973H85.2579C85.3163 40.0975 85.7327 40.8212 86.8285 40.8212C87.7691 40.8212 88.3212 40.2315 88.3212 39.4876C88.3212 37.3576 84.5983 38.7017 84.5983 35.982C84.5983 34.8649 85.4609 34.0482 86.7702 34.0482C88.0599 34.0482 88.8354 34.8132 88.9512 35.8059H88.2144C88.1372 35.2994 87.6812 34.6791 86.7407 34.6686C85.9455 34.6581 85.2867 35.1233 85.2867 35.961C85.2867 38.0498 89.0096 36.7679 89.0096 39.4561C89.0103 40.4383 88.2636 41.431 86.8285 41.431Z" fill="white"/>
<path d="M92.9745 41.431C91.6175 41.431 90.7254 40.6039 90.6868 39.4973H91.4039C91.4622 40.0975 91.8787 40.8212 92.9745 40.8212C93.9151 40.8212 94.4671 40.2315 94.4671 39.4876C94.4671 37.3576 90.7443 38.7017 90.7443 35.982C90.7443 34.8649 91.6069 34.0482 92.9162 34.0482C94.2059 34.0482 94.9813 34.8132 95.0972 35.8059H94.3604C94.2831 35.2994 93.8272 34.6791 92.8867 34.6686C92.0915 34.6581 91.4327 35.1233 91.4327 35.961C91.4327 38.0498 95.1555 36.7679 95.1555 39.4561C95.1563 40.4383 94.4096 41.431 92.9745 41.431Z" fill="white"/>
<path d="M97.0654 34.1305H97.744V41.3582H97.0654V34.1305Z" fill="white"/>
<path d="M101.942 41.431C100.585 41.431 99.6924 40.6039 99.6538 39.4973H100.371C100.429 40.0975 100.846 40.8212 101.942 40.8212C102.882 40.8212 103.435 40.2315 103.435 39.4876C103.435 37.3576 99.7121 38.7017 99.7121 35.982C99.7121 34.8649 100.575 34.0482 101.884 34.0482C103.174 34.0482 103.949 34.8132 104.065 35.8059H103.328C103.251 35.2994 102.795 34.6791 101.854 34.6686C101.059 34.6581 100.401 35.1233 100.401 35.961C100.401 38.0498 104.123 36.7679 104.123 39.4561C104.123 40.4383 103.377 41.431 101.942 41.431Z" fill="white"/>
<path d="M105.548 34.1305H109.998V34.7307H108.117V41.359H107.439V34.7307H105.549V34.1305H105.548Z" fill="white"/>
</svg>
