<svg width="75" height="55" viewBox="0 0 75 55" fill="none" xmlns="http://www.w3.org/2000/svg">
<g opacity="0.8" clip-path="url(#clip0_589_5905)">
<path d="M1.66016 30.5273C5.48828 30.5078 9.31641 30.5273 13.1641 30.5273C13.457 30.5273 13.7305 30.5273 14.082 30.5273C14.082 30.918 14.082 31.1914 14.082 31.4844C14.082 38.5547 14.082 45.6445 14.082 52.7148C14.082 52.9492 14.0039 53.2617 14.1211 53.4375C14.3359 53.7891 14.5898 54.2578 14.9219 54.3555C15.2539 54.4531 15.7422 54.2383 16.1133 54.0625C16.3086 53.9648 16.4062 53.6914 16.543 53.4766C21.4258 45.7812 26.3281 38.0859 31.1914 30.3711C31.4648 29.9219 31.6406 29.3359 31.6406 28.8086C31.6406 19.9609 31.6406 11.1133 31.6406 2.24609C31.6406 0.898437 31.3086 0.566406 29.9609 0.566406C20.5469 0.566406 11.1133 0.566406 1.69922 0.546875C0.976562 0.546875 0.410156 0.683594 0 1.28906C0 10.7617 0 20.2344 0 29.707C0.371094 30.3711 0.9375 30.5273 1.66016 30.5273ZM2.40234 2.94922C11.3281 2.94922 20.2734 2.94922 29.2969 2.94922C29.2969 3.22266 29.2969 3.4375 29.2969 3.65234C29.2969 11.875 29.2969 20.0977 29.2773 28.3203C29.2773 28.6914 29.1797 29.1016 28.9844 29.4141C24.9414 35.8008 20.8789 42.1875 16.8164 48.5547C16.7188 48.7109 16.6016 48.8672 16.3867 49.1797C16.3867 48.7305 16.3867 48.4766 16.3867 48.2227C16.3867 42.0898 16.3867 35.9766 16.3867 29.8438C16.3867 28.4766 16.0352 28.125 14.6484 28.125C10.8594 28.125 7.08984 28.125 3.30078 28.125C3.00781 28.125 2.71484 28.125 2.38281 28.125C2.40234 19.7266 2.40234 11.3672 2.40234 2.94922Z" fill="#A0B3BD"/>
<path d="M73.3984 0.566528C63.9258 0.566528 54.4531 0.566528 45 0.566528C43.75 0.566528 43.3789 0.918091 43.3789 2.16809C43.3789 11.0939 43.3789 20.0392 43.3789 28.965C43.3789 30.1564 43.75 30.5275 44.9609 30.547C47.4219 30.547 49.8828 30.547 52.3633 30.547C54.0234 30.547 55.6836 30.547 57.4414 30.547C57.4414 30.8986 57.4414 31.172 57.4414 31.4259C57.4414 35.9181 57.4414 40.4103 57.4414 44.9025C57.4414 47.6564 57.4414 50.4103 57.4414 53.1837C57.4414 53.7892 57.6758 54.2384 58.2617 54.4337C58.8477 54.629 59.2969 54.3751 59.6484 53.8868C59.7266 53.7697 59.8047 53.6525 59.8828 53.5157C64.7852 45.8009 69.6875 38.0861 74.5703 30.3517C74.8242 29.9415 74.9805 29.4142 74.9805 28.9259C75 19.9806 75 11.0743 75 2.16809C75 0.918091 74.6289 0.566528 73.3984 0.566528ZM72.6562 3.73059C72.6562 11.9337 72.6562 20.1368 72.6367 28.34C72.6367 28.6915 72.5586 29.0822 72.3828 29.3751C68.2812 35.84 64.1797 42.3048 60.0586 48.7696C60 48.8673 59.9219 48.9454 59.7461 49.1993C59.7461 48.7697 59.7461 48.5157 59.7461 48.2618C59.7461 42.1095 59.7461 35.9572 59.7461 29.8048C59.7461 28.5157 59.375 28.1642 58.0859 28.1642C54.2773 28.1642 50.4687 28.1642 46.6602 28.1642C46.3672 28.1642 46.0742 28.1642 45.7031 28.1642C45.7031 19.7267 45.7031 11.3868 45.7031 2.9884C54.6484 2.9884 63.5937 2.9884 72.6367 2.9884C72.6562 3.20325 72.6562 3.45715 72.6562 3.73059Z" fill="#A0B3BD"/>
</g>
<defs>
<clipPath id="clip0_589_5905">
<rect width="75" height="53.9062" fill="white" transform="translate(0 0.546875)"/>
</clipPath>
</defs>
</svg>
