<svg width="92" height="30" viewBox="0 0 92 30" fill="none" xmlns="http://www.w3.org/2000/svg">
<path d="M66.2406 14.9305C65.8974 16.6843 64.9922 17.9992 63.5244 18.8758C65.0295 19.9433 65.63 21.4583 65.3254 23.4217C65.0774 25.099 64.2533 26.4518 62.8526 27.4813C61.452 28.5102 59.6263 29.025 57.3777 29.025H48.9158L51.6859 13.2611C52.1175 10.8043 54.2518 9.01257 56.7458 9.01257H60.0939C62.2667 9.01257 63.9148 9.56992 65.0401 10.6853C66.1641 11.7999 66.5645 13.2153 66.2406 14.9305ZM59.7514 22.6781C59.9037 21.8587 59.5798 21.3918 58.779 21.2774L56.0056 21.2488L55.4908 24.108H57.8924C58.3686 24.108 58.7737 23.9797 59.1075 23.7223C59.4408 23.4649 59.6556 23.1171 59.7514 22.6781ZM59.1794 13.9302H57.2925L56.8064 16.6178L59.0078 16.5892C59.8465 16.4748 60.332 16.0365 60.4657 15.2744C60.5415 14.7982 60.4517 14.455 60.1943 14.2455C59.9369 14.0353 59.5984 13.9302 59.1794 13.9302Z" fill="#FF7F45"/>
<path d="M65.926 29.025L68.476 14.7303H73.7308L71.1809 29.025H65.926ZM73.5592 12.7863C72.9108 13.3583 72.1772 13.6442 71.3578 13.6442C70.5384 13.6442 69.8853 13.3536 69.3991 12.7723C68.9129 12.191 68.7367 11.51 68.8704 10.7285C68.9848 9.96632 69.3658 9.28992 70.0136 8.69866C70.6614 8.10807 71.4143 7.8121 72.2723 7.8121C73.0917 7.8121 73.7395 8.10275 74.2163 8.68403C74.6925 9.26598 74.8641 9.94703 74.7311 10.7285C74.5981 11.5286 74.207 12.215 73.5592 12.7863Z" fill="#FF7F45"/>
<path d="M86.7452 9.01257H92L88.4491 29.025H83.1943L83.4144 27.7846C82.309 28.8787 80.9742 29.4254 79.4119 29.4254C77.5058 29.4254 76.0712 28.6818 75.1095 27.1954C74.1471 25.7089 73.8086 23.9171 74.0946 21.8208C74.3806 19.7437 75.1953 17.9753 76.5388 16.5174C77.8822 15.0595 79.5449 14.3306 81.5276 14.3306C83.3672 14.3306 84.6741 14.9917 85.4496 16.3132L86.7452 9.01257ZM81.4611 24.5656C82.2232 24.5656 82.871 24.3362 83.4051 23.8759C83.9385 23.4157 84.2817 22.8025 84.434 22.0356L84.4839 21.7536C84.579 20.9948 84.4519 20.3776 84.1014 19.9034C83.7509 19.4291 83.185 19.191 82.4041 19.191C81.6227 19.191 80.9556 19.4391 80.4029 19.9346C79.8496 20.4308 79.507 21.0779 79.3734 21.8787C79.2397 22.6601 79.3541 23.3039 79.7165 23.8087C80.079 24.3129 80.6603 24.5656 81.4611 24.5656Z" fill="#FF7F45"/>
<path fill-rule="evenodd" clip-rule="evenodd" d="M80.5046 3.2403L79.207 0L90.0439 6.06359L78.8578 7.52412L79.91 5.69979L78.8365 5.46035L80.8757 4.0251L84.2982 4.59707L80.5046 3.2403Z" fill="white"/>
<path d="M15.6096 14.2162H8.31956L7.94778 16.389H14.5235L13.6083 21.5348H7.03262L6.63224 23.7648H14.0652L13.1501 29.025H0L3.51631 9.01257H16.5241L15.6096 14.2162Z" fill="white"/>
<path d="M28.1664 9.01257H33.4213L29.8704 29.025H24.6155L24.8357 27.7846C23.7303 28.8787 22.3955 29.4254 20.8332 29.4254C18.9271 29.4254 17.4925 28.6818 16.5308 27.1954C15.5684 25.7089 15.2298 23.9171 15.5158 21.8208C15.8018 19.7437 16.6166 17.9753 17.96 16.5174C19.3035 15.0595 20.9662 14.3306 22.9488 14.3306C24.7885 14.3306 26.0954 14.9917 26.8708 16.3132L28.1664 9.01257ZM22.8823 24.5656C23.6445 24.5656 24.2923 24.3362 24.8264 23.8759C25.3598 23.4157 25.703 22.8025 25.8553 22.0356L25.9051 21.7536C26.0002 20.9948 25.8732 20.3776 25.5227 19.9034C25.1722 19.4291 24.6062 19.191 23.8254 19.191C23.0439 19.191 22.3769 19.4391 21.8242 19.9346C21.2715 20.4308 20.9283 21.0779 20.7953 21.8787C20.6616 22.6601 20.776 23.3039 21.1385 23.8087C21.5003 24.3129 22.0816 24.5656 22.8823 24.5656Z" fill="white"/>
<path d="M43.6037 14.7303H48.8586L46.3086 29.025H41.0538L41.3052 27.615C40.2005 28.8222 38.8391 29.4254 37.2202 29.4254C35.6972 29.4254 34.5399 28.868 33.7492 27.7527C32.9584 26.638 32.7442 25.0511 33.1067 22.9927L34.5639 14.7303H39.8187L38.4925 22.4174C38.2638 23.697 38.7459 24.3362 39.9404 24.3362C41.1755 24.3362 41.9477 23.6531 42.2569 22.2864L43.6037 14.7303Z" fill="white"/>
<path d="M48.8585 14.7303C48.8585 14.7303 48.371 -0.198183 83.963 4.55652C83.963 4.55652 45.7645 -5.93389 43.6036 14.7303H48.8585Z" fill="white"/>
</svg>
