<svg width="236" height="210" viewBox="0 0 236 210" fill="none" xmlns="http://www.w3.org/2000/svg">
<path d="M194.457 38.1389C194.405 36.9434 194.337 35.7517 194.254 34.56C194.212 33.9566 194.167 33.357 194.114 32.7573C194.073 32.2558 193.828 31.4261 193.952 30.9434C193.948 30.9509 174.609 105.49 117.893 131.225C61.1771 105.49 41.8381 30.9509 41.8344 30.9434C41.9588 31.4261 41.7137 32.2558 41.6722 32.7573C41.6232 33.357 41.5779 33.9604 41.5326 34.56C41.4497 35.7517 41.3818 36.9434 41.329 38.1389C41.2234 40.511 41.1782 42.8869 41.1933 45.2628C41.2272 50.9046 41.6081 56.5465 42.3322 62.143C43.0223 67.4718 44.0217 72.7629 45.3228 77.9785C46.5673 82.9755 48.0833 87.9007 49.8483 92.7355C51.5416 97.3742 53.4687 101.926 55.5995 106.376C57.6397 110.634 59.8647 114.801 62.2633 118.867C64.5373 122.725 66.9623 126.496 69.5229 130.173C71.9215 133.616 74.4407 136.98 77.0655 140.257C79.4829 143.274 81.987 146.216 84.5779 149.082C86.901 151.654 89.2919 154.166 91.747 156.617C93.8702 158.733 96.0425 160.803 98.26 162.821C100.074 164.472 101.922 166.087 103.8 167.663C105.531 169.111 107.326 170.454 108.884 172.102C111.03 174.368 112.87 176.989 114.073 179.878L117.889 189.069L121.706 179.878C122.909 176.986 124.749 174.368 126.895 172.102C128.453 170.454 130.248 169.111 131.979 167.663C133.861 166.087 135.705 164.472 137.519 162.821C139.736 160.803 141.909 158.733 144.032 156.617C146.487 154.169 148.878 151.658 151.201 149.082C153.792 146.216 156.3 143.27 158.713 140.257C161.338 136.98 163.857 133.62 166.256 130.173C168.817 126.496 171.241 122.728 173.516 118.867C175.91 114.801 178.139 110.634 180.179 106.376C182.31 101.922 184.237 97.3704 185.931 92.7355C187.699 87.9007 189.215 82.9755 190.456 77.9785C191.753 72.7629 192.757 67.4718 193.447 62.143C194.171 56.5465 194.548 50.9046 194.586 45.2628C194.608 42.8869 194.563 40.511 194.457 38.1389Z" fill="#163649"/>
<path d="M117.893 117.475C131.248 117.475 142.075 106.648 142.075 93.2934C142.075 79.9384 131.248 69.1121 117.893 69.1121C104.538 69.1121 93.7119 79.9384 93.7119 93.2934C93.7119 106.648 104.538 117.475 117.893 117.475Z" fill="#163649"/>
<path d="M117.894 26.4368C107.761 41.9065 86.3588 63.2556 67.0273 68.69L88.1238 86.0001C90.6128 71.8051 102.99 61.0343 117.894 61.0343C132.802 61.0343 145.175 71.8013 147.664 86.0001L168.761 68.69C149.429 63.2556 128.031 41.9065 117.894 26.4368Z" fill="#163649"/>
<path d="M117.301 76.372L116.234 94.508H119.553L118.308 76.1042L117.301 76.372Z" fill="#163649"/>
<path d="M117.894 0L120.33 7.49352H128.209L121.835 12.1246L124.268 19.6181L117.894 14.987L111.521 19.6181L113.957 12.1246L107.583 7.49352H115.462L117.894 0Z" fill="white"/>
<path d="M95.4923 14.8135L96.8461 18.9845H101.232L97.6834 21.564L99.0372 25.7313L95.4923 23.1555L91.9435 25.7313L93.2974 21.564L89.7524 18.9845H94.1346L95.4923 14.8135Z" fill="white"/>
<path d="M140.299 14.8132L141.652 18.9842H146.038L142.49 21.5638L143.843 25.731L140.299 23.1553L136.75 25.731L138.107 21.5638L134.559 18.9842H138.945L140.299 14.8132Z" fill="white"/>
<path d="M193.952 146.359L136.029 178.109H125.704L174.066 134.766C181.066 138.04 187.707 141.92 193.952 146.359Z" fill="white"/>
<path d="M218.959 169.432L162.601 178.109H145.487L202.373 152.831C208.392 157.839 213.951 163.401 218.959 169.432Z" fill="white"/>
<path d="M41.835 146.359L99.7578 178.109H110.084L61.7208 134.766C54.7251 138.04 48.0802 141.92 41.835 146.359Z" fill="white"/>
<path d="M16.8281 169.432L73.1859 178.109H90.2999L33.4141 152.831C27.399 157.839 21.8364 163.401 16.8281 169.432Z" fill="white"/>
<path d="M135.434 181.251H124.806V190.555V191.792C124.806 195.333 121.932 198.207 118.406 198.207H117.893H117.381C113.854 198.207 110.981 195.333 110.981 191.792V190.555V181.251H100.353H8.03649C5.07605 185.716 2.39098 190.396 0 195.235H100.353V201.08C100.353 205.545 103.966 209.158 108.431 209.158H117.89H127.348C131.813 209.158 135.426 205.545 135.426 201.08V195.235H235.779C233.388 190.4 230.699 185.72 227.743 181.251H135.434Z" fill="white"/>
</svg>
