<svg width="18" height="20" viewBox="0 0 18 20" fill="none" xmlns="http://www.w3.org/2000/svg">
<path d="M16.5479 8.35583H1.50684M12.3698 1.6709V5.01336M5.68492 1.6709V5.01336M5.51779 18.3832H12.537C13.9409 18.3832 14.6429 18.3832 15.1792 18.11C15.6509 17.8697 16.0344 17.4862 16.2747 17.0145C16.5479 16.4782 16.5479 15.7762 16.5479 14.3723V7.35309C16.5479 5.94912 16.5479 5.24714 16.2747 4.71089C16.0344 4.2392 15.6509 3.8557 15.1792 3.61536C14.6429 3.34213 13.9409 3.34213 12.537 3.34213H5.51779C4.11383 3.34213 3.41184 3.34213 2.8756 3.61536C2.40391 3.8557 2.02041 4.2392 1.78007 4.71089C1.50684 5.24714 1.50684 5.94912 1.50684 7.35309V14.3723C1.50684 15.7762 1.50684 16.4782 1.78007 17.0145C2.02041 17.4862 2.40391 17.8697 2.8756 18.11C3.41184 18.3832 4.11383 18.3832 5.51779 18.3832Z" stroke="#1BABA1" stroke-width="1.67123" stroke-linecap="round" stroke-linejoin="round"/>
</svg>
