<svg width="72" height="57" viewBox="0 0 72 57" fill="none" xmlns="http://www.w3.org/2000/svg">
<path d="M71.2698 13.9266C70.4363 10.4931 67.5516 8.30233 63.8639 8.29086C59.6428 8.27748 55.4199 8.2794 51.1988 8.29852C50.7037 8.30043 50.5106 8.14748 50.3653 7.67147C49.9715 6.37724 49.593 5.06391 49.0386 3.83277C47.8973 1.29975 45.8881 0.0724214 43.0779 0.0934502C38.4267 0.127861 33.7755 0.154639 29.1243 0.0839056C25.9509 0.0361129 23.8614 1.489 22.6971 4.347C22.2402 5.46727 21.9516 6.65445 21.552 7.79956C21.4851 7.99264 21.2519 8.24115 21.0741 8.26218C20.5388 8.32336 19.9921 8.28512 19.365 8.28512C19.365 7.52808 19.3784 6.84178 19.3631 6.15739C19.321 4.38141 18.1377 3.21911 16.3636 3.21337C14.1461 3.20573 11.9266 3.20573 9.70897 3.21337C7.92535 3.21911 6.76304 4.3604 6.7076 6.15358C6.69039 6.72518 6.68084 7.29869 6.71142 7.87029C6.73054 8.25837 6.56994 8.39984 6.21053 8.49543C2.61079 9.46084 0.504086 12.1965 0.504086 15.9128C0.500263 26.7886 0.496441 37.6643 0.506 48.54C0.509823 52.8968 3.66798 56.1218 8.02477 56.1257C26.6773 56.1467 45.3298 56.1467 63.9824 56.1257C68.3411 56.1199 71.4916 52.8987 71.4954 48.5362C71.5031 37.6375 71.5011 26.7369 71.4897 15.8383C71.4839 15.1998 71.4209 14.5441 71.2698 13.9266ZM25.1537 4.53435C25.8304 3.08336 27.0463 2.38942 28.6598 2.39133C33.5499 2.39706 38.4382 2.39706 43.3283 2.39133C44.9437 2.38942 46.1576 3.08527 46.8363 4.53243C47.3773 5.68902 47.7692 6.91443 48.2681 8.22204C40.0421 8.22204 31.9804 8.22204 23.7218 8.22204C24.2227 6.91826 24.6146 5.69093 25.1537 4.53435ZM11.0778 5.5036C12.7696 5.49404 14.4615 5.5227 16.1514 5.49212C16.8358 5.47873 17.1111 5.7483 17.0805 6.4174C17.0557 7.00621 17.0748 7.59692 17.0748 8.23352C16.7976 8.25455 16.5911 8.28512 16.3847 8.28512C14.1461 8.28894 11.9055 8.27175 9.66692 8.29852C9.13355 8.30425 8.97298 8.1475 8.98062 7.61222C9.01121 5.17861 8.79327 5.51698 11.0778 5.5036ZM69.2014 48.4444C69.1994 51.6809 67.0641 53.8412 63.8314 53.8412C45.2783 53.8469 26.7251 53.8469 8.17386 53.8412C4.93543 53.8393 2.79433 51.6847 2.79051 48.4578C2.78668 43.6881 2.78859 38.9203 2.78859 34.1506C2.78859 33.9173 2.78859 33.6822 2.78859 33.4012C7.31934 33.4012 11.7889 33.4012 16.3159 33.4012C16.8722 39.6658 19.6307 44.7147 24.7847 48.3584C28.5183 50.9965 32.7202 52.1398 37.2739 51.8454C47.1345 51.2088 55.0088 43.3306 55.6837 33.3878C60.1781 33.3878 64.6305 33.3878 69.2033 33.3878C69.2033 33.6401 69.2033 33.8887 69.2033 34.1372C69.2033 38.9069 69.2071 43.6747 69.2014 48.4444ZM18.5984 32.193C18.5984 22.6134 26.4154 14.8002 35.9854 14.8117C45.6128 14.8232 53.3801 22.6096 53.3896 32.2541C53.3992 41.8165 45.5727 49.6029 35.9644 49.5914C26.3714 49.58 18.5984 41.7917 18.5984 32.193ZM69.2033 30.3099C69.2033 30.5221 69.2033 30.7363 69.2033 31.0058C64.6744 31.0058 60.1838 31.0058 55.6971 31.0058C55.3033 21.237 46.798 12.5406 36.0313 12.5176C25.3066 12.4947 16.6771 21.1662 16.2948 31.0173C11.8233 31.0173 7.34993 31.0173 2.79051 31.0173C2.79051 29.2317 2.79051 27.515 2.79051 25.8002C2.79051 22.5101 2.78669 19.2182 2.79242 15.9282C2.79624 12.7356 4.9297 10.583 8.1299 10.5811C26.7079 10.5754 45.2878 10.5754 63.8658 10.5811C67.066 10.583 69.1994 12.7356 69.2033 15.9301C69.2071 20.7227 69.2033 25.5173 69.2033 30.3099Z" fill="#0E5952"/>
<path d="M35.9644 49.5913C45.5726 49.6027 53.3991 41.8163 53.3896 32.254C53.38 22.6075 45.6127 14.823 35.9854 14.8115C26.4134 14.8001 18.5984 22.6132 18.5984 32.1928C18.5984 41.7915 26.3714 49.5798 35.9644 49.5913ZM35.3469 20.6365C41.6938 20.2867 47.2282 25.1635 47.578 31.4128C47.9489 38.0522 43.0816 43.4298 36.3582 43.8045C30.3133 44.141 24.779 39.1323 24.4157 32.9957C24.0277 26.4883 28.8891 20.994 35.3469 20.6365Z" fill="#FF7F45"/>
<path d="M62.9425 12.923C61.9905 12.8943 61.0366 12.9173 60.0845 12.9173V12.9192C59.0847 12.9192 58.083 12.8905 57.0832 12.9249C54.9994 12.9975 53.3649 14.6665 53.3133 16.7502C53.2942 17.5359 53.2922 18.3236 53.3152 19.1093C53.3725 21.0133 54.8158 22.7071 56.7199 22.818C58.926 22.9461 61.1513 22.948 63.3574 22.8199C65.2921 22.7071 66.7258 21 66.7755 19.0481C66.7946 18.2872 66.7946 17.5226 66.7755 16.7617C66.7182 14.6454 65.0722 12.988 62.9425 12.923ZM64.4853 18.8856C64.4585 19.8701 63.9003 20.5545 62.9177 20.5851C60.9907 20.6425 59.058 20.6406 57.131 20.5775C56.1885 20.5469 55.6303 19.8606 55.6035 18.92C55.5825 18.2299 55.5806 17.5378 55.6054 16.8477C55.6398 15.89 56.2745 15.2457 57.238 15.2151C58.1671 15.1864 59.0962 15.2094 60.0253 15.2094C60.0253 15.2075 60.0253 15.2075 60.0253 15.2056C60.9314 15.2056 61.8376 15.1903 62.7418 15.2094C63.8276 15.2323 64.4624 15.8747 64.4853 16.9567C64.5006 17.599 64.5025 18.2433 64.4853 18.8856Z" fill="#0E5952"/>
<path d="M36.3583 43.8046C43.0818 43.4299 47.949 38.0542 47.5781 31.4129C47.2283 25.1635 41.6939 20.2868 35.347 20.6366C28.8893 20.9941 24.0278 26.4883 24.414 32.9958C24.7791 39.1324 30.3135 44.1411 36.3583 43.8046ZM36.0888 22.8905C41.193 22.9249 45.307 27.102 45.3051 32.2426C45.3032 37.3316 41.0822 41.545 36.0104 41.5239C30.8411 41.501 26.6812 37.3411 26.6889 32.2005C26.6965 27.0179 30.8985 22.8561 36.0888 22.8905Z" fill="#0E5952"/>
<path d="M36.0102 41.526C41.082 41.547 45.303 37.3336 45.3049 32.2447C45.3068 27.1041 41.1929 22.927 36.0886 22.8926C30.8983 22.8562 26.6964 27.0181 26.6887 32.2026C26.6811 37.3432 30.841 41.5031 36.0102 41.526ZM28.8394 33.3305C28.1321 33.2712 27.7841 32.757 27.8147 31.8164C27.9447 27.6394 31.5292 24.095 35.7235 23.9975C36.5493 23.9784 37.098 24.4028 37.1343 25.0891C37.1706 25.7773 36.6908 26.2209 35.8362 26.2878C32.5194 26.5497 30.363 28.7023 30.103 32.0114C30.0323 32.8985 29.562 33.3917 28.8394 33.3305Z" fill="#FF7F45"/>
<path d="M30.1031 32.013C30.365 28.7019 32.5195 26.5513 35.8363 26.2894C36.6889 26.2225 37.1687 25.7789 37.1343 25.0907C37.098 24.4044 36.5494 23.98 35.7235 23.9992C31.5292 24.0967 27.9447 27.6391 27.8147 31.8181C27.7861 32.7586 28.134 33.2728 28.8394 33.3321C29.5621 33.3914 30.0323 32.8981 30.1031 32.013Z" fill="#0E5952"/>
</svg>
