<svg width="19" height="20" viewBox="0 0 19 20" fill="none" xmlns="http://www.w3.org/2000/svg">
<path d="M7.54215 12.5003L4.97944 15.0951C4.62198 15.457 4.44324 15.638 4.28961 15.6507C4.15633 15.6618 4.02583 15.6082 3.93879 15.5067C3.83845 15.3897 3.83845 15.1353 3.83845 14.6266V13.3267C3.83845 12.8703 3.46472 12.5401 3.01316 12.4739V12.4739C1.92027 12.3138 1.06197 11.4555 0.901884 10.3627C0.875488 10.1825 0.875488 9.96742 0.875488 9.53736V5.66699C0.875488 4.26686 0.875488 3.5668 1.14797 3.03202C1.38766 2.56161 1.77011 2.17916 2.24051 1.93948C2.77529 1.66699 3.47536 1.66699 4.87549 1.66699H11.0422C12.4423 1.66699 13.1424 1.66699 13.6771 1.93948C14.1475 2.17916 14.53 2.56161 14.7697 3.03202C15.0422 3.5668 15.0422 4.26686 15.0422 5.66699V9.16699M15.0422 18.3337L13.2285 17.0727C12.9735 16.8955 12.8461 16.8068 12.7073 16.744C12.5842 16.6882 12.4547 16.6477 12.3218 16.6232C12.172 16.5956 12.0168 16.5956 11.7063 16.5956H10.2088C9.2754 16.5956 8.80869 16.5956 8.45217 16.4139C8.13857 16.2541 7.8836 15.9992 7.72381 15.6855C7.54215 15.329 7.54215 14.8623 7.54215 13.9289V11.8337C7.54215 10.9002 7.54215 10.4335 7.72381 10.077C7.8836 9.7634 8.13857 9.50844 8.45217 9.34865C8.80869 9.16699 9.2754 9.16699 10.2088 9.16699H14.8755C15.8089 9.16699 16.2756 9.16699 16.6321 9.34865C16.9457 9.50844 17.2007 9.7634 17.3605 10.077C17.5422 10.4335 17.5422 10.9002 17.5422 11.8337V14.0956C17.5422 14.8721 17.5422 15.2604 17.4153 15.5667C17.2461 15.9751 16.9217 16.2995 16.5133 16.4687C16.207 16.5956 15.8187 16.5956 15.0422 16.5956V18.3337Z" stroke="#1BABA1" stroke-width="1.66667" stroke-linecap="round" stroke-linejoin="round"/>
</svg>
