<svg width="26" height="26" viewBox="0 0 26 26" fill="none" xmlns="http://www.w3.org/2000/svg">
<circle cx="13" cy="13" r="13" fill="#1BABA1"/>
<path d="M19.75 11.5H6.25M16 5.5V8.5M10 5.5V8.5M9.85 20.5H16.15C17.4101 20.5 18.0402 20.5 18.5215 20.2548C18.9448 20.039 19.289 19.6948 19.5048 19.2715C19.75 18.7902 19.75 18.1601 19.75 16.9V10.6C19.75 9.33988 19.75 8.70982 19.5048 8.22852C19.289 7.80516 18.9448 7.46095 18.5215 7.24524C18.0402 7 17.4101 7 16.15 7H9.85C8.58988 7 7.95982 7 7.47852 7.24524C7.05516 7.46095 6.71095 7.80516 6.49524 8.22852C6.25 8.70982 6.25 9.33988 6.25 10.6V16.9C6.25 18.1601 6.25 18.7902 6.49524 19.2715C6.71095 19.6948 7.05516 20.039 7.47852 20.2548C7.95982 20.5 8.58988 20.5 9.85 20.5Z" stroke="white" stroke-width="1.5" stroke-linecap="round" stroke-linejoin="round"/>
</svg>
