<svg width="71" height="72" viewBox="0 0 71 72" fill="none" xmlns="http://www.w3.org/2000/svg">
<path d="M31.4857 1.86432C30.8832 2.65009 30.4469 3.56241 29.8745 4.52195C25.1939 4.52195 20.3414 4.52762 15.4889 4.50307C15.2886 4.50118 15.0185 4.25941 14.9014 4.05919C14.0779 2.6482 12.5876 1.97953 11.0595 2.3762C9.55403 2.76719 8.51703 4.08753 8.50948 5.62696C8.50192 7.20228 9.5408 8.53961 11.0783 8.93438C12.6027 9.32538 14.1043 8.66992 14.8863 7.21738C15.0752 6.86794 15.2811 6.77539 15.6513 6.77728C17.5836 6.79428 19.5159 6.78484 21.4483 6.78484C22.1131 6.78484 22.7761 6.78484 23.5997 6.78484C12.3911 11.8395 5.80837 20.2941 3.67583 32.2355C2.89006 32.2355 2.1364 32.2299 1.38463 32.2374C0.449636 32.2469 0.034098 32.6454 0.0303203 33.5634C0.0208759 35.6846 0.0227648 37.8058 0.0303203 39.9251C0.034098 40.8809 0.447766 41.2738 1.42809 41.2813C2.17986 41.287 2.93161 41.2832 3.60216 41.2832C6.71881 56.5604 15.8534 65.6913 31.1344 68.8117C31.1344 69.5049 31.1268 70.2793 31.1363 71.0538C31.1476 71.9737 31.5575 72.3835 32.4849 72.3873C34.6062 72.3949 36.7274 72.3968 38.8467 72.3873C39.7647 72.3835 40.1689 71.9661 40.1783 71.0368C40.1878 70.2661 40.1802 69.4936 40.1802 68.8192C55.4763 65.6837 64.6053 56.5472 67.7049 41.3116C67.6936 41.3134 67.7389 41.2927 67.7842 41.2927C68.4907 41.2889 69.199 41.2908 69.9054 41.2832C70.8744 41.2719 71.2805 40.8733 71.2843 39.9062C71.2919 37.8096 71.2919 35.711 71.2843 33.6144C71.2805 32.6435 70.8763 32.2469 69.9073 32.2374C69.1404 32.2299 68.3717 32.2355 67.5764 32.2355C66.7113 26.5236 64.5694 21.435 61.0674 16.9394C57.5541 12.4269 53.1171 9.11005 47.8736 6.78484C48.0984 6.78484 48.3232 6.78484 48.5479 6.78484C50.858 6.78484 53.1662 6.79805 55.4763 6.7735C55.9712 6.76783 56.2564 6.87173 56.5133 7.35151C57.2443 8.71338 58.8366 9.32725 60.3251 8.91548C61.8116 8.50559 62.8203 7.16449 62.8089 5.61373C62.7976 4.10074 61.7833 2.78798 60.3175 2.38943C58.8253 1.98332 57.2386 2.60286 56.5077 3.96096C56.2697 4.40485 56.0184 4.53519 55.5406 4.5333C50.9921 4.5163 46.4437 4.52384 41.8972 4.52384C41.6687 4.52384 41.4382 4.52384 41.2134 4.52384C40.8187 2.95797 40.048 1.70376 38.705 0.912318C38.0269 0.513765 37.243 0.298442 36.5064 0C35.9416 0 35.3749 0 34.8102 0C33.5333 0.324886 32.3074 0.795215 31.4857 1.86432ZM11.8905 6.77917C11.2559 6.77351 10.7402 6.22194 10.7761 5.58917C10.8101 4.98473 11.3447 4.49929 11.9472 4.52384C12.5535 4.55029 13.0447 5.0735 13.0276 5.67794C13.0107 6.28616 12.495 6.78295 11.8905 6.77917ZM59.4184 4.52763C60.0266 4.5314 60.5291 5.03763 60.5347 5.64585C60.5385 6.25218 60.0417 6.76595 59.4335 6.77917C58.8272 6.79428 58.3059 6.30318 58.2832 5.69685C58.2586 5.0603 58.7818 4.52196 59.4184 4.52763ZM2.33474 38.9675C2.33474 37.513 2.33474 36.0454 2.33474 34.555C3.82506 34.555 5.30782 34.555 6.79626 34.555C6.79626 36.0473 6.79626 37.4809 6.79626 38.9675C5.31538 38.9675 3.84961 38.9675 2.33474 38.9675ZM37.8607 70.0772C36.4138 70.0772 34.9461 70.0772 33.4237 70.0772C33.4237 68.5775 33.4237 67.1268 33.4237 65.6403C34.9046 65.6403 36.3534 65.6403 37.8607 65.6403C37.8607 67.0928 37.8607 68.5605 37.8607 70.0772ZM68.9855 34.5399C68.9855 36.0095 68.9855 37.4583 68.9855 38.9901C67.4971 38.9901 66.0483 38.9901 64.5486 38.9901C64.5486 37.5168 64.5486 36.051 64.5486 34.5399C66.0162 34.5399 67.482 34.5399 68.9855 34.5399ZM41.1039 7.29105C46.8404 8.37904 51.861 10.8818 56.1166 14.8787C61.1278 19.5838 64.1387 25.3638 65.2909 32.2374C64.6279 32.2374 64.048 32.2242 63.4663 32.2412C62.6748 32.2638 62.246 32.6832 62.2423 33.4803C62.229 35.6714 62.229 37.8625 62.2423 40.0536C62.2479 40.8431 62.6824 41.2606 63.4795 41.2813C64.0424 41.2965 64.6052 41.2851 65.2758 41.2851C64.337 47.3276 61.8701 52.5617 57.7902 57.01C53.0529 62.1742 47.1879 65.2568 40.1802 66.3958C40.1802 65.7574 40.1897 65.1983 40.1783 64.6392C40.1594 63.7665 39.7458 63.3491 38.8618 63.3453C36.7179 63.3358 34.5741 63.3358 32.4302 63.3453C31.5556 63.3491 31.1514 63.7722 31.1344 64.6599C31.125 65.1983 31.1325 65.7385 31.1325 66.3826C25.039 65.4325 19.769 62.9335 15.3019 58.7969C10.2 54.0728 7.14948 48.2381 6.02371 41.287C6.63949 41.287 7.17592 41.2927 7.71236 41.2851C8.64546 41.2719 9.06858 40.8733 9.07236 39.961C9.0818 37.8171 9.08369 35.6733 9.07236 33.5294C9.06858 32.6586 8.63792 32.2544 7.75204 32.2393C7.21371 32.2299 6.67537 32.2374 6.03693 32.2374C6.98514 26.2705 9.42746 21.0931 13.43 16.6769C17.9557 11.6846 23.5562 8.58115 30.1956 7.28727C31.2458 9.89202 33.0799 11.3767 35.8811 11.2841C38.4538 11.1935 40.1387 9.74281 41.1039 7.29105ZM35.6167 2.26287C37.5037 2.25531 39.0412 3.77776 39.0412 5.65341C39.0412 7.50073 37.532 9.02504 35.6866 9.04204C33.8091 9.05904 32.2715 7.53473 32.2621 5.65152C32.2564 3.80987 33.7807 2.27042 35.6167 2.26287Z" fill="#0E5952"/>
<path d="M33.8392 13.5583C32.9855 13.5262 32.5038 13.8586 32.1695 14.6444C28.9093 22.3075 25.6283 29.9612 22.3322 37.6093C22.0659 38.2288 22.0829 38.7521 22.3568 39.3546C23.6582 42.2257 24.9181 45.1157 26.2195 47.9868C26.4386 48.4703 26.4858 48.8878 26.3064 49.3959C25.6887 51.1487 25.1107 52.9148 24.5233 54.6772C24.1002 55.9484 24.546 56.5509 25.9079 56.5528C29.1359 56.5547 32.364 56.5528 35.5921 56.5528C38.892 56.5528 42.1899 56.5547 45.4898 56.5509C46.7402 56.549 47.1917 55.9181 46.7969 54.7244C46.1981 52.9148 45.5672 51.1166 45.0044 49.2976C44.8929 48.9369 44.9099 48.4514 45.0592 48.1058C46.3474 45.127 47.6979 42.1728 48.9805 39.1903C49.1467 38.8031 49.1996 38.2326 49.0428 37.8586C45.7297 30.0387 42.3769 22.2358 39.0374 14.429C38.7862 13.8416 38.3763 13.5564 37.7265 13.5639C36.4308 13.5828 35.1331 13.6074 33.8392 13.5583ZM39.0431 37.9417C39.0185 39.7853 37.4867 41.2869 35.6374 41.2775C33.7656 41.2699 32.2488 39.7211 32.2658 37.8341C32.2809 35.9981 33.8298 34.4813 35.6714 34.4983C37.5528 34.5172 39.0676 36.0623 39.0431 37.9417ZM27.0563 54.271C27.5417 52.8091 28.0026 51.3905 28.4956 49.9814C28.5353 49.87 28.7941 49.7755 28.9527 49.7755C33.4237 49.7642 37.8928 49.7623 42.3637 49.7812C42.5337 49.7812 42.8019 49.9644 42.8586 50.1212C43.3384 51.468 43.7785 52.8279 44.2601 54.271C38.4858 54.271 32.8192 54.271 27.0563 54.271ZM36.8274 19.8747C36.8274 18.4731 36.8274 17.0583 36.8274 15.6304C37.09 15.9382 37.2657 16.0686 37.3393 16.2423C40.4654 23.524 43.5858 30.8074 46.6911 38.0966C46.778 38.3006 46.7761 38.6104 46.6855 38.8144C45.4785 41.5721 44.2583 44.3242 43.0078 47.0612C42.9153 47.2652 42.5753 47.4824 42.3486 47.4843C37.8739 47.5089 33.3972 47.5089 28.9225 47.4862C28.7128 47.4843 28.3955 47.286 28.3086 47.0971C27.0619 44.3582 25.838 41.608 24.6329 38.8484C24.5346 38.6255 24.5309 38.2874 24.6253 38.0645C27.7212 30.7961 30.8359 23.5334 33.9526 16.2745C34.03 16.095 34.1887 15.9477 34.4607 15.857C34.4607 21.3253 34.4607 26.7936 34.4607 32.3337C32.7494 32.787 31.3705 33.7635 30.5602 35.4333C29.9746 36.6422 29.8461 37.9077 30.1521 39.2186C30.7566 41.8083 33.1706 43.6291 35.8792 43.5385C38.5501 43.4497 40.7355 41.4985 41.2266 38.7653C41.2738 38.5008 41.3041 38.2402 41.3154 37.9833C41.3229 37.8133 41.3229 37.6452 41.3154 37.479C41.3022 37.2296 41.2738 36.9878 41.2247 36.7498C40.8432 34.8496 39.3378 33.3083 36.8218 32.294C36.8274 28.1876 36.8274 24.0812 36.8274 19.8747Z" fill="#0E5952"/>
<path d="M41.2305 36.7518C41.2777 36.9898 41.3079 37.2335 41.3211 37.4809C41.3287 37.6472 41.3306 37.8153 41.3211 37.9853C41.3098 38.2403 41.2796 38.5009 41.2323 38.7673C40.7412 41.5005 38.5558 43.4517 35.8849 43.5404C33.1763 43.6311 30.7623 41.8083 30.1579 39.2206C29.8519 37.9116 29.9803 36.646 30.5659 35.4353C31.3743 33.7636 32.7551 32.789 34.4664 32.3356C34.4664 26.7974 34.4664 21.3273 34.4664 15.859C34.1925 15.9496 34.0357 16.0951 33.9583 16.2764C30.8398 23.5354 27.7269 30.7981 24.631 38.0665C24.5366 38.2894 24.5404 38.6275 24.6386 38.8504C25.8437 41.6081 27.0658 44.3602 28.3143 47.0991C28.4012 47.288 28.7167 47.4882 28.9282 47.4882C33.403 47.5109 37.8796 47.5109 42.3543 47.4863C42.581 47.4844 42.9191 47.2672 43.0135 47.0632C44.264 44.3243 45.4842 41.5741 46.6912 38.8164C46.78 38.6124 46.7837 38.3026 46.6968 38.0986C43.5915 30.8094 40.4711 23.524 37.345 16.2443C37.2714 16.0705 37.0957 15.9402 36.8332 15.6323C36.8332 17.0603 36.8332 18.4751 36.8332 19.8766C36.8332 24.0831 36.8332 28.1896 36.8332 32.296C39.3435 33.3084 40.8489 34.8497 41.2305 36.7518Z" fill="#FF7F45"/>
<path d="M42.3619 49.7813C37.8909 49.7624 33.4218 49.7643 28.9509 49.7756C28.7941 49.7756 28.5334 49.8701 28.4938 49.9815C28.0008 51.3887 27.538 52.8091 27.0544 54.2711C32.8174 54.2711 38.484 54.2711 44.2583 54.2711C43.7767 52.828 43.3365 51.4681 42.8568 50.1213C42.802 49.9645 42.5338 49.7832 42.3619 49.7813Z" fill="#FF7F45"/>
<path d="M32.2639 37.8343C32.2469 39.7212 33.7637 41.2701 35.6356 41.2777C37.4848 41.2852 39.0185 39.7836 39.0412 37.9419C39.0658 36.0625 37.5509 34.5174 35.6677 34.5004C33.8279 34.4834 32.2809 35.9983 32.2639 37.8343Z" fill="#FF7F45"/>
</svg>
