<svg width="22" height="22" viewBox="0 0 22 22" fill="none" xmlns="http://www.w3.org/2000/svg">
<path d="M21.8055 17.6192C21.8344 13.3237 21.8244 9.0271 21.8117 4.73052C21.807 3.61808 21.3627 2.5526 20.5758 1.76629C19.7889 0.979988 18.7231 0.536616 17.6106 0.532815C13.3144 0.520963 9.01818 0.520963 4.72196 0.532815C2.61089 0.537814 0.825923 2.13445 0.559817 4.21664C0.550293 4.26359 0.537484 4.30981 0.521484 4.35497L0.521484 17.9958C0.570372 18.2242 0.603149 18.4575 0.67037 18.6797C1.17332 20.3375 2.2709 21.3585 3.96309 21.743C3.99536 21.7528 4.02676 21.7652 4.05698 21.7802L18.2823 21.7802C18.6856 21.6408 19.1156 21.5502 19.4872 21.353C20.9761 20.5641 21.7944 19.3047 21.8055 17.6192ZM17.4651 20.158L4.86585 20.158C3.29921 20.158 2.18312 19.0403 2.18312 17.4736C2.18312 13.2737 2.18312 9.07414 2.18312 4.87496C2.18312 3.30943 3.30032 2.19334 4.86807 2.19278L17.469 2.19278C19.0361 2.19278 20.1511 3.30943 20.1517 4.87718C20.1517 6.98381 20.1517 9.09044 20.1517 11.1971C20.1517 13.29 20.1517 15.3825 20.1517 17.4747C20.1511 19.0408 19.0334 20.158 17.4651 20.158Z" fill="#1BABA1"/>
<path d="M14.1909 9.82182C13.5148 10.4885 12.847 11.1635 12.1748 11.8346C12.1282 11.8807 12.0782 11.924 11.9998 11.9962V8.11852C11.9998 7.23853 11.9998 6.358 11.9998 5.47801C11.9998 5.05246 11.722 4.71414 11.3332 4.64469C10.7898 4.54469 10.3387 4.93024 10.3382 5.50412C10.3382 7.58297 10.3382 9.66201 10.3382 11.7412V11.9996C10.2526 11.9196 10.1976 11.8701 10.1454 11.8179C9.4732 11.1474 8.80599 10.4718 8.12822 9.80682C7.78267 9.46794 7.27935 9.47349 6.95269 9.7996C6.63714 10.114 6.61047 10.6246 6.92602 10.944C8.02267 12.0551 9.12154 13.1601 10.2371 14.2495C10.4882 14.4913 10.8232 14.6263 11.1718 14.6263C11.5203 14.6263 11.8554 14.4913 12.1065 14.2495C13.2176 13.1645 14.3092 12.0612 15.4036 10.9601C15.5215 10.8405 15.5991 10.6871 15.6255 10.5212C15.6519 10.3554 15.6258 10.1854 15.5509 10.0352C15.2953 9.49683 14.632 9.38961 14.1909 9.82182Z" fill="#1BABA1"/>
<path d="M14.7163 15.9827C13.538 15.9788 12.3602 15.9827 11.1819 15.9827C10.1497 15.9827 9.11731 15.9827 8.08474 15.9827C7.86252 15.9827 7.6403 15.976 7.41808 15.9971C7.23103 16.0192 7.05768 16.1063 6.92831 16.2431C6.79894 16.38 6.72179 16.558 6.71032 16.746C6.67809 17.2821 7.0492 17.6443 7.63863 17.6443C9.98748 17.6443 12.3365 17.6443 14.6857 17.6443C14.7827 17.6454 14.8796 17.6378 14.9752 17.6215C15.1495 17.5859 15.3074 17.4941 15.4245 17.3601C15.5416 17.2262 15.6115 17.0574 15.6235 16.8799C15.6557 16.351 15.2918 15.9849 14.7163 15.9827Z" fill="#1BABA1"/>
</svg>
