<svg width="64" height="71" viewBox="0 0 64 71" fill="none" xmlns="http://www.w3.org/2000/svg">
<path d="M35.0999 53.4744C35.0999 43.8281 27.28 36.0083 17.6338 36.0083C7.98755 36.0083 0.167723 43.8281 0.167724 53.4744C0.167724 63.1206 7.98755 70.9404 17.6338 70.9404C27.28 70.9404 35.0999 63.1206 35.0999 53.4744Z" fill="#DEE6E8"/>
<path d="M41.3935 44.8744C53.7858 44.8744 63.8317 34.8285 63.8317 22.4362C63.8317 10.044 53.7858 -0.00195312 41.3935 -0.00195312C29.0012 -0.00195312 18.9553 10.044 18.9553 22.4362C18.9553 34.8285 29.0012 44.8744 41.3935 44.8744Z" fill="#DEE6E8"/>
<path d="M44.6251 70.4594C45.8493 70.0139 46.4805 68.6603 46.035 67.4362C45.5894 66.212 44.2359 65.5808 43.0117 66.0263C41.7876 66.4718 41.1563 67.8254 41.6019 69.0496C42.0474 70.2737 43.401 70.9049 44.6251 70.4594Z" fill="#DEE6E8"/>
<path d="M34.537 66.0166C34.8149 65.3418 34.493 64.5694 33.8182 64.2916C33.1433 64.0138 32.371 64.3356 32.0932 65.0105C31.8153 65.6853 32.1372 66.4577 32.812 66.7355C33.4869 67.0133 34.2592 66.6915 34.537 66.0166Z" fill="#DEE6E8"/>
<path d="M10.9573 9.11279C12.2545 9.11279 13.3061 8.06116 13.3061 6.76391C13.3061 5.46667 12.2545 4.41504 10.9573 4.41504C9.66003 4.41504 8.6084 5.46667 8.6084 6.76391C8.6084 8.06116 9.66003 9.11279 10.9573 9.11279Z" fill="#DEE6E8"/>
<path d="M21.8643 9.39102C22.3185 8.82209 22.2255 7.99269 21.6566 7.5385C21.0877 7.0843 20.2583 7.17731 19.8041 7.74624C19.3499 8.31516 19.4429 9.14456 20.0118 9.59876C20.5807 10.053 21.4101 9.95994 21.8643 9.39102Z" fill="#DEE6E8"/>
<path d="M12.5959 62.3147L51.5027 60.1673C53.7524 60.0418 55.4736 58.1191 55.3514 55.8693L53.0884 14.8978C52.9629 12.648 51.0402 10.9269 48.7904 11.0491L9.88365 13.1965C7.63389 13.322 5.9127 15.2447 6.03494 17.4945L8.29461 58.466C8.42015 60.7157 10.3462 62.4402 12.5959 62.3147Z" fill="#33B6AD"/>
<path d="M20.1643 65.6412L58.7473 60.177C60.9773 59.8599 62.53 57.7984 62.2128 55.5652L56.4579 14.9373C56.1408 12.7073 54.0793 11.1546 51.8461 11.4718L13.2664 16.9327C11.0364 17.2498 9.48372 19.3113 9.80087 21.5445L15.5525 62.1724C15.8696 64.4024 17.9311 65.9551 20.1643 65.6412Z" fill="#8FC28C"/>
<path d="M13.6233 59.8759L52.5895 59.8462C54.8425 59.8462 56.6661 58.016 56.6661 55.7629L56.6364 14.7319C56.6364 12.4789 54.8062 10.6553 52.5531 10.6553L13.5869 10.685C11.3339 10.685 9.51025 12.5152 9.51025 14.7683L9.53999 55.8026C9.54329 58.0523 11.3702 59.8792 13.6233 59.8759Z" fill="#1BABA1"/>
<path d="M32.6094 40.873L38.9523 29.8587C39.6494 28.6496 41.3937 28.6463 42.0908 29.8554L48.4568 40.8531L32.6094 40.873Z" fill="#0D8179"/>
<path d="M17.7993 40.8897L27.3567 24.2923C28.0538 23.0832 29.7981 23.0799 30.4951 24.289L40.0889 40.8632L17.7993 40.8897Z" fill="#36CCC2"/>
<path d="M40.5115 24.1006C42.6225 24.1006 44.3338 22.3893 44.3338 20.2783C44.3338 18.1674 42.6225 16.4561 40.5115 16.4561C38.4005 16.4561 36.6892 18.1674 36.6892 20.2783C36.6892 22.3893 38.4005 24.1006 40.5115 24.1006Z" fill="#36CCC1"/>
<path d="M47.6935 48.5216H18.6646C18.4763 48.5216 18.3276 48.3696 18.3276 48.1846C18.3276 47.9963 18.4796 47.8477 18.6646 47.8477H47.6935C47.8818 47.8477 48.0305 47.9996 48.0305 48.1846C48.0305 48.3696 47.8818 48.5216 47.6935 48.5216Z" fill="#36CCC1"/>
<path d="M47.6935 51.336H18.6646C18.4763 51.336 18.3276 51.1841 18.3276 50.9991C18.3276 50.8108 18.4796 50.6621 18.6646 50.6621H47.6935C47.8818 50.6621 48.0305 50.8141 48.0305 50.9991C48.0305 51.1841 47.8818 51.336 47.6935 51.336Z" fill="#36CCC1"/>
<path d="M37.7992 54.1485H18.6646C18.4763 54.1485 18.3276 53.9966 18.3276 53.8116C18.3276 53.6233 18.4796 53.4746 18.6646 53.4746H37.8025C37.9908 53.4746 38.1395 53.6266 38.1395 53.8116C38.1395 53.9999 37.9875 54.1485 37.7992 54.1485Z" fill="#36CCC1"/>
<path d="M54.0463 8.77901C53.8679 8.54115 53.6432 8.33963 53.3856 8.19096C53.2303 8.10177 53.0585 8.02909 52.8801 7.98284C52.7017 7.93328 52.5134 7.91016 52.3185 7.91016C51.7271 7.91016 51.1887 8.15132 50.7988 8.53784C50.409 8.92767 50.1711 9.46286 50.1711 10.0575V16.2188C50.1711 17.3684 51.0763 18.3067 52.2095 18.3628C52.2458 18.3628 52.2822 18.3661 52.3185 18.3661C52.4506 18.3661 52.5795 18.3529 52.705 18.3331C53.0023 18.2802 53.2765 18.1646 53.5177 18.0027C54.0892 17.6162 54.4658 16.9621 54.4658 16.2188V10.0542C54.4658 9.57848 54.3106 9.1358 54.0463 8.77901ZM50.6568 16.113V10.1665C50.6568 9.70733 50.8418 9.29437 51.1424 8.99374C51.3274 8.80874 51.5554 8.66669 51.813 8.58409C51.7866 8.60722 51.7602 8.63365 51.7338 8.66008C51.3439 9.04991 51.1061 9.58509 51.1061 10.1797V16.3443C51.1061 16.787 51.2415 17.1999 51.4728 17.5435C50.9838 17.2528 50.6568 16.7209 50.6568 16.113ZM53.9769 16.113C53.9769 16.4797 53.858 16.82 53.6532 17.0975V13.6882C53.6532 13.6618 53.6532 13.6353 53.6565 13.6089H53.1675V17.5402C53.0519 17.6096 52.9264 17.6657 52.7942 17.7054C52.7248 17.7252 52.6522 17.7417 52.5762 17.7549C52.4705 17.7087 52.3714 17.6492 52.2789 17.5832C51.8626 17.2825 51.595 16.7936 51.595 16.2386V10.2921C51.595 9.83286 51.78 9.41991 52.0806 9.11928C52.2722 8.92767 52.5101 8.78231 52.7777 8.70303C52.8471 8.6832 52.9198 8.66669 52.9957 8.65347C53.1015 8.69972 53.2006 8.75919 53.2931 8.82526C53.7093 9.12589 53.9769 9.61482 53.9769 10.1698V16.113Z" fill="#43616B"/>
</svg>
