<svg width="21" height="21" viewBox="0 0 21 21" fill="none" xmlns="http://www.w3.org/2000/svg">
<path d="M18.2528 5.70717C16.5921 5.96086 15.751 8.01041 16.749 9.36231C16.9977 9.69778 17.3081 9.95648 17.687 10.1484C17.4433 10.5874 17.5001 11.0564 17.4851 11.532C17.1012 11.532 16.7323 11.527 16.3618 11.532C15.3771 11.5454 14.6544 12.2046 14.571 13.1843C14.5526 13.4063 14.6027 13.635 14.621 13.8686C12.211 13.8686 9.79091 13.8686 7.35415 13.8686C7.36917 13.8036 7.38086 13.7468 7.39421 13.6917C7.60617 12.8122 7.09045 11.8725 6.21588 11.6338C5.86539 11.5387 5.48319 11.5571 5.11434 11.5354C4.91572 11.5237 4.71711 11.5337 4.50682 11.5337C4.50682 11.275 4.52684 11.0447 4.50181 10.821C4.4751 10.5924 4.40501 10.3687 4.35327 10.1401C5.77193 9.40737 5.99057 7.77842 5.30627 6.73695C4.60195 5.66378 3.17161 5.35501 2.07173 6.04431C1.05196 6.68354 0.49284 8.31918 1.60941 9.616C1.1037 10.0516 0.981861 10.6258 0.988537 11.2683C1.00523 12.6753 0.993544 14.0823 0.993544 15.4893C0.993544 16.6642 1.73125 17.3986 2.91124 17.3986C3.56883 17.3986 4.22642 17.3986 4.88401 17.3986C4.95244 17.3986 5.02087 17.3986 5.09598 17.3986C5.09598 17.9944 5.09431 18.5619 5.09598 19.1277C5.09932 19.7386 5.31295 20.261 5.82534 20.6048C6.07068 20.77 6.37778 20.8418 6.65817 20.9569C6.78836 20.9569 6.91854 20.9569 7.04872 20.9569C7.32745 20.8418 7.63455 20.7683 7.88156 20.6048C8.38226 20.271 8.60591 19.7619 8.60925 19.1678C8.61593 17.9944 8.61426 16.8228 8.60758 15.6495C8.60591 15.4559 8.56252 15.2639 8.53581 15.062C9.15168 15.062 9.76921 15.062 10.3968 15.062C10.3968 16.6325 10.3968 18.1981 10.3968 19.7836C10.2232 19.7836 10.0546 19.782 9.88771 19.7836C9.55057 19.787 9.31858 19.9555 9.25015 20.2476C9.18673 20.523 9.32526 20.77 9.62401 20.9202C9.63903 20.9286 9.65071 20.9436 9.66407 20.9569C10.5503 20.9569 11.4366 20.9569 12.3228 20.9569C12.3595 20.9336 12.3962 20.9085 12.4346 20.8885C12.675 20.7533 12.7968 20.498 12.7384 20.2493C12.6766 19.9822 12.4597 19.7986 12.1793 19.7886C11.9857 19.7803 11.7921 19.787 11.5901 19.787C11.5901 18.2047 11.5901 16.6442 11.5901 15.0687C12.211 15.0687 12.8319 15.0687 13.4327 15.0687C13.3209 16.4489 13.386 17.8309 13.386 19.2095C13.386 20.1158 13.9835 20.7633 14.8897 20.9352C14.9081 20.9386 14.9248 20.9519 14.9415 20.9603C15.0717 20.9603 15.2018 20.9603 15.332 20.9603C15.6108 20.8468 15.9179 20.7733 16.1649 20.6081C16.6706 20.271 16.8892 19.7553 16.8959 19.1527C16.9009 18.6387 16.8976 18.1246 16.8976 17.6106C16.8976 17.5471 16.8976 17.4837 16.8976 17.4019C17.1613 17.4019 17.4066 17.4036 17.652 17.4019C18.2561 17.3953 18.8637 17.422 19.4645 17.3702C20.2473 17.3018 20.8298 16.711 20.97 15.9315C20.975 15.8998 20.99 15.8698 21 15.8397C21 14.1323 21 12.4249 21 10.7192C20.9032 10.2936 20.7296 9.91141 20.3758 9.61266C20.6495 9.29221 20.8565 8.94506 20.9416 8.53782C20.9583 8.45603 20.9816 8.37592 21 8.29414C21 8.11222 21 7.92863 21 7.7467C20.9883 7.71666 20.9733 7.68662 20.9666 7.65658C20.7146 6.30635 19.588 5.50355 18.2528 5.70717ZM3.33851 6.8421C3.9744 6.84043 4.50682 7.36784 4.51182 8.0054C4.51683 8.64964 3.97774 9.18873 3.3335 9.18372C2.69594 9.17872 2.16853 8.6463 2.1702 8.01041C2.17187 7.37451 2.70094 6.84377 3.33851 6.8421ZM7.44428 19.1427C7.44261 19.6067 7.04538 19.8971 6.64315 19.7386C6.41116 19.6468 6.2743 19.4348 6.2743 19.1494C6.27263 18.4067 6.2743 17.664 6.27263 16.9213C6.27263 16.4473 6.05065 16.2253 5.58166 16.2236C4.67706 16.222 3.77078 16.2236 2.86618 16.2236C2.39218 16.2236 2.1702 16.0016 2.16853 15.5326C2.16686 14.7833 2.16853 14.0339 2.16853 13.2845C2.16853 12.7087 2.16686 12.1312 2.16686 11.5554C2.16686 11.3635 2.16853 11.1715 2.16853 10.9796C2.17187 10.5306 2.57577 10.2419 2.96799 10.4054C3.21667 10.5073 3.33684 10.7059 3.33851 10.9729C3.34018 11.3251 3.33851 11.6772 3.34018 12.0277C3.34185 12.475 3.56716 12.7037 4.01112 12.7053C4.5452 12.707 5.07929 12.7037 5.61337 12.707C6.00726 12.7087 6.2743 12.9507 6.27096 13.2995C6.26762 13.64 6.00392 13.877 5.62005 13.8787C5.07929 13.8803 4.53853 13.877 3.99777 13.8803C3.60388 13.882 3.33684 14.124 3.34185 14.4728C3.34518 14.8133 3.60889 15.0503 3.99276 15.052C4.91072 15.0536 5.83034 15.052 6.7483 15.0536C7.2223 15.0536 7.44428 15.2756 7.44428 15.7446C7.44595 16.8762 7.44762 18.0095 7.44428 19.1427ZM17.4917 8.00039C17.5001 7.36116 18.0358 6.83709 18.6717 6.8421C19.3093 6.84711 19.8367 7.37952 19.835 8.01708C19.8334 8.65465 19.3026 9.18372 18.6651 9.18539C18.0208 9.18706 17.4834 8.64296 17.4917 8.00039ZM19.835 15.5143C19.835 16.01 19.6181 16.2236 19.1174 16.2236C18.2178 16.2236 17.3198 16.2236 16.4202 16.2236C15.9512 16.2236 15.7309 16.4473 15.7309 16.9213C15.7309 17.6707 15.7343 18.42 15.7293 19.1694C15.7259 19.6151 15.312 19.9021 14.9231 19.7336C14.6845 19.6317 14.5609 19.4398 14.5609 19.1811C14.5593 18.0078 14.5576 16.8361 14.5609 15.6628C14.5626 15.289 14.8113 15.0536 15.1985 15.052C16.1031 15.0486 17.0094 15.0503 17.914 15.0503C17.9724 15.0503 18.0308 15.052 18.0892 15.0486C18.413 15.0303 18.6567 14.7816 18.66 14.4695C18.6634 14.149 18.4147 13.8853 18.0809 13.8803C17.5535 13.872 17.0261 13.877 16.4987 13.877C16.4336 13.877 16.3685 13.8787 16.3034 13.8753C15.9796 13.857 15.7359 13.6083 15.7326 13.2962C15.7293 12.9757 15.9779 12.712 16.3117 12.707C16.8592 12.6987 17.4066 12.7037 17.9524 12.7037C18.4464 12.7037 18.66 12.4867 18.6617 11.986C18.6617 11.6672 18.66 11.3468 18.6617 11.028C18.6634 10.6274 18.8954 10.362 19.2425 10.3587C19.5964 10.3554 19.8334 10.6258 19.8334 11.0363C19.835 11.7924 19.8334 12.5485 19.8334 13.3028C19.835 14.0422 19.8367 14.7783 19.835 15.5143Z" fill="#1BABA1"/>
<path d="M14.2522 1.81843C13.0205 1.08072 11.6753 0.822026 10.2566 0.98559C8.87799 1.14415 7.64793 1.64986 6.68491 2.68131C5.95722 3.46074 5.58837 4.3837 5.72022 5.46355C5.85374 6.56009 6.45125 7.38292 7.31246 8.02549C8.40733 8.84163 9.66243 9.16709 11.2046 9.19213C11.4316 9.16542 11.8572 9.14205 12.2694 9.06194C13.608 8.80158 14.7763 8.22744 15.6108 7.11254C16.3068 6.1829 16.5071 5.14811 16.1349 4.03154C15.8061 3.04181 15.1251 2.33916 14.2522 1.81843ZM14.3757 6.76371C13.618 7.49307 12.6867 7.84189 11.6619 7.97208C11.4433 8.00045 11.2213 8.00713 11.0577 8.01881C9.85103 7.98877 8.78453 7.71338 7.87158 6.98235C7.42595 6.62518 7.08214 6.18623 6.93526 5.62378C6.70494 4.7392 7.01204 4.00817 7.62957 3.3873C8.34558 2.66629 9.24518 2.30578 10.2332 2.16725C11.4015 2.00369 12.5164 2.18561 13.5529 2.76476C14.0786 3.0585 14.5259 3.44405 14.828 3.97145C15.3721 4.91611 15.1969 5.97427 14.3757 6.76371Z" fill="#1BABA1"/>
<path d="M8.6207 4.49708C8.30192 4.49541 8.03488 4.76078 8.03321 5.07956C8.03154 5.39834 8.29691 5.66539 8.6157 5.66706C8.93448 5.66873 9.20152 5.40335 9.20319 5.08457C9.20319 4.76579 8.93948 4.49875 8.6207 4.49708Z" fill="#1BABA1"/>
<path d="M11.009 4.4971C10.6903 4.49376 10.4215 4.7558 10.4165 5.07458C10.4132 5.39336 10.6752 5.66207 10.994 5.66708C11.3128 5.67042 11.5815 5.40838 11.5865 5.0896C11.5899 4.77082 11.3278 4.50044 11.009 4.4971Z" fill="#1BABA1"/>
<path d="M13.3843 4.49708C13.0655 4.49875 12.8001 4.76412 12.8018 5.08457C12.8034 5.40335 13.0688 5.66873 13.3876 5.66706C13.7064 5.66539 13.9717 5.40001 13.9701 5.07956C13.9701 4.76078 13.703 4.49541 13.3843 4.49708Z" fill="#1BABA1"/>
</svg>
