<svg width="75" height="54" viewBox="0 0 75 54" fill="none" xmlns="http://www.w3.org/2000/svg">
<g opacity="0.8" clip-path="url(#clip0_56_12487)">
<path d="M1.66016 29.9805C5.48828 29.9609 9.31641 29.9805 13.1641 29.9805C13.457 29.9805 13.7305 29.9805 14.082 29.9805C14.082 30.3711 14.082 30.6445 14.082 30.9375C14.082 38.0078 14.082 45.0977 14.082 52.168C14.082 52.4023 14.0039 52.7148 14.1211 52.8906C14.3359 53.2422 14.5898 53.7109 14.9219 53.8086C15.2539 53.9062 15.7422 53.6914 16.1133 53.5156C16.3086 53.418 16.4062 53.1445 16.543 52.9297C21.4258 45.2344 26.3281 37.5391 31.1914 29.8242C31.4648 29.375 31.6406 28.7891 31.6406 28.2617C31.6406 19.4141 31.6406 10.5664 31.6406 1.69922C31.6406 0.351562 31.3086 0.0195312 29.9609 0.0195312C20.5469 0.0195312 11.1133 0.0195312 1.69922 0C0.976562 0 0.410156 0.136719 0 0.742188C0 10.2148 0 19.6875 0 29.1602C0.371094 29.8242 0.9375 29.9805 1.66016 29.9805ZM2.40234 2.40234C11.3281 2.40234 20.2734 2.40234 29.2969 2.40234C29.2969 2.67578 29.2969 2.89062 29.2969 3.10547C29.2969 11.3281 29.2969 19.5508 29.2773 27.7734C29.2773 28.1445 29.1797 28.5547 28.9844 28.8672C24.9414 35.2539 20.8789 41.6406 16.8164 48.0078C16.7188 48.1641 16.6016 48.3203 16.3867 48.6328C16.3867 48.1836 16.3867 47.9297 16.3867 47.6758C16.3867 41.543 16.3867 35.4297 16.3867 29.2969C16.3867 27.9297 16.0352 27.5781 14.6484 27.5781C10.8594 27.5781 7.08984 27.5781 3.30078 27.5781C3.00781 27.5781 2.71484 27.5781 2.38281 27.5781C2.40234 19.1797 2.40234 10.8203 2.40234 2.40234Z" fill="#A0B3BD"/>
<path d="M73.3983 0.0195312C63.9257 0.0195312 54.453 0.0195312 44.9999 0.0195312C43.7499 0.0195312 43.3788 0.371094 43.3788 1.62109C43.3788 10.5469 43.3788 19.4922 43.3788 28.418C43.3788 29.6094 43.7499 29.9805 44.9608 30C47.4218 30 49.8827 30 52.3632 30C54.0233 30 55.6835 30 57.4413 30C57.4413 30.3516 57.4413 30.625 57.4413 30.8789C57.4413 35.3711 57.4413 39.8633 57.4413 44.3555C57.4413 47.1094 57.4413 49.8633 57.4413 52.6367C57.4413 53.2422 57.6757 53.6914 58.2616 53.8867C58.8475 54.082 59.2968 53.8281 59.6483 53.3398C59.7264 53.2227 59.8046 53.1055 59.8827 52.9688C64.785 45.2539 69.6874 37.5391 74.5702 29.8047C74.8241 29.3945 74.9803 28.8672 74.9803 28.3789C74.9999 19.4336 74.9999 10.5273 74.9999 1.62109C74.9999 0.371094 74.6288 0.0195312 73.3983 0.0195312ZM72.6561 3.18359C72.6561 11.3867 72.6561 19.5898 72.6366 27.793C72.6366 28.1445 72.5585 28.5352 72.3827 28.8281C68.2811 35.293 64.1796 41.7578 60.0585 48.2227C59.9999 48.3203 59.9218 48.3984 59.746 48.6523C59.746 48.2227 59.746 47.9688 59.746 47.7148C59.746 41.5625 59.746 35.4102 59.746 29.2578C59.746 27.9688 59.3749 27.6172 58.0858 27.6172C54.2772 27.6172 50.4686 27.6172 46.66 27.6172C46.3671 27.6172 46.0741 27.6172 45.703 27.6172C45.703 19.1797 45.703 10.8398 45.703 2.44141C54.6483 2.44141 63.5936 2.44141 72.6366 2.44141C72.6561 2.65625 72.6561 2.91016 72.6561 3.18359Z" fill="#A0B3BD"/>
</g>
<defs>
<clipPath id="clip0_56_12487">
<rect width="75" height="53.9062" fill="white"/>
</clipPath>
</defs>
</svg>
