<svg width="72" height="72" viewBox="0 0 72 72" fill="none" xmlns="http://www.w3.org/2000/svg">
<path d="M67.8687 45.1698C66.291 45.1678 64.7153 45.1698 63.1059 45.1698C66.1263 35.4219 64.9098 26.3547 58.6903 18.2876C52.4649 10.2126 44.005 6.74372 33.7768 7.18626C33.7768 6.05708 33.7808 4.94575 33.7768 3.83641C33.7669 1.51056 32.2904 0.0142386 29.9784 0.0122541C21.4153 0.00828509 12.8501 0.00828509 4.28694 0.0122541C2.01666 0.0122541 0.50645 1.51254 0.504465 3.7729C0.498512 9.96061 0.498512 16.1483 0.504465 22.336C0.50645 24.648 2.00277 26.1423 4.30877 26.1522C5.94004 26.1582 7.57131 26.1542 9.23433 26.1542C6.19208 35.8724 7.39469 44.9416 13.6022 53.0186C19.8296 61.1193 28.3154 64.5863 38.5297 64.1398C38.5297 65.2471 38.5277 66.3565 38.5297 67.4658C38.5376 69.8234 40.0181 71.3098 42.3796 71.3118C50.8932 71.3158 59.4087 71.3158 67.9223 71.3118C70.3335 71.3118 71.8 69.8393 71.802 67.4202C71.806 61.3059 71.806 55.1936 71.802 49.0793C71.804 46.6185 70.3434 45.1718 67.8687 45.1698ZM4.45563 23.7768C3.2808 23.7768 2.88191 23.3858 2.88191 22.2348C2.87993 16.1225 2.87993 10.0102 2.88191 3.89793C2.88191 2.79057 3.29072 2.38771 4.41395 2.38771C12.9017 2.38573 21.3895 2.38573 29.8772 2.38771C30.9945 2.38771 31.3993 2.79255 31.4013 3.90587C31.4033 10.0182 31.4033 16.1305 31.4013 22.2428C31.4013 23.362 30.9945 23.7728 29.8911 23.7748C28.1348 23.7808 26.3765 23.7728 24.6203 23.7768C23.497 23.7788 23.0922 24.1777 23.0862 25.283C23.0803 26.3924 23.0842 27.4997 23.0842 28.7639C20.6016 27.21 18.2718 25.7196 15.9023 24.2967C15.4042 23.9971 14.7612 23.8065 14.1817 23.7986C10.939 23.753 7.69634 23.7788 4.45563 23.7768ZM10.3199 31.953C10.7108 30.1729 11.197 28.4146 11.6336 26.6444C11.7249 26.2693 11.9253 26.1701 12.3064 26.1403C13.6796 26.0312 14.9219 26.2455 16.0412 27.1485C16.7656 27.7339 17.6348 28.1387 18.4048 28.6726C18.5973 28.8055 18.7759 29.1389 18.758 29.3652C18.629 31.0381 18.4484 32.7051 18.2758 34.4475C15.557 34.4475 12.868 34.4475 10.0639 34.4475C10.1452 33.5942 10.1432 32.7547 10.3199 31.953ZM14.9854 50.9348C11.9749 46.7872 10.3238 42.1137 10.0639 36.8865C12.8362 36.8865 15.5451 36.8865 18.3373 36.8865C18.4762 40.7305 19.0279 44.4991 20.1194 48.1347C18.3671 49.0912 16.7219 49.9882 14.9854 50.9348ZM16.456 52.8201C17.9523 52.0084 19.3732 51.2404 20.7445 50.4962C21.6375 52.2446 22.3758 53.9453 23.3422 55.5071C24.3127 57.0769 25.5093 58.5057 26.6107 60.0001C22.7092 58.4621 19.3514 56.1164 16.456 52.8201ZM34.902 61.6869C33.235 61.4805 31.7645 60.8117 30.415 59.8671C27.5315 57.8528 25.6125 55.0626 24.1182 51.941C23.7709 51.2127 23.4732 50.4605 23.1259 49.6568C26.9838 48.3411 30.8615 47.6941 34.902 47.5671C34.902 52.2744 34.902 56.9578 34.902 61.6869ZM34.906 45.1817C30.6472 45.3167 26.4976 46.0112 22.4075 47.3607C21.3756 43.9275 20.8576 40.4784 20.7604 36.8805C25.5093 36.8805 30.1769 36.8805 34.906 36.8805C34.906 39.6251 34.906 42.3756 34.906 45.1817ZM34.9238 34.4237C30.2146 34.4237 25.5093 34.4237 20.6949 34.4237C20.8001 33.0405 20.8993 31.7367 21.0104 30.282C21.8221 30.7861 22.5524 31.2247 23.2648 31.6851C23.761 32.0046 24.2491 32.2745 24.8425 31.9272C25.422 31.5878 25.4676 31.0381 25.4617 30.4447C25.4478 29.0417 25.4577 27.6367 25.4577 26.1542C26.6266 26.1542 27.73 26.1701 28.8354 26.1503C30.8477 26.1145 32.8619 26.057 34.9219 26.0074C34.9238 28.9067 34.9238 31.6394 34.9238 34.4237ZM34.9298 23.7569C34.4575 23.7292 34.0705 23.7073 33.7391 23.6895C33.7391 18.9862 33.7391 14.3523 33.7391 9.67087C34.1777 9.62721 34.5309 9.59149 34.9298 9.5518C34.9298 14.2988 34.9298 18.9802 34.9298 23.7569ZM57.327 20.3892C60.3335 24.5269 61.9727 29.2044 62.2486 34.4316C59.4802 34.4316 56.7713 34.4316 53.9692 34.4316C53.8303 30.5995 53.2806 26.829 52.1871 23.1854C53.8958 22.2566 55.5588 21.3497 57.327 20.3892ZM62.2148 36.8884C62.1136 39.768 61.5143 42.4927 60.4963 45.0984C58.9424 45.3286 57.5334 45.2055 56.2732 44.1815C55.5707 43.61 54.7451 43.1813 53.9553 42.7229C53.608 42.5225 53.481 42.3022 53.5267 41.8954C53.7092 40.2502 53.8581 38.6031 54.0267 36.8865C56.7574 36.8884 59.4643 36.8884 62.2148 36.8884ZM55.8585 18.496C54.3621 19.3116 52.9472 20.0836 51.4389 20.9052C50.1113 17.2616 48.1923 14.1082 45.6124 11.3537C49.5914 12.8362 52.9412 15.2096 55.8585 18.496ZM37.4065 9.63317C39.0516 9.8336 40.5023 10.4885 41.8359 11.4093C44.7531 13.4256 46.686 16.2376 48.1903 19.3811C48.5396 20.1094 48.8353 20.8615 49.1826 21.6653C45.3247 22.977 41.4469 23.622 37.4065 23.753C37.4065 19.0477 37.4065 14.3642 37.4065 9.63317ZM37.3985 26.1443C41.6295 26.0034 45.799 25.3148 49.899 23.9594C50.9269 27.3985 51.4509 30.8476 51.5441 34.4197C46.8309 34.4197 42.1435 34.4197 37.3985 34.4197C37.3985 31.7109 37.3985 28.9802 37.3985 26.1443ZM38.5654 61.6552C38.1348 61.7008 37.7954 61.7365 37.3965 61.7762C37.3965 57.0392 37.3965 52.3418 37.3965 47.5731C37.8331 47.6008 38.234 47.6247 38.5654 47.6445C38.5654 52.3577 38.5654 56.9916 38.5654 61.6552ZM37.3846 45.1778C37.3846 42.4153 37.3846 39.6826 37.3846 36.8984C42.0919 36.8984 46.7972 36.8984 51.6156 36.8984C51.5104 38.2756 51.4131 39.5794 51.302 41.0321C50.4864 40.53 49.7561 40.0934 49.0417 39.635C48.5435 39.3155 48.0494 39.0555 47.46 39.3989C46.8805 39.7362 46.8388 40.2919 46.8448 40.8833C46.8587 42.2863 46.8488 43.6894 46.8488 45.1758C45.1322 45.1758 43.485 45.1758 41.8359 45.1758C40.3674 45.1778 38.8968 45.1778 37.3846 45.1778ZM69.4285 67.4083C69.4285 68.5255 69.0217 68.9343 67.9104 68.9343C59.4226 68.9363 50.9349 68.9363 42.4471 68.9343C41.3219 68.9343 40.9091 68.5315 40.9091 67.4301C40.9052 61.294 40.9052 55.1559 40.9091 49.0198C40.9091 47.9581 41.3279 47.5492 42.4015 47.5453C44.1836 47.5393 45.9657 47.5492 47.7458 47.5413C48.8055 47.5373 49.2183 47.1186 49.2242 46.0509C49.2302 44.9396 49.2262 43.8283 49.2262 42.5542C51.0301 43.6814 52.7765 44.6261 54.3542 45.7989C56.2137 47.1801 58.1764 47.7358 60.4903 47.581C62.9531 47.4163 65.4377 47.5413 67.9124 47.5453C69.0237 47.5473 69.4285 47.9521 69.4285 49.0714C69.4305 55.1837 69.4305 61.296 69.4285 67.4083Z" fill="#0E5952"/>
<path d="M15.9004 24.2989C18.2699 25.7218 20.5997 27.2122 23.0823 28.7661C23.0823 27.5039 23.0783 26.3946 23.0843 25.2852C23.0902 24.1799 23.4951 23.781 24.6183 23.779C26.3746 23.775 28.1329 23.781 29.8892 23.777C30.9926 23.773 31.3994 23.3622 31.3994 22.245C31.4014 16.1327 31.4014 10.0204 31.3994 3.90807C31.3994 2.79277 30.9926 2.38992 29.8753 2.38992C21.3875 2.38793 12.8998 2.38793 4.41202 2.38992C3.29077 2.38992 2.88196 2.79277 2.87998 3.90013C2.87601 10.0124 2.87799 16.1247 2.87998 22.237C2.87998 23.39 3.28085 23.779 4.45369 23.779C7.6944 23.781 10.9371 23.7552 14.1778 23.8028C14.7593 23.8088 15.4022 23.9993 15.9004 24.2989ZM12.0524 20.1572C11.3598 19.9429 11.072 19.3118 11.3201 18.4784C12.4572 14.6661 13.6102 10.8598 14.7394 7.04558C14.9617 6.29345 15.4003 5.92632 16.1861 5.95013C16.8529 5.96998 17.5217 5.96005 18.1905 5.95211C18.8434 5.94418 19.2959 6.23788 19.4824 6.85507C20.6691 10.7804 21.8479 14.7098 23.0128 18.6431C23.2212 19.3456 22.8541 19.9806 22.2071 20.1692C21.6078 20.3438 20.9748 20.0084 20.7525 19.3396C20.4627 18.4724 20.2206 17.5913 19.9428 16.6705C18.0436 16.6705 16.2159 16.6705 14.3445 16.6705C14.0905 17.5 13.8444 18.3255 13.5844 19.1471C13.3225 19.9727 12.7212 20.3636 12.0524 20.1572Z" fill="#FF7F45"/>
<path d="M67.9103 47.5474C65.4356 47.5435 62.953 47.4185 60.4882 47.5832C58.1723 47.738 56.2116 47.1823 54.3521 45.8011C52.7744 44.6302 51.028 43.6856 49.2241 42.5564C49.2241 43.8305 49.2281 44.9418 49.2221 46.0531C49.2162 47.1208 48.8034 47.5395 47.7437 47.5435C45.9616 47.5494 44.1795 47.5415 42.3994 47.5474C41.3258 47.5514 40.909 47.9602 40.907 49.0219C40.9031 55.158 40.9031 61.2961 40.907 67.4323C40.907 68.5337 41.3218 68.9365 42.445 68.9365C50.9328 68.9385 59.4205 68.9385 67.9083 68.9365C69.0196 68.9365 69.4245 68.5277 69.4264 67.4104C69.4284 61.2981 69.4284 55.1858 69.4264 49.0735C69.4264 47.9543 69.0236 47.5494 67.9103 47.5474ZM62.2008 55.8606C61.8555 55.8745 61.5082 55.8645 61.161 55.8645C60.8176 55.8645 60.4723 55.8645 60.3294 55.8645C59.2042 57.6526 58.1564 59.3176 57.0491 61.0798C57.8726 61.5799 58.7915 62.1396 59.7142 62.6952C59.9901 62.8619 60.2838 62.9988 60.5458 63.1814C61.1054 63.5724 61.2582 64.1876 60.9566 64.7393C60.639 65.3207 59.9802 65.5609 59.367 65.2096C58.1048 64.4853 56.8585 63.7252 55.644 62.9215C55.261 62.6674 55.0566 62.6853 54.6875 62.9294C53.5146 63.7053 52.312 64.4416 51.0975 65.1521C50.395 65.5628 49.7163 65.3604 49.3789 64.7293C49.0594 64.13 49.2559 63.5089 49.9306 63.1001C51.0697 62.4114 52.2207 61.7407 53.3023 61.0997C52.1949 59.3414 51.1372 57.6625 50.004 55.8645C49.6349 55.8645 49.0673 55.8665 48.4998 55.8645C47.4202 55.8625 46.8685 55.4676 46.8566 54.6937C46.8447 53.9138 47.4063 53.4911 48.466 53.4891C50.27 53.4871 52.0719 53.4891 53.9215 53.4891C54.1179 51.5562 54.3561 51.1156 55.1697 51.1176C55.9794 51.1196 56.2096 51.5442 56.42 53.4891C57.8845 53.4891 59.361 53.4891 60.8375 53.4891C61.282 53.4891 61.7285 53.4792 62.1731 53.493C62.9768 53.5169 63.4947 54.0031 63.4808 54.7016C63.467 55.3684 62.9649 55.8308 62.2008 55.8606Z" fill="#FF7F45"/>
<path d="M19.9427 16.6683C20.2186 17.5891 20.4627 18.4702 20.7524 19.3374C20.9747 20.0062 21.6077 20.3416 22.2071 20.167C22.856 19.9784 23.2211 19.3434 23.0128 18.6409C21.8479 14.7076 20.6691 10.7802 19.4823 6.85288C19.2958 6.2357 18.8433 5.94199 18.1904 5.94993C17.5216 5.95787 16.8528 5.96581 16.186 5.94795C15.3982 5.92612 14.9616 6.29127 14.7393 7.0434C13.6121 10.8576 12.4571 14.6639 11.32 18.4762C11.072 19.3116 11.3577 19.9407 12.0523 20.1551C12.7211 20.3615 13.3224 19.9725 13.5863 19.143C13.8463 18.3214 14.0924 17.4978 14.3464 16.6663C16.2158 16.6683 18.0435 16.6683 19.9427 16.6683ZM15.803 11.7725C16.1047 10.7544 16.3964 9.73439 16.7258 8.72626C16.7774 8.56552 16.9898 8.39088 17.1565 8.35714C17.2617 8.33531 17.4978 8.53575 17.5415 8.67665C18.1071 10.5123 18.6508 12.3559 19.2124 14.2412C17.8233 14.2412 16.4976 14.2412 15.0767 14.2412C15.3248 13.3998 15.5629 12.5861 15.803 11.7725Z" fill="#0E5952"/>
<path d="M62.1731 53.4909C61.7286 53.4771 61.2821 53.489 60.8375 53.487C59.361 53.487 57.8846 53.487 56.42 53.487C56.2096 51.5422 55.9794 51.1175 55.1698 51.1155C54.3561 51.1135 54.118 51.5521 53.9215 53.487C52.0719 53.487 50.27 53.485 48.4661 53.487C47.4063 53.489 46.8447 53.9097 46.8566 54.6916C46.8685 55.4655 47.4202 55.8605 48.4998 55.8624C49.0674 55.8644 49.6349 55.8624 50.0041 55.8624C51.1372 57.6604 52.195 59.3413 53.3023 61.0976C52.2208 61.7386 51.0698 62.4093 49.9306 63.098C49.2559 63.5068 49.0575 64.1279 49.3789 64.7273C49.7163 65.3583 50.395 65.5607 51.0975 65.15C52.3121 64.4415 53.5147 63.7052 54.6875 62.9273C55.0566 62.6832 55.263 62.6653 55.644 62.9194C56.8586 63.7231 58.1048 64.4812 59.367 65.2075C59.9802 65.5588 60.6391 65.3186 60.9566 64.7372C61.2582 64.1855 61.1054 63.5683 60.5458 63.1793C60.2838 62.9968 59.9901 62.8578 59.7143 62.6931C58.7915 62.1375 57.8727 61.5758 57.0491 61.0777C58.1584 59.3155 59.2043 57.6505 60.3295 55.8624C60.4724 55.8624 60.8177 55.8624 61.161 55.8624C61.5083 55.8624 61.8536 55.8724 62.2009 55.8585C62.9649 55.8287 63.467 55.3643 63.4809 54.6955C63.4948 54.001 62.9768 53.5148 62.1731 53.4909ZM55.1737 59.504C54.2986 58.2339 53.5425 57.1425 52.6951 55.9121C54.4196 55.9121 55.9219 55.9121 57.6464 55.9121C56.8109 57.1226 56.0568 58.2181 55.1737 59.504Z" fill="#0E5952"/>
<path d="M17.5395 8.67466C17.4958 8.53376 17.2597 8.33333 17.1545 8.35516C16.9878 8.39088 16.7754 8.56353 16.7238 8.72428C16.3944 9.73241 16.1027 10.7544 15.801 11.7705C15.5589 12.5842 15.3208 13.3978 15.0747 14.2373C16.4936 14.2373 17.8213 14.2373 19.2104 14.2373C18.6488 12.3539 18.107 10.5103 17.5395 8.67466Z" fill="#FF7F45"/>
<path d="M55.1738 59.5041C56.0588 58.2181 56.811 57.1227 57.6445 55.9121C55.9219 55.9121 54.4196 55.9121 52.6931 55.9121C53.5425 57.1405 54.2966 58.234 55.1738 59.5041Z" fill="#FF7F45"/>
</svg>
