<svg width="16" height="19" viewBox="0 0 16 19" fill="none" xmlns="http://www.w3.org/2000/svg">
<path d="M5.60602 10.2383L2.12683 5.88929C1.91025 5.61857 1.80196 5.4832 1.72495 5.33247C1.65663 5.19874 1.6067 5.05639 1.57651 4.90929C1.54248 4.74348 1.54248 4.57013 1.54248 4.22344V3.65885C1.54248 2.72543 1.54248 2.25872 1.72414 1.9022C1.88393 1.5886 2.13889 1.33363 2.4525 1.17384C2.80902 0.992188 3.27573 0.992188 4.20915 0.992188H12.2091C13.1426 0.992188 13.6093 0.992188 13.9658 1.17384C14.2794 1.33363 14.5344 1.5886 14.6942 1.9022C14.8758 2.25872 14.8758 2.72543 14.8758 3.65885V4.22344C14.8758 4.57013 14.8758 4.74348 14.8418 4.90929C14.8116 5.05639 14.7617 5.19874 14.6933 5.33247C14.6163 5.4832 14.508 5.61857 14.2915 5.88929L10.8123 10.2383M2.37586 1.82552L8.20919 9.32552L14.0424 1.82552M11.1554 10.5459C12.7826 12.1731 12.7826 14.8113 11.1554 16.4385C9.52825 18.0656 6.89006 18.0656 5.26287 16.4385C3.63569 14.8113 3.63569 12.1731 5.26287 10.5459C6.89005 8.91873 9.52824 8.91873 11.1554 10.5459Z" stroke="#1BABA1" stroke-width="1.66667" stroke-linecap="round" stroke-linejoin="round"/>
</svg>
