<svg width="68" height="71" viewBox="0 0 68 71" fill="none" xmlns="http://www.w3.org/2000/svg">
<path d="M41.3042 18.9979C38.6686 15.7819 35.6777 12.9547 31.9856 10.9608C29.96 9.86713 27.8322 9.08778 25.4718 9.36492C23.6025 9.5844 22.1592 10.4828 21.3054 12.2145C17.7714 19.3811 14.243 26.5514 10.6848 33.7068C10.4616 34.1551 10.0691 34.5699 9.65806 34.86C7.83897 36.1416 5.96966 37.3506 4.14314 38.6228C1.65817 40.3526 0.309683 42.7372 0.231562 45.7783C0.0995019 51.0402 4.45749 55.3461 9.71201 55.1899C11.3544 55.1415 12.8424 54.617 14.2634 53.7354C14.4383 53.9828 14.6001 54.206 14.7545 54.4329C17.8793 59.0364 20.9985 63.6436 24.1308 68.2416C25.7229 70.5796 28.3679 71.5412 30.7933 70.7005C34.4017 69.4487 35.7595 65.4125 33.6131 62.1798C31.3699 58.8002 29.0672 55.4596 26.7924 52.1004C26.1563 51.163 25.5239 50.2237 24.819 49.1802C25.0924 49.13 25.2468 49.0891 25.4012 49.0761C31.9428 48.5515 38.4826 48.0177 45.0242 47.5174C46.3913 47.4132 47.5334 46.9054 48.482 45.9438C49.4399 44.9729 49.9663 43.7713 50.2397 42.4526C50.7735 39.8653 50.4257 37.319 49.7579 34.8172C48.1769 28.8875 45.1637 23.7074 41.3042 18.9979ZM12.0296 51.8344C9.14098 53.4266 5.76692 52.2474 3.90878 49.2267C2.21989 46.4813 2.85043 42.9808 5.44514 41.0985C7.26237 39.7797 9.14471 38.5521 11.0624 37.2408C13.4525 40.76 15.8147 44.2382 18.229 47.7908C16.142 49.1672 14.1704 50.6552 12.0296 51.8344ZM31.2881 63.6027C31.9874 64.6331 32.1176 65.7119 31.4889 66.8075C30.8937 67.8472 29.9545 68.3327 28.7622 68.2546C27.7411 68.1858 27.0082 67.6352 26.4409 66.7963C23.4426 62.3621 20.4312 57.9353 17.4254 53.5066C17.1409 53.0881 16.8637 52.664 16.5624 52.2102C17.8663 51.3229 19.1199 50.4506 20.3959 49.6136C21.0041 49.2137 21.6421 49.3792 22.042 49.967C25.124 54.511 28.2042 59.0568 31.2881 63.6027ZM35.7018 45.5346C30.9402 45.9122 26.1768 46.2823 21.417 46.6711C20.9725 46.7083 20.7102 46.5929 20.4535 46.2098C18.1006 42.7074 15.7254 39.2199 13.352 35.7305C13.1493 35.431 13.0191 35.1893 13.2144 34.7931C15.5561 30.0594 17.8756 25.3145 20.2024 20.5733C20.2527 20.4729 20.3215 20.3817 20.3698 20.3055C23.0036 30.6936 28.6673 39.006 37.3684 45.3672C36.8067 45.423 36.2561 45.49 35.7018 45.5346ZM47.4664 41.3124C47.2822 42.2629 46.9214 43.1408 46.2053 43.8178C45.333 44.6418 44.3323 45.0398 43.0936 44.7608C40.7481 44.2307 38.7299 43.0534 36.9164 41.556C30.3748 36.1602 25.8215 29.4251 23.4816 21.2392C23.3235 20.6831 23.2008 20.1139 23.1152 19.5429C22.998 18.7654 22.9329 17.9786 22.8436 17.1602C22.8957 16.565 22.9069 15.9345 23.0111 15.3207C23.4389 12.7948 25.2021 11.6397 27.6983 12.2312C29.8875 12.7501 31.7586 13.8996 33.5182 15.2444C37.4224 18.2316 40.4393 21.9999 42.9987 26.1571C44.9015 29.2502 46.4862 32.4885 47.2618 36.0653C47.6375 37.7988 47.8068 39.5491 47.4664 41.3124Z" fill="#0E5952"/>
<path d="M62.7762 13.0235C63.6578 12.445 63.8885 11.6266 63.3956 10.9142C62.9157 10.2205 62.1122 10.1368 61.2529 10.6985C59.5305 11.8275 57.81 12.9602 56.0895 14.0893C54.7354 14.9784 53.3757 15.8581 52.0291 16.7584C51.4227 17.1639 51.1958 17.7832 51.4227 18.3803C51.6515 18.9811 52.1016 19.2973 52.974 19.2954C53.1246 19.2266 53.4781 19.115 53.7775 18.9197C56.7814 16.963 59.7797 14.9932 62.7762 13.0235Z" fill="#0E5952"/>
<path d="M66.1763 27.6171C64.4427 27.3139 62.7111 26.9977 60.9776 26.689C59.0171 26.3374 57.0567 25.9878 55.2134 25.6585C54.3206 25.6288 53.7235 26.1068 53.6175 26.8378C53.5115 27.5725 54.0156 28.2291 54.8842 28.3872C58.5075 29.0512 62.1308 29.7041 65.7578 30.342C66.6394 30.4964 67.3853 29.9421 67.482 29.1275C67.5713 28.3816 67.0281 27.7659 66.1763 27.6171Z" fill="#0E5952"/>
<path d="M45.6622 13.0123C46.4676 13.0905 47.0796 12.592 47.1856 11.7457C47.2693 11.0798 47.3307 10.4121 47.3995 9.74431C47.6841 6.9822 47.965 4.22009 48.2495 1.45798C48.2663 0.831162 47.9407 0.317803 47.4292 0.105762C47.3121 0.0574018 47.1837 0.0239209 47.0479 0.00904081C46.2742 -0.0727995 45.6157 0.407083 45.532 1.20131C45.1675 4.6293 44.8197 8.05915 44.4849 11.4909C44.4012 12.3186 44.9145 12.9379 45.6622 13.0123Z" fill="#0E5952"/>
<path d="M42.9987 26.1589C40.4393 22.0018 37.4242 18.2334 33.5182 15.2462C31.7605 13.9015 29.8893 12.7501 27.6982 12.233C25.2021 11.6415 23.4388 12.7985 23.011 15.3225C22.9069 15.9363 22.8957 16.5668 22.8436 17.162C22.9348 17.9804 22.9999 18.7654 23.1152 19.5447C23.2007 20.1157 23.3235 20.6849 23.4816 21.241C25.8215 29.4269 30.3729 36.162 36.9164 41.5579C38.7299 43.0533 40.7481 44.2326 43.0935 44.7627C44.3323 45.0417 45.333 44.6436 46.2053 43.8197C46.9214 43.1426 47.2822 42.2647 47.4664 41.3142C47.8068 39.5509 47.6375 37.8007 47.2599 36.069C46.4843 32.4904 44.9015 29.2521 42.9987 26.1589ZM37.454 35.9983C37.1396 36.2438 36.7397 36.4466 36.3528 36.5154C35.7428 36.6233 35.2647 36.3015 35.0174 35.7379C34.7737 35.1799 34.8667 34.6442 35.3094 34.2053C35.4731 34.0435 35.6702 33.9151 35.8469 33.7663C37.6902 32.2225 38.0715 29.5422 36.7341 27.552C35.3819 25.5395 32.7203 24.8885 30.585 26.0473C30.4622 26.1143 30.345 26.1886 30.2241 26.2556C29.4169 26.702 28.6413 26.5383 28.2283 25.8334C27.8303 25.1526 28.0721 24.3677 28.8403 23.8822C30.0437 23.1215 31.3606 22.7383 32.1902 22.7309C36.0422 22.7365 38.8713 24.7341 39.9036 27.7604C40.9247 30.7401 39.9501 34.0546 37.454 35.9983Z" fill="#FF7F45"/>
<path d="M11.0606 37.2407C9.14481 38.552 7.26061 39.7815 5.44338 41.0984C2.85054 42.9807 2.21813 46.4812 3.90702 49.2266C5.76702 52.2472 9.13922 53.4265 12.0278 51.8343C14.1687 50.6551 16.1384 49.1671 18.2254 47.7907C15.8148 44.2381 13.4507 40.758 11.0606 37.2407Z" fill="#FF7F45"/>
<path d="M20.3941 49.6115C19.1182 50.4485 17.8664 51.3208 16.5607 52.2081C16.8638 52.6638 17.141 53.086 17.4237 53.5045C20.4295 57.9332 23.4408 62.36 26.4392 66.7942C27.0065 67.6331 27.7393 68.1855 28.7605 68.2525C29.9546 68.3325 30.892 67.8451 31.4872 66.8054C32.1159 65.7099 31.9857 64.631 31.2863 63.6006C28.2024 59.0547 25.1223 54.5089 22.0384 49.9649C21.6404 49.3771 21.0042 49.2116 20.3941 49.6115Z" fill="#FF7F45"/>
<path d="M32.1921 22.7312C31.3626 22.7368 30.0475 23.1199 28.8422 23.8825C28.0741 24.368 27.8323 25.1529 28.2303 25.8337C28.6414 26.5386 29.4188 26.7023 30.2261 26.2559C30.347 26.1889 30.4641 26.1127 30.5869 26.0476C32.7203 24.8888 35.3839 25.5398 36.7361 27.5523C38.0734 29.5425 37.6903 32.2228 35.8489 33.7666C35.6722 33.9154 35.475 34.0438 35.3113 34.2056C34.8687 34.6464 34.7757 35.1821 35.0193 35.7382C35.2667 36.3018 35.7428 36.6236 36.3548 36.5157C36.7417 36.4469 37.1416 36.2441 37.4559 35.9986C39.9521 34.0549 40.9267 30.7404 39.9074 27.7588C38.8733 24.7344 36.0442 22.7349 32.1921 22.7312Z" fill="#0E5952"/>
</svg>
