<svg width="57" height="71" viewBox="0 0 57 71" fill="none" xmlns="http://www.w3.org/2000/svg">
<path d="M16.9036 2.36384C15.5012 2.61296 15.2466 2.90083 15.2466 4.31433C15.2466 14.1904 15.2466 24.0647 15.2466 33.9408C15.2466 34.2065 15.2466 34.4704 15.2466 34.845C14.9938 34.6586 14.8498 34.559 14.7114 34.4501C12.593 32.7709 10.2015 32.1324 7.53132 32.5826C2.62095 33.4112 -0.639709 38.244 0.362294 43.1969C1.34584 48.0556 6.31711 51.2221 11.1223 50.0503C15.2207 49.052 17.9979 45.5219 18.0053 41.2445C18.0182 33.8319 18.009 26.4193 18.009 19.0085C18.009 18.7391 18.009 18.4697 18.009 18.2187C18.1455 18.1634 18.2064 18.1283 18.2692 18.1154C22.1609 17.4142 26.0508 16.713 29.9426 16.0173C31.2546 15.7829 31.5702 15.4176 31.572 14.0852C31.572 10.0108 31.5554 5.93637 31.5868 1.86192C31.5923 1.01677 31.3746 0.380134 30.5922 0C30.2692 0 29.9481 0 29.6252 0C29.5256 0.0461327 29.4296 0.114415 29.3263 0.132868C25.1854 0.880219 21.0445 1.62572 16.9036 2.36384ZM9.04632 47.5223C5.66202 47.502 2.94388 44.7432 2.95311 41.3386C2.96233 37.9396 5.70262 35.2067 9.09799 35.2104C12.4768 35.214 15.2373 37.9746 15.2429 41.3552C15.2484 44.758 12.4509 47.5407 9.04632 47.5223ZM28.7579 13.4154C25.2352 14.052 21.6775 14.6942 18.0367 15.3511C18.0367 11.869 18.0367 8.47182 18.0367 4.98418C21.5834 4.34201 25.143 3.698 28.7579 3.04476C28.7579 6.4918 28.7579 9.90009 28.7579 13.4154Z" fill="#0E5952"/>
<path d="M56.0187 19.5288C56.015 18.4105 55.3138 17.8422 54.2213 18.0378C51.6637 18.4973 49.108 18.9586 46.5504 19.4199C40.3502 20.5382 34.1518 21.6657 27.9515 22.7728C26.3609 23.057 26.1081 23.3172 26.1081 24.9374C26.1081 34.7434 26.1081 44.5512 26.1081 54.3572C26.1081 54.6247 26.1081 54.8923 26.1081 55.1599C25.9973 55.1599 25.9715 55.1673 25.9567 55.158C25.8626 55.0953 25.7667 55.0326 25.6781 54.9606C23.5006 53.1725 21.0076 52.4731 18.2581 53.047C14.704 53.787 12.3291 55.9626 11.3862 59.465C10.4266 63.0264 11.3972 66.1579 14.1984 68.5587C16.9572 70.9244 20.168 71.4263 23.4859 69.9537C27.099 68.3502 28.8576 65.405 28.8649 61.4542C28.8797 54.0877 28.876 46.7213 28.8576 39.3548C28.8557 38.792 28.9904 38.5816 29.5828 38.4764C36.0561 37.3231 42.5221 36.1292 48.9899 34.95C50.385 34.6954 51.7818 34.4481 53.2138 34.1916C53.2138 39.5928 53.2138 44.9147 53.2138 50.3362C53.0201 50.1905 52.8964 50.1037 52.7783 50.0078C49.4826 47.3228 44.9948 47.2712 41.6197 49.8786C38.4034 52.3642 37.3109 56.8336 39.0049 60.5703C40.7155 64.3477 44.814 66.4643 48.833 65.6468C53.0736 64.7832 56.0095 61.2051 56.0168 56.8207C56.0316 48.072 56.0205 39.3253 56.0224 30.5767C56.0224 26.8953 56.0279 23.212 56.0187 19.5288ZM20.0425 67.9553C16.6287 67.994 13.846 65.2519 13.8183 61.8251C13.7925 58.4298 16.5143 55.6637 19.906 55.6415C23.3309 55.6175 26.1007 58.3689 26.0988 61.7919C26.0988 65.1522 23.3807 67.9184 20.0425 67.9553ZM28.9111 35.8026C28.8963 35.5147 28.8723 35.2933 28.8723 35.07C28.8705 32.0547 28.8797 29.0395 28.8613 26.0224C28.8576 25.5685 28.9904 25.3747 29.4444 25.2935C37.2519 23.9003 45.0575 22.4942 52.865 21.0918C52.9721 21.0715 53.0828 21.0622 53.2286 21.0438C53.2286 24.4779 53.2286 27.8788 53.2286 31.3683C45.1498 32.8427 37.0655 34.3153 28.9111 35.8026ZM47.1538 63.056C43.7695 63.0873 40.9536 60.2732 40.9665 56.8742C40.9794 53.5009 43.7584 50.7201 47.1188 50.7201C50.4883 50.7182 53.247 53.4862 53.2563 56.8742C53.2655 60.2751 50.551 63.0246 47.1538 63.056Z" fill="#0E5952"/>
<path d="M9.09803 35.2102C5.70266 35.2065 2.96237 37.9394 2.95315 41.3385C2.94392 44.7431 5.66206 47.5018 9.04636 47.5221C12.4528 47.5424 15.2484 44.7597 15.2429 41.3569C15.2374 37.9763 12.4749 35.2139 9.09803 35.2102Z" fill="#FF7F45"/>
<path d="M18.0366 15.353C21.6774 14.6961 25.2352 14.0539 28.7579 13.4173C28.7579 9.90196 28.7579 6.49367 28.7579 3.04663C25.1429 3.70172 21.5833 4.34573 18.0366 4.98605C18.0366 8.47184 18.0366 11.8691 18.0366 15.353Z" fill="#FF7F45"/>
</svg>
