<svg width="364" height="271" viewBox="0 0 364 271" fill="none" xmlns="http://www.w3.org/2000/svg">
<g clip-path="url(#clip0_296_3244)">
<path d="M89.9572 152.964C94.9585 152.964 99.013 148.911 99.013 143.91C99.013 138.909 94.9585 134.855 89.9572 134.855C84.9558 134.855 80.9014 138.909 80.9014 143.91C80.9014 148.911 84.9558 152.964 89.9572 152.964Z" fill="#A0B3BD"/>
<path d="M11.2705 187.432L69.0302 131.586" stroke="#1C1E1D" stroke-width="1.8087" stroke-miterlimit="10" stroke-linecap="round" stroke-linejoin="round"/>
<path d="M5.57947 187.432L63.1331 131.586L74.4293 130.745" stroke="#1C1E1D" stroke-width="1.8087" stroke-miterlimit="10" stroke-linecap="round" stroke-linejoin="round"/>
<path d="M7.26184 187.432L29.5966 262.648" stroke="#1C1E1D" stroke-width="1.8087" stroke-miterlimit="10" stroke-linecap="round" stroke-linejoin="round"/>
<path d="M11.837 187.432L34.1804 262.648" stroke="#1C1E1D" stroke-width="1.8087" stroke-miterlimit="10" stroke-linecap="round" stroke-linejoin="round"/>
<path d="M88.9872 131.474L78.5752 137.482L69.5623 121.871C67.9056 118.995 68.8842 115.322 71.7597 113.657C74.6353 112.001 78.3091 112.979 79.9743 115.854L88.9872 131.474Z" fill="#0E5952"/>
<path d="M10.7468 270.339C10.7468 270.339 16.6181 261.182 32.3606 261.182C48.1031 261.182 53.5022 270.339 53.5022 270.339H10.7468Z" fill="#1BABA1"/>
<path d="M15.279 183.424H6.90137V191.32H14.3263C14.6353 191.397 14.9443 191.448 15.279 191.448C17.4936 191.448 19.2876 189.655 19.2876 187.44C19.2876 185.218 17.4936 183.424 15.279 183.424Z" fill="#0E5952"/>
<path d="M11.2705 187.432C11.2705 189.646 9.47647 191.44 7.26188 191.44C5.04729 191.44 3.2533 189.646 3.2533 187.432C3.2533 185.218 5.04729 183.424 7.26188 183.424C9.47647 183.424 11.2705 185.218 11.2705 187.432Z" fill="#1BABA1"/>
<path d="M89.4164 124.583C78.4894 124.583 69.6224 133.44 69.6224 144.374C69.6224 147.764 70.4808 150.948 71.9744 153.738L106.85 135.011C103.511 128.806 96.9615 124.583 89.4164 124.583Z" fill="#1BABA1"/>
<path opacity="0.47" d="M71.9744 153.738L69.0302 270.193L275.674 269.575L106.85 135.011L71.9744 153.738Z" fill="#D9E3E9"/>
<path d="M120.455 221.222L153.665 185.476C160.361 178.429 169.94 174.404 179.991 174.404H190.841C200.197 174.404 209.176 177.897 215.794 184.111L251.039 221.222H120.455Z" fill="#1BABA1"/>
<path d="M125.107 216.167L94.043 249.861C90.2404 254.324 90.6439 260.993 94.9615 264.958C98.249 267.979 103.047 268.691 107.064 266.752C121.708 259.688 155.339 243.304 154.67 242.189C154.163 241.348 148.919 228.302 142.824 217.789C139.064 211.266 129.992 210.451 125.107 216.167Z" fill="#1BABA1"/>
<path d="M102.79 270.228C111.01 270.228 117.674 263.565 117.674 255.346C117.674 247.127 111.01 240.464 102.79 240.464C94.5695 240.464 87.9056 247.127 87.9056 255.346C87.9056 263.565 94.5695 270.228 102.79 270.228Z" fill="#09988B"/>
<path d="M184.97 185.605C178.438 185.605 173.142 181.854 173.142 175.323V150.726H196.798V175.323C196.798 181.863 191.502 185.605 184.97 185.605Z" fill="#E9A496"/>
<path d="M172.489 157.076C172.489 157.076 175.15 166.38 184.979 166.38C195.339 166.38 197.468 157.368 197.468 157.368L172.489 157.076Z" fill="#C6847D"/>
<path d="M164.884 137.483C168.577 137.483 171.571 134.489 171.571 130.797C171.571 127.105 168.577 124.111 164.884 124.111C161.191 124.111 158.198 127.105 158.198 130.797C158.198 134.489 161.191 137.483 164.884 137.483Z" fill="#DB9589"/>
<path d="M205.485 137.483C209.178 137.483 212.172 134.489 212.172 130.797C212.172 127.105 209.178 124.111 205.485 124.111C201.792 124.111 198.798 127.105 198.798 130.797C198.798 134.489 201.792 137.483 205.485 137.483Z" fill="#DB9589"/>
<path d="M185.185 162.535C173.974 162.535 164.884 153.446 164.884 142.238V108.465C164.884 97.2568 173.974 88.168 185.185 88.168C196.395 88.168 205.485 97.2568 205.485 108.465V142.238C205.485 153.446 196.395 162.535 185.185 162.535Z" fill="#E9A496"/>
<path d="M199.425 112.422H189.425C188.798 112.422 188.292 111.916 188.292 111.289C188.292 110.663 188.798 110.156 189.425 110.156H199.425C200.052 110.156 200.558 110.663 200.558 111.289C200.558 111.916 200.052 112.422 199.425 112.422Z" fill="#1B2729"/>
<path d="M180.936 112.422H170.936C170.309 112.422 169.803 111.916 169.803 111.289C169.803 110.663 170.309 110.156 170.936 110.156H180.936C181.562 110.156 182.069 110.663 182.069 111.289C182.069 111.916 181.562 112.422 180.936 112.422Z" fill="#1B2729"/>
<path d="M194.558 118.465C194.558 119.409 193.794 120.181 192.841 120.181C191.897 120.181 191.125 119.417 191.125 118.465C191.125 117.52 191.888 116.748 192.841 116.748C193.794 116.748 194.558 117.52 194.558 118.465Z" fill="#1E1312"/>
<path d="M178.575 118.465C178.575 119.409 177.811 120.181 176.858 120.181C175.914 120.181 175.142 119.417 175.142 118.465C175.142 117.52 175.906 116.748 176.858 116.748C177.803 116.748 178.575 117.52 178.575 118.465Z" fill="#1E1312"/>
<path d="M184.06 136.556C184.034 136.556 184 136.556 183.974 136.556C183.777 136.556 183.631 136.496 183.519 136.385C183.305 136.162 182.944 135.26 183.365 118.482C183.373 118.173 183.648 117.924 183.94 117.924C184.249 117.932 184.498 118.19 184.498 118.499C184.361 127.528 184.232 132.814 184.403 135.406C186.137 135.2 187.133 133.415 187.236 130.308C187.245 129.999 187.537 129.759 187.82 129.759C188.129 129.768 188.378 130.034 188.369 130.343C188.189 135.904 185.365 136.556 184.06 136.556ZM183.931 135.423C183.931 135.423 183.94 135.423 183.949 135.423C183.949 135.423 183.94 135.423 183.931 135.423Z" fill="#B3726F"/>
<mask id="mask0_296_3244" style="mask-type:luminance" maskUnits="userSpaceOnUse" x="164" y="88" width="42" height="75">
<path d="M185.185 162.535C173.974 162.535 164.884 153.446 164.884 142.238V108.465C164.884 97.2568 173.974 88.168 185.185 88.168C196.395 88.168 205.485 97.2568 205.485 108.465V142.238C205.485 153.446 196.395 162.535 185.185 162.535Z" fill="white"/>
</mask>
<g mask="url(#mask0_296_3244)">
<path d="M184.944 102.604C193.354 102.604 200.172 95.7873 200.172 87.3786C200.172 78.9699 193.354 72.1533 184.944 72.1533C176.534 72.1533 169.717 78.9699 169.717 87.3786C169.717 95.7873 176.534 102.604 184.944 102.604Z" fill="#1B2729"/>
</g>
<mask id="mask1_296_3244" style="mask-type:luminance" maskUnits="userSpaceOnUse" x="164" y="88" width="42" height="75">
<path d="M185.185 162.535C173.974 162.535 164.884 153.446 164.884 142.238V108.465C164.884 97.2568 173.974 88.168 185.185 88.168C196.395 88.168 205.485 97.2568 205.485 108.465V142.238C205.485 153.446 196.395 162.535 185.185 162.535Z" fill="white"/>
</mask>
<g mask="url(#mask1_296_3244)">
<path d="M165.717 125.647C166.438 125.647 167.022 125.064 167.022 124.343L166.996 109.864C166.996 107.83 167.27 105.787 167.94 103.865C170.086 97.6598 174.326 95.8746 178.232 96.0634L172.403 90.3818H164.91V125.639H165.717V125.647Z" fill="#1B2729"/>
</g>
<mask id="mask2_296_3244" style="mask-type:luminance" maskUnits="userSpaceOnUse" x="164" y="88" width="42" height="75">
<path d="M185.185 162.535C173.974 162.535 164.884 153.446 164.884 142.238V108.465C164.884 97.2568 173.974 88.168 185.185 88.168C196.395 88.168 205.485 97.2568 205.485 108.465V142.238C205.485 153.446 196.395 162.535 185.185 162.535Z" fill="white"/>
</mask>
<g mask="url(#mask2_296_3244)">
<path d="M204.652 125.647C203.931 125.647 203.348 125.064 203.348 124.343L203.373 109.864C203.373 107.83 203.099 105.787 202.429 103.865C200.283 97.6598 196.043 95.8746 192.137 96.0634L197.966 90.3818H205.459V125.639H204.652V125.647Z" fill="#1B2729"/>
</g>
<path d="M175.579 139.783H194.369C194.369 139.783 192.713 146.194 184.97 146.194C177.236 146.194 175.579 139.783 175.579 139.783Z" fill="#F7F7F7"/>
<path d="M174.601 243.417L109.125 264.77C103.125 266.727 96.6782 263.448 94.7211 257.458C92.764 251.458 96.043 245.013 102.034 243.056L167.511 221.703C173.511 219.746 179.957 223.025 181.914 229.015C183.88 235.014 180.601 241.46 174.601 243.417Z" fill="#E9A496"/>
<path d="M246.369 216.167L277.434 249.861C281.236 254.324 280.833 260.993 276.515 264.958C273.228 267.979 268.429 268.691 264.412 266.752C249.768 259.688 216.137 243.304 216.807 242.189C217.313 241.348 222.558 228.302 228.652 217.789C232.421 211.266 241.494 210.451 246.369 216.167Z" fill="#1BABA1"/>
<path d="M268.687 270.228C276.907 270.228 283.571 263.565 283.571 255.346C283.571 247.127 276.907 240.464 268.687 240.464C260.466 240.464 253.803 247.127 253.803 255.346C253.803 263.565 260.466 270.228 268.687 270.228Z" fill="#09988B"/>
<path d="M196.876 243.417L262.352 264.77C268.352 266.727 274.798 263.448 276.755 257.458C278.712 251.458 275.433 245.013 269.442 243.056L203.966 221.703C197.966 219.746 191.519 223.025 189.562 229.015C187.605 235.014 190.876 241.46 196.876 243.417Z" fill="#E9A496"/>
<path d="M258.884 270.228H111.288C108.584 270.228 106.395 268.04 106.395 265.336C106.395 262.633 108.584 260.444 111.288 260.444H258.884C261.588 260.444 263.777 262.633 263.777 265.336C263.777 268.04 261.588 270.228 258.884 270.228Z" fill="#AAA7AC"/>
<path d="M241.296 270.228H129.536C124.893 270.228 121.133 266.469 121.133 261.826V199.14C121.133 194.496 124.893 190.737 129.536 190.737H241.296C245.94 190.737 249.7 194.496 249.7 199.14V261.826C249.7 266.469 245.94 270.228 241.296 270.228Z" fill="#C1BFC3"/>
<path d="M185.331 240.516C180.223 240.516 176.06 236.362 176.06 231.247C176.06 226.131 180.215 221.978 185.331 221.978C190.438 221.978 194.601 226.131 194.601 231.247C194.601 236.362 190.438 240.516 185.331 240.516Z" fill="#F7F7F7"/>
<path d="M117.468 55.4126C130.145 42.7368 130.145 22.1851 117.468 9.50926C104.79 -3.1666 84.2354 -3.16661 71.5577 9.50926C58.8801 22.1851 58.8801 42.7368 71.5577 55.4126C84.2354 68.0885 104.79 68.0885 117.468 55.4126Z" fill="#D9E3E9"/>
<path d="M94.5151 11.1738V32.4583L81.6653 41.8218" stroke="#1C1E1D" stroke-width="2.0629" stroke-miterlimit="10" stroke-linecap="round" stroke-linejoin="round"/>
<path d="M301.828 264.006C299.966 264.006 297.889 263.706 296.24 262.676C294.713 261.723 293.751 260.299 293.391 258.453C292.893 255.93 293.331 253.939 294.687 252.54C297.159 249.982 301.597 250.617 302.095 250.695L301.665 253.372C300.695 253.218 297.897 253.115 296.627 254.428C295.931 255.158 295.734 256.333 296.052 257.938C296.266 259.037 296.798 259.835 297.683 260.384C300.086 261.886 304.481 261.191 305.974 260.796L307.382 263.414C307.219 263.448 304.361 264.006 301.828 264.006Z" fill="#A0B3BD"/>
<path d="M322.155 269.576C333.477 269.576 342.747 260.796 343.537 249.682C343.597 248.849 342.953 248.137 342.12 248.137H302.189C301.356 248.137 300.713 248.849 300.773 249.682C301.562 260.804 310.833 269.576 322.155 269.576Z" fill="#A0B3BD"/>
<path d="M313.94 239.743C313.94 239.743 304.481 230.002 313.94 220.501C324.876 209.524 327.365 201.259 318.241 186.875" stroke="#A0B3BD" stroke-width="2.1024" stroke-miterlimit="10" stroke-linecap="round" stroke-linejoin="round"/>
<path d="M327.974 239.743C327.974 239.743 318.189 229.659 327.974 220.501C343.537 205.937 339.125 188.823 328.069 175.314" stroke="#A0B3BD" stroke-width="2.1024" stroke-miterlimit="10" stroke-linecap="round" stroke-linejoin="round"/>
<path d="M276.747 88.1931H266.3C265.622 88.1931 265.073 87.6439 265.073 86.9658V33.3855C265.073 32.7075 265.622 32.1582 266.3 32.1582H276.747C277.425 32.1582 277.974 32.7075 277.974 33.3855V86.9658C277.974 87.6439 277.425 88.1931 276.747 88.1931Z" fill="#FF7F45"/>
<path d="M263.846 88.1929H253.399C252.721 88.1929 252.172 87.6436 252.172 86.9656V44.6541C252.172 43.976 252.721 43.4268 253.399 43.4268H263.846C264.524 43.4268 265.073 43.976 265.073 44.6541V86.9656C265.073 87.6436 264.524 88.1929 263.846 88.1929Z" fill="#1BABA1"/>
<path d="M291.451 58.541C288.498 58.541 286.112 60.9355 286.112 63.8793C286.112 66.8317 288.507 69.2176 291.451 69.2176H343.545V66.6944H292.326C290.773 66.6944 289.511 65.4327 289.511 63.8793C289.511 62.3259 290.773 61.0643 292.326 61.0643H343.545V58.541H291.451Z" fill="#1BABA1"/>
<path d="M289.511 63.8795C289.511 65.4329 290.773 66.6945 292.326 66.6945H341.142V61.0645H292.326C290.773 61.0645 289.511 62.3261 289.511 63.8795Z" fill="#EFF4F6"/>
<path d="M292.215 69.2695C287.228 69.2695 283.176 73.3119 283.176 78.3069C283.176 83.3019 287.219 87.3442 292.215 87.3442H338.283V84.0142H292.79C289.657 84.0142 287.107 81.4738 287.107 78.3326C287.107 75.2 289.648 72.651 292.79 72.651H338.292V69.2695H292.215Z" fill="#FF7F45"/>
<path d="M287.107 78.3244C287.107 81.457 289.648 84.006 292.79 84.006H335.992V72.6514H292.79C289.648 72.6514 287.107 75.1918 287.107 78.3244Z" fill="#EFF4F6"/>
<path d="M231.914 88.1846H354.798" stroke="#1C1E1D" stroke-width="1.8087" stroke-miterlimit="10" stroke-linecap="round" stroke-linejoin="round"/>
<path d="M265.751 88.1846V98.3462" stroke="#1C1E1D" stroke-width="1.8087" stroke-miterlimit="10" stroke-linecap="round" stroke-linejoin="round"/>
<path d="M315.914 88.1846V98.3462" stroke="#1C1E1D" stroke-width="1.8087" stroke-miterlimit="10" stroke-linecap="round" stroke-linejoin="round"/>
<path d="M271.519 40.6377V80.3316" stroke="#EFF4F6" stroke-width="1.9376" stroke-miterlimit="10" stroke-linecap="round" stroke-linejoin="round"/>
<path d="M258.618 52.1807V80.3312" stroke="#EFF4F6" stroke-width="1.9376" stroke-miterlimit="10" stroke-linecap="round" stroke-linejoin="round"/>
<path d="M0.772583 270.228H363.236" stroke="#1C1E1D" stroke-width="1.7923" stroke-miterlimit="10" stroke-linecap="round" stroke-linejoin="round"/>
</g>
<defs>
<clipPath id="clip0_296_3244">
<rect width="364" height="271" fill="white"/>
</clipPath>
</defs>
</svg>
