<svg width="67" height="71" viewBox="0 0 67 71" fill="none" xmlns="http://www.w3.org/2000/svg">
<path d="M61.9807 12.1553C59.9938 12.9045 58.0203 13.69 56.0583 14.4986C55.5084 14.7247 55.1291 14.694 54.6558 14.2859C53.7726 13.5214 52.8165 12.8412 51.8738 12.1476C49.9137 10.7068 47.7774 10.4481 45.5797 11.4483C43.2365 12.5155 40.9526 13.7111 38.6514 14.8645C38.4234 14.9795 38.2127 15.1673 38.0479 15.3646C35.8407 18.0029 33.6315 20.6394 31.4588 23.3045C31.1733 23.6532 30.9913 24.1533 30.9338 24.6074C30.7441 26.0751 31.3036 27.2438 32.5873 27.9911C33.848 28.7249 35.0934 28.5256 36.1951 27.65C36.8255 27.1499 37.362 26.5253 37.9023 25.9218C38.8986 24.8067 39.8681 23.6647 40.9832 22.3772C40.8625 23.5249 40.7035 24.4599 40.6786 25.3968C40.6038 28.2631 40.6192 31.1333 40.5157 33.9977C40.4851 34.8331 40.282 35.703 39.9639 36.479C38.7511 39.4373 37.4674 42.3669 36.1932 45.3022C35.8253 46.149 35.7027 46.9997 36.0112 47.8792C36.5055 49.2817 37.5191 50.0539 38.981 50.2206C40.2877 50.3681 41.6155 49.6208 42.2574 48.341C43.9913 44.8845 45.7043 41.4184 47.4114 37.9485C47.5666 37.6343 47.6663 37.2741 47.7084 36.9254C47.808 36.0824 47.8579 35.2355 47.9268 34.3867C48.1127 34.3771 48.2315 34.3599 48.3503 34.3656C49.9482 34.448 51.5462 34.5534 53.146 34.607C53.6059 34.6224 53.8128 34.7967 53.9622 35.2144C54.3876 36.4042 54.8225 37.5941 55.3149 38.759C56.0219 40.4279 57.8498 41.2172 59.5359 40.6367C61.176 40.0715 62.2049 38.2858 61.6952 36.6169C61.1396 34.7929 60.4786 32.9995 59.7831 31.2234C58.9918 29.1962 57.5643 28.0179 55.2747 27.9891C54.0465 27.9738 52.8203 27.7765 51.4446 27.6462C51.6554 25.46 51.8623 23.3294 52.0788 21.08C53.7572 22.0687 54.5888 22.3005 55.6387 21.9001C58.6699 20.7467 61.6972 19.5779 64.6957 18.3382C66.1097 17.7539 66.8474 16.1712 66.5638 14.7323C66.1365 12.5711 64.0462 11.3774 61.9807 12.1553ZM64.4792 15.4202C64.4102 15.8206 64.0538 16.3456 63.6974 16.4931C60.856 17.6715 57.9897 18.7962 55.1061 19.8691C54.7382 20.0052 54.1845 19.8251 53.786 19.6392C53.3874 19.4553 53.077 19.0816 52.7264 18.7923C51.64 17.8918 50.8871 18.0604 50.5575 19.4514C50.1302 21.2563 49.8677 23.1014 49.5784 24.937C49.4941 25.4734 49.565 26.0329 49.565 26.5828C49.5267 26.5828 49.4884 26.5828 49.45 26.5828C49.45 27.2036 49.4424 27.8263 49.452 28.4471C49.4654 29.338 49.8237 29.681 50.7127 29.748C52.4026 29.8764 54.0887 30.0546 55.7805 30.1542C56.568 30.2002 57.0892 30.5624 57.4321 31.2195C57.7521 31.8327 58.074 32.4496 58.3135 33.0953C58.7848 34.3714 59.2102 35.6628 59.6317 36.9561C59.8789 37.7167 59.5589 38.395 58.8749 38.6536C58.187 38.9142 57.4858 38.6172 57.185 37.87C56.6331 36.4981 56.0986 35.1167 55.6081 33.7218C55.3513 32.9938 54.9183 32.6412 54.1404 32.6125C51.8968 32.5262 49.657 32.3921 47.4133 32.3021C46.3787 32.2599 46.0856 32.486 45.915 33.513C45.7982 34.2162 45.8537 34.95 45.7311 35.6512C45.6027 36.3889 45.4571 37.1572 45.1371 37.824C43.6407 40.9452 42.1003 44.0434 40.5272 47.1262C40.3222 47.5266 39.8854 47.9616 39.4773 48.0612C39.1113 48.1513 38.5537 47.9003 38.2299 47.6263C37.7912 47.2527 37.8563 46.6855 38.0824 46.1644C39.0653 43.8843 40.0425 41.6043 41.0235 39.3242C41.1078 39.1269 41.1729 38.918 41.2783 38.7341C42.4834 36.6265 42.6808 34.3273 42.6942 31.9553C42.7095 29.1388 42.8188 26.3222 42.9854 23.5114C43.0583 22.2795 43.4223 21.0666 43.5622 19.8346C43.6062 19.4438 43.4606 18.9264 43.2096 18.6352C42.8571 18.229 42.3206 18.3517 41.9067 18.6678C41.3607 19.0855 40.7782 19.484 40.3241 19.9898C38.8239 21.6606 37.3792 23.3831 35.8962 25.0692C35.5533 25.46 35.1662 25.8298 34.7428 26.1306C34.2542 26.4755 33.7311 26.4084 33.323 25.9544C32.9417 25.5328 32.7866 25.0462 33.1276 24.5174C33.2962 24.2568 33.4687 23.9962 33.6679 23.7586C35.4536 21.6069 37.2298 19.4476 39.048 17.3247C39.4083 16.9051 39.9007 16.5563 40.395 16.2996C42.2804 15.3244 44.1849 14.3874 46.0951 13.4601C47.8099 12.6285 49.4271 12.8259 50.9254 14.0023C52.0137 14.8588 53.1173 15.698 54.1826 16.5832C54.6865 17.0028 55.1693 17.0698 55.7652 16.8323C58.0242 15.9279 60.2889 15.037 62.5574 14.1556C63.6457 13.7322 64.6612 14.3721 64.4792 15.4202Z" fill="#0E5952"/>
<path d="M31.1675 34.0704C27.278 34.6874 23.3904 35.3024 19.5105 35.9711C19.1101 36.0401 18.5717 36.3964 18.4605 36.7375C18.3513 37.0728 18.6081 37.6438 18.8801 37.9618C19.5891 38.7914 20.3957 39.5387 21.1812 40.3377C21.0874 40.489 21.005 40.6327 20.9092 40.7668C20.6084 41.196 20.3152 41.6348 19.9953 42.0506C17.4795 45.3135 14.3392 47.8848 10.8348 49.979C7.60252 51.9122 4.25143 53.6462 0.94441 55.453C0.373441 55.7653 0.0189895 56.1696 0.235498 56.8306C0.440511 57.4572 0.953988 57.5913 1.56519 57.507C4.21311 57.141 6.87829 56.8823 9.50513 56.4053C15.0117 55.4032 19.9876 53.2151 24.174 49.4118C25.2508 48.4328 26.2951 47.4192 27.4408 46.3424C27.8681 46.7984 28.3893 47.356 28.9143 47.9097C29.2879 48.3025 29.6787 48.6474 30.288 48.427C30.8916 48.2086 30.9682 47.6779 31.0429 47.1529C31.589 43.2998 32.1312 39.4448 32.6773 35.5917C32.8516 34.3521 32.3995 33.875 31.1675 34.0704ZM29.2266 45.1219C29.1461 45.1813 29.0675 45.2388 28.9871 45.2982C28.6939 44.9322 28.4295 44.5395 28.1019 44.208C27.3757 43.4742 26.9005 43.5393 26.1801 44.2731C24.6071 45.8692 23.0992 47.5514 21.3805 48.975C17.7669 51.9659 13.477 53.5293 8.91882 54.4203C8.38042 54.5257 7.8382 54.6119 7.29789 54.7039C7.26532 54.7096 7.22701 54.6732 7.11779 54.6234C7.81522 54.2249 8.47432 53.8532 9.12768 53.4757C13.134 51.1612 16.9795 48.6205 20.0834 45.1372C21.2521 43.8248 22.2389 42.3437 23.2582 40.9067C23.7602 40.1997 23.6778 39.8242 23.0475 39.2072C22.5914 38.7589 22.1029 38.345 21.6277 37.9139C21.6603 37.8449 21.6928 37.776 21.7235 37.707C24.6032 37.2414 27.483 36.7758 30.4835 36.2911C30.0581 39.2953 29.6423 42.2077 29.2266 45.1219Z" fill="#0E5952"/>
<path d="M62.5746 42.1828C59.1833 42.179 55.7919 42.179 52.3987 42.1828C51.228 42.1847 50.9425 42.4625 50.9406 43.6102C50.9368 52.1652 50.9368 60.7182 50.9406 69.2732C50.9406 70.394 51.2319 70.6853 52.3374 70.6853C55.7536 70.6891 59.1679 70.6891 62.5842 70.6853C63.7549 70.6834 64.048 70.3806 64.048 69.1889C64.0499 64.9354 64.048 60.6818 64.048 56.4283C64.048 52.1748 64.048 47.9212 64.048 43.6677C64.048 42.4913 63.7491 42.1847 62.5746 42.1828ZM61.9347 68.5815C58.9783 68.5815 56.0487 68.5815 53.0635 68.5815C53.0635 60.5075 53.0635 52.4219 53.0635 44.2866C56.041 44.2866 58.9687 44.2866 61.9347 44.2866C61.9347 52.397 61.9347 60.4672 61.9347 68.5815Z" fill="#0E5952"/>
<path d="M47.1106 52.8493C47.1086 51.7342 46.7772 51.4104 45.6506 51.4104C42.2075 51.4085 38.7664 51.4066 35.3233 51.4104C34.3366 51.4123 33.984 51.7534 33.9821 52.7516C33.9763 58.2755 33.9763 63.7993 33.9821 69.3231C33.984 70.3616 34.3193 70.6854 35.3693 70.6873C38.8104 70.6912 42.2535 70.6912 45.6965 70.6873C46.7791 70.6854 47.1106 70.354 47.1106 69.2772C47.1144 66.5277 47.1125 63.7763 47.1125 61.0269C47.1106 58.3004 47.1144 55.5739 47.1106 52.8493ZM44.9608 68.6008C41.9853 68.6008 39.0787 68.6008 36.1223 68.6008C36.1223 63.5713 36.1223 58.5686 36.1223 53.5161C39.0557 53.5161 41.9814 53.5161 44.9608 53.5161C44.9608 58.538 44.9608 63.5406 44.9608 68.6008Z" fill="#0E5952"/>
<path d="M28.7399 56.3901C25.3007 56.3862 21.8634 56.3862 18.4241 56.3901C17.3569 56.392 17.0331 56.7292 17.0312 57.8232C17.0274 61.6457 17.0274 65.4681 17.0312 69.2905C17.0331 70.3578 17.3703 70.6873 18.4567 70.6892C21.871 70.693 25.2853 70.693 28.7016 70.6892C29.8646 70.6873 30.1654 70.3788 30.1673 69.1852C30.1711 67.2979 30.1673 65.4106 30.1673 63.5234C30.1673 61.6361 30.1692 59.7488 30.1654 57.8616C30.1654 56.7139 29.855 56.3901 28.7399 56.3901ZM28.0099 68.597C25.042 68.597 22.1316 68.597 19.1771 68.597C19.1771 65.2305 19.1771 61.8928 19.1771 58.5034C22.0952 58.5034 25.0228 58.5034 28.0099 58.5034C28.0099 61.8373 28.0099 65.1903 28.0099 68.597Z" fill="#0E5952"/>
<path d="M11.9231 61.4425C8.41297 61.4368 4.90285 61.4368 1.39273 61.4425C0.455808 61.4445 0.095594 61.8066 0.093678 62.7454C0.0860139 64.9431 0.0879299 67.1408 0.093678 69.3384C0.095594 70.3309 0.438567 70.6815 1.41956 70.6873C3.16313 70.6949 4.90667 70.6892 6.64832 70.6892C7.5201 70.6892 8.39189 70.6911 9.26367 70.6911C10.1355 70.6911 11.0072 70.6911 11.879 70.6873C12.8581 70.6834 13.2068 70.3654 13.2126 69.4208C13.226 67.1752 13.2279 64.9297 13.2106 62.6841C13.203 61.7817 12.8389 61.4445 11.9231 61.4425ZM11.0935 68.6007C8.11025 68.6007 5.20365 68.6007 2.23959 68.6007C2.23959 66.9204 2.23959 65.2669 2.23959 63.5501C5.17683 63.5501 8.116 63.5501 11.0935 63.5501C11.0935 65.2305 11.0935 66.8878 11.0935 68.6007Z" fill="#0E5952"/>
<path d="M1.41772 70.6851C3.16129 70.6927 4.90484 70.687 6.64649 70.687C4.90484 70.6889 3.16129 70.6946 1.41772 70.6851Z" fill="#0E5952"/>
<path d="M50.5 10.0974C53.2839 10.0878 55.5601 7.79434 55.5391 5.02188C55.5161 2.22452 53.2514 -0.0114519 50.4502 4.41308e-05C47.6585 0.0115402 45.4034 2.28392 45.413 5.0717C45.4245 7.85374 47.7045 10.107 50.5 10.0974ZM50.5038 2.05975C52.1286 2.07508 53.4449 3.40861 53.4468 5.03913C53.4506 6.70031 52.0903 8.05875 50.4463 8.03959C48.8197 8.02043 47.5053 6.68498 47.5033 5.05446C47.5033 3.38562 48.8484 2.04251 50.5038 2.05975Z" fill="#0E5952"/>
<path d="M62.5555 14.1554C60.2869 15.0367 58.0222 15.9258 55.7633 16.832C55.1674 17.0715 54.6846 17.0025 54.1806 16.5829C53.1154 15.6978 52.0136 14.8585 50.9234 14.0021C49.4251 12.8257 47.808 12.6264 46.0932 13.4599C44.1829 14.3872 42.2784 15.3241 40.3931 16.2994C39.8968 16.5561 39.4063 16.9048 39.0461 17.3244C37.2278 19.4474 35.4517 21.6067 33.666 23.7584C33.4686 23.996 33.2943 24.2565 33.1257 24.5171C32.7846 25.0459 32.9398 25.5326 33.3211 25.9541C33.7311 26.4063 34.2542 26.4753 34.7409 26.1304C35.1643 25.8315 35.5494 25.4598 35.8943 25.0689C37.3773 23.3828 38.8219 21.6603 40.3222 19.9896C40.7782 19.4838 41.3587 19.0852 41.9048 18.6676C42.3187 18.3514 42.8551 18.2288 43.2077 18.635C43.4606 18.9262 43.6043 19.4435 43.5602 19.8344C43.4204 21.0664 43.0582 22.2792 42.9835 23.5112C42.8149 26.322 42.7076 29.1404 42.6923 31.955C42.6789 34.3271 42.4834 36.6263 41.2763 38.7339C41.171 38.9197 41.1058 39.1267 41.0215 39.324C40.0424 41.604 39.0634 43.886 38.0805 46.1641C37.8563 46.6853 37.7911 47.2543 38.228 47.626C38.5518 47.9019 39.1094 48.1529 39.4753 48.061C39.8834 47.9613 40.3222 47.5264 40.5253 47.126C42.0983 44.0431 43.6407 40.9449 45.1352 37.8238C45.4551 37.157 45.5988 36.3887 45.7291 35.651C45.8518 34.9498 45.7962 34.2159 45.9131 33.5128C46.0836 32.4858 46.3767 32.2597 47.4114 32.3018C49.655 32.3919 51.8948 32.526 54.1385 32.6122C54.9164 32.641 55.3494 32.9935 55.6061 33.7216C56.0966 35.1165 56.6312 36.4979 57.183 37.8697C57.4838 38.617 58.1851 38.9121 58.8729 38.6534C59.557 38.3947 59.8769 37.7165 59.6298 36.9558C59.2082 35.6625 58.7829 34.3692 58.3115 33.0951C58.072 32.4494 57.7502 31.8305 57.4302 31.2193C57.0872 30.5621 56.5661 30.2019 55.7786 30.154C54.0868 30.0544 52.4007 29.8762 50.7107 29.7478C49.8217 29.6807 49.4653 29.3378 49.45 28.4468C49.4404 27.8261 49.4481 27.2034 49.4481 26.5826C49.4864 26.5826 49.5247 26.5826 49.5631 26.5826C49.5631 26.0327 49.4922 25.4732 49.5765 24.9367C49.8639 23.1012 50.1264 21.2561 50.5556 19.4512C50.8851 18.0583 51.6381 17.8916 52.7245 18.7921C53.0732 19.0814 53.3855 19.455 53.784 19.639C54.1826 19.8229 54.7382 20.0049 55.1042 19.8689C57.9877 18.7978 60.8541 17.6712 63.6955 16.4929C64.0538 16.3454 64.4083 15.8204 64.4773 15.4199C64.6612 14.3719 63.6457 13.7319 62.5555 14.1554Z" fill="#FF7F45"/>
<path d="M21.6296 37.9121C22.1029 38.3413 22.5915 38.7571 23.0494 39.2054C23.6798 39.8224 23.7622 40.1979 23.2602 40.9049C22.2389 42.3439 21.2541 43.8249 20.0853 45.1355C16.9814 48.6168 13.1341 51.1575 9.12964 53.4739C8.47628 53.8514 7.81909 54.2231 7.11975 54.6216C7.22896 54.6714 7.26727 54.7078 7.29984 54.7021C7.84016 54.612 8.38238 54.5239 8.92078 54.4185C13.479 53.5276 17.7689 51.9641 21.3825 48.9732C23.103 47.5496 24.609 45.8674 26.1821 44.2714C26.9025 43.5394 27.3776 43.4724 28.1038 44.2062C28.4314 44.5377 28.6959 44.9305 28.989 45.2964C29.0695 45.237 29.148 45.1795 29.2285 45.1201C29.6443 42.2078 30.0581 39.2955 30.4873 36.2874C27.4869 36.7721 24.6071 37.2377 21.7274 37.7033C21.6948 37.7742 21.6622 37.8432 21.6296 37.9121Z" fill="#FF7F45"/>
<path d="M50.4482 8.03958C52.0922 8.06065 53.4506 6.70029 53.4487 5.03912C53.4468 3.40668 52.1305 2.07506 50.5057 2.05973C48.8503 2.04249 47.5033 3.38561 47.5053 5.05445C47.5072 6.68497 48.8215 8.0185 50.4482 8.03958Z" fill="#FF7F45"/>
</svg>
