<svg width="32" height="32" viewBox="0 0 32 32" fill="none" xmlns="http://www.w3.org/2000/svg">
<path d="M2.12935 0L5.75058 3.66962C2.28407 6.5889 0.0761719 10.991 0.0761719 15.9161C0.0761719 16.2455 0.0866997 16.5717 0.106695 16.8958H7.38176C7.34598 16.5738 7.32493 16.2476 7.32493 15.9161C7.32493 13.0231 8.74878 10.4616 10.9219 8.90938L14.9367 12.9779V7.38871V0.0231523V0H2.12935Z" fill="#3385FF"/>
<path d="M28.0828 6.02062C25.2056 2.35205 20.7646 0 15.7816 0C15.4975 0 15.2155 0.00841911 14.9355 0.0231523V7.38871C15.2134 7.36029 15.4954 7.34556 15.7816 7.34556C18.7609 7.34556 21.3834 8.91675 22.8904 11.2825L18.6809 15.5477H24.229H31.483H31.4872V2.57094L28.0828 6.02062Z" fill="#0D32A6"/>
<path d="M15.7809 24.4853C12.9574 24.4853 10.4538 23.0741 8.91625 20.9125L12.8806 16.8945H7.37981H0.104742H0.0742188V29.8713L3.75017 26.1459C6.63157 29.6209 10.9505 31.8298 15.7798 31.8298C20.064 31.8298 23.9473 30.0902 26.7813 27.272L21.6521 22.0743C20.1293 23.5645 18.0593 24.4853 15.7809 24.4853Z" fill="#ABABAB"/>
</svg>
