<svg width="71" height="63" viewBox="0 0 71 63" fill="none" xmlns="http://www.w3.org/2000/svg">
<path d="M2.90927 25.2123C4.85028 26.358 6.74793 27.5792 8.64748 28.7946C10.042 29.686 11.4365 29.7557 12.912 28.9963C14.9567 27.9429 17.0221 26.9271 19.0875 25.9133C19.2966 25.8115 19.634 25.706 19.7904 25.8021C21.6372 26.9234 23.891 27.321 25.2987 29.2639C25.8961 30.0893 26.5368 30.8751 26.9947 31.7928C27.3207 32.443 27.6449 33.095 27.969 33.747C28.4778 34.7703 28.9866 35.7955 29.5237 36.879C28.7115 37.2842 27.9407 37.6253 27.2171 38.0455C26.746 38.3188 26.4011 38.2924 25.9432 37.9984C23.7685 36.6039 21.5769 35.2339 19.372 33.8884C17.382 32.6729 14.9755 32.9688 13.4265 34.5743C11.3027 36.7773 11.7437 40.2391 14.397 41.9257C17.3896 43.829 20.4198 45.672 23.4123 47.5753C25.1555 48.6834 26.9043 48.7927 28.7492 47.8617C31.704 46.3692 34.6739 44.9088 37.6269 43.4144C38.0038 43.2241 38.294 43.2316 38.6671 43.42C41.0755 44.6412 43.5008 45.8265 45.9035 47.059C46.2276 47.2248 46.5386 47.5452 46.7044 47.8693C48.3439 51.0917 49.9608 54.3255 51.5664 57.5649C52.1939 58.8294 53.1324 59.7151 54.4854 60.1504C54.6098 60.19 54.7247 60.2578 55.0036 60.3841C54.5947 60.3841 54.3648 60.3841 54.1368 60.3841C46.6366 60.3841 39.1383 60.3841 31.6381 60.3841C30.383 60.3841 29.8535 60.7402 29.8685 61.5732C29.8817 62.3797 30.4 62.7227 31.6117 62.7227C43.0372 62.7227 54.4628 62.7227 65.8884 62.7227C67.0869 62.7227 68.2854 62.7227 69.4858 62.7227C69.6498 62.7227 69.8156 62.7265 69.9796 62.7208C70.7823 62.6907 71.2855 62.2384 71.2836 61.5487C71.2817 60.8627 70.7729 60.3916 69.972 60.3897C67.1039 60.3803 64.2357 60.386 61.3675 60.386C59.8995 60.386 58.4334 60.386 56.8768 60.386C57.0125 60.2861 57.0615 60.2333 57.1218 60.2107C60.4498 58.8953 61.4843 56.21 59.8901 53.0195C58.3052 49.848 56.7242 46.6745 55.128 43.5105C54.4798 42.2234 53.9917 40.827 52.616 39.8471C54.6117 40.3314 54.6154 40.3446 57.2122 39.8339C60.7136 39.1461 64.2168 38.4695 67.705 37.7176C69.9098 37.2427 71.3741 35.281 71.342 33.046C71.31 30.8242 69.7572 28.9812 67.5373 28.4969C66.1899 28.2029 64.9292 28.6665 63.6458 28.9058C61.4354 29.3185 59.2362 29.7765 57.0295 30.2155C56.8109 29.8707 56.6205 29.5748 56.4377 29.2771C54.0991 25.4761 51.7586 21.677 49.4294 17.8704C48.5814 16.4834 47.4092 15.4808 45.766 15.4469C41.8651 15.3678 37.9624 15.4055 34.0615 15.4469C33.5772 15.4526 33.3605 15.3169 33.1325 14.9419C31.4572 12.1943 29.7555 9.46372 28.0821 6.71428C27.2623 5.36688 26.0845 4.71297 24.5204 4.71485C22.0762 4.71673 19.6302 4.71862 17.186 4.71485C16.0233 4.71297 15.0321 5.10494 14.2086 5.93222C12.8329 7.31731 11.4403 8.68355 10.0722 10.0743C8.48919 11.6855 8.43077 13.9978 9.91385 15.5072C11.4309 17.0487 13.7657 17.0167 15.3977 15.4187C16.3211 14.5141 17.2218 13.5869 18.1433 12.6786C18.3035 12.5203 18.5089 12.313 18.703 12.3017C19.4644 12.2584 20.2313 12.2848 21.0737 12.2848C20.9908 12.4638 20.9625 12.5505 20.9154 12.624C19.666 14.5009 18.4222 16.3835 17.154 18.2473C17.0051 18.4658 16.7507 18.6373 16.5095 18.7598C14.9002 19.5815 13.2739 20.3729 11.6683 21.2021C11.282 21.4019 11.0012 21.3717 10.6431 21.1418C9.14122 20.177 7.62421 19.2366 6.10721 18.2962C5.14048 17.697 4.10402 17.5104 2.99972 17.8308C1.49779 18.268 0.689357 19.3553 0.257812 20.7875C0.257812 21.2586 0.257812 21.7279 0.257812 22.199C0.668628 23.6086 1.67117 24.483 2.90927 25.2123ZM29.1732 30.8619C30.0513 30.4926 30.8579 30.1534 31.77 29.7708C32.5238 31.269 33.3247 32.8632 34.1727 34.5498C33.3416 34.9682 32.5407 35.3696 31.6512 35.8162C30.8032 34.1202 29.9741 32.4656 29.1732 30.8619ZM33.7732 27.6395C34.6023 26.7801 35.4541 25.9397 36.3078 25.103C36.4171 24.9956 36.5773 24.8768 36.7148 24.8749C38.1338 24.858 39.551 24.8655 41.1151 24.8655C39.3399 27.5264 37.6458 30.0667 35.8913 32.6993C35.1017 31.1239 34.3555 29.6521 33.6394 28.1652C33.5772 28.0352 33.6601 27.7544 33.7732 27.6395ZM32.8441 18.4998C33.4151 17.925 34.1067 17.7309 34.8925 17.7347C36.5848 17.7441 38.2771 17.7384 39.9693 17.7384C41.1509 17.7384 42.3324 17.7592 43.514 17.7479C43.9079 17.7441 44.3017 17.7384 44.6937 17.7271C45.9751 17.6894 46.8552 18.1756 47.5298 19.2912C50.0418 23.4541 52.6122 27.581 55.16 31.7212C55.7725 32.7144 56.0344 32.8312 57.1859 32.6013C60.0634 32.0246 62.9392 31.448 65.8149 30.8676C67.3564 30.5566 68.5681 31.2859 68.8658 32.7087C69.1391 34.0165 68.3043 35.1811 66.8155 35.4864C62.975 36.2741 59.1306 37.043 55.2863 37.8081C54.1368 38.0361 53.2417 37.6309 52.5934 36.5907C51.2667 34.4575 49.957 32.3111 48.6379 30.1722C47.8313 28.8644 46.989 28.8568 46.1259 30.1496C44.9274 31.9474 43.7288 33.7452 42.536 35.5486C41.8726 36.5493 42.0309 37.1711 43.09 37.7026C45.5436 38.935 47.9953 40.175 50.4658 41.3735C51.3308 41.7937 51.9376 42.3779 52.3654 43.2523C54.1952 46.9817 56.0797 50.6847 57.9265 54.4065C58.7292 56.0253 57.9208 57.693 56.2361 57.9663C55.209 58.1321 54.231 57.5781 53.6826 56.487C51.996 53.1307 50.3094 49.7764 48.6492 46.4069C48.3515 45.8039 47.9463 45.4025 47.3433 45.1066C44.5618 43.7423 41.7916 42.3591 39.0308 40.9533C38.4033 40.6329 37.8625 40.6386 37.2368 40.957C34.1199 42.5419 30.9728 44.0702 27.8672 45.6758C26.697 46.2807 25.685 46.2468 24.5713 45.5288C21.6296 43.6349 18.6409 41.8126 15.6785 39.9488C14.6816 39.3232 14.2726 38.3414 14.5214 37.2974C14.7456 36.3552 15.5635 35.5674 16.5736 35.5467C17.1465 35.5354 17.7928 35.7201 18.2866 36.0159C20.7025 37.467 23.0882 38.9689 25.4626 40.4878C26.1316 40.9156 26.7139 40.9495 27.4281 40.5839C30.2059 39.1611 33.0156 37.7987 35.7933 36.374C36.2305 36.1497 36.6526 35.7823 36.9259 35.3771C39.3098 31.8569 41.654 28.3103 44.0228 24.7788C44.3696 24.2625 44.6051 23.7499 44.3017 23.1431C43.987 22.5156 43.4104 22.4704 42.7941 22.4722C40.6553 22.4835 38.5145 22.444 36.3775 22.5024C35.9158 22.5156 35.358 22.7417 35.0226 23.0602C33.4528 24.547 31.9546 26.1093 30.4131 27.6244C29.5821 28.4404 28.5306 28.5987 27.5638 28.1068C26.6838 27.6583 26.1561 26.7293 26.3578 25.7022C26.4558 25.2028 26.7252 24.6658 27.0776 24.3021C28.9715 22.3403 30.922 20.4332 32.8441 18.4998ZM51.5796 39.293C49.5745 38.2905 47.3451 37.1768 45.0574 36.0348C45.8244 34.8834 46.548 33.7942 47.3263 32.6239C48.7981 34.9305 50.2359 37.1843 51.5796 39.293ZM25.0876 19.981C25.489 19.3723 25.8471 18.8296 26.2654 18.1926C26.7309 18.937 27.1568 19.6173 27.5864 20.307C27.3226 20.8572 26.9872 21.0212 26.435 20.6613C26.0468 20.4106 25.604 20.2373 25.0876 19.981ZM3.32384 20.2749C3.74785 19.8849 4.33581 19.9866 4.83519 20.2994C6.50861 21.3434 8.20463 22.3516 9.84035 23.4522C10.6695 24.01 11.3705 24.0288 12.2412 23.5615C14.1219 22.5514 16.0591 21.6468 17.9511 20.6575C18.3469 20.4502 18.7275 20.1185 18.98 19.7492C20.6987 17.2278 22.3778 14.6781 24.0813 12.1434C24.4281 11.6271 24.6617 11.1108 24.3301 10.5077C24.0059 9.92165 23.45 9.89338 22.8621 9.90092C21.3583 9.916 19.8526 9.86323 18.3525 9.93107C17.8889 9.9518 17.3424 10.1742 16.9995 10.487C15.9065 11.482 14.8964 12.5693 13.8449 13.6114C13.1344 14.3162 12.2525 14.3822 11.6645 13.7924C11.0577 13.1856 11.1237 12.3639 11.8586 11.6252C13.1665 10.308 14.4554 8.96999 15.8141 7.70551C16.1703 7.37384 16.7488 7.12886 17.2332 7.11755C19.6754 7.05913 22.1196 7.09682 24.5637 7.08552C25.1517 7.08363 25.6304 7.26266 25.9432 7.7677C27.756 10.7037 29.5614 13.6435 31.3535 16.555C30.6657 17.2447 30.008 17.9043 29.3145 18.6015C28.7152 17.631 28.116 16.6549 27.5092 15.6806C26.7742 14.499 25.8885 14.4858 25.1121 15.6486C24.2377 16.9564 23.3652 18.2661 22.5059 19.5833C21.9255 20.4728 22.0989 21.1192 23.0279 21.6016C23.3822 21.7863 23.744 21.954 24.1002 22.133C24.4563 22.3102 24.8106 22.493 25.1479 22.6645C24.7315 23.4785 24.3244 24.2776 23.8778 25.1557C22.8376 24.6413 21.7107 24.1287 20.6327 23.5332C19.8997 23.128 19.2703 23.1262 18.5202 23.5181C16.2966 24.6827 14.0333 25.772 11.7946 26.9064C11.1708 27.223 10.5998 27.223 10.0005 26.8461C7.83717 25.4799 5.64929 24.1494 3.51042 22.7474C3.12598 22.4949 2.73024 21.9785 2.69632 21.5564C2.65863 21.138 2.98652 20.584 3.32384 20.2749Z" fill="#0E5952"/>
<path d="M57.689 8.26525C54.1329 8.24452 51.1781 11.1805 51.1668 14.7478C51.1555 18.3623 54.0971 21.319 57.6871 21.3001C61.2751 21.2813 64.1678 18.3717 64.1678 14.7836C64.1678 11.1918 61.2808 8.28598 57.689 8.26525ZM57.64 18.9314C55.3767 18.9125 53.545 17.0601 53.5431 14.7855C53.5412 12.4808 55.4087 10.6171 57.7021 10.634C59.9673 10.651 61.8009 12.5034 61.8027 14.778C61.8046 17.0808 59.9296 18.9502 57.64 18.9314Z" fill="#0E5952"/>
<path d="M34.6023 4.53784e-05C31.9603 -0.0112615 29.8553 2.09181 29.861 4.73573C29.8666 7.33065 31.9716 9.44502 34.5665 9.46198C37.169 9.47894 39.3248 7.31934 39.3191 4.70181C39.3116 2.105 37.2123 0.0113522 34.6023 4.53784e-05ZM34.5985 7.08943C33.2888 7.09886 32.2316 6.0379 32.2316 4.71688C32.2316 3.39398 33.2926 2.33302 34.6023 2.3481C35.8856 2.36317 36.924 3.4034 36.9372 4.68673C36.9504 6.01151 35.9101 7.08001 34.5985 7.08943Z" fill="#0E5952"/>
<path d="M26.4501 60.4087C25.5607 60.3654 24.6674 60.3673 23.7779 60.4069C23.173 60.4351 22.7603 60.9496 22.7622 61.5488C22.7622 62.1462 23.173 62.6381 23.7798 62.6946C24.2208 62.7361 24.6712 62.7022 25.1159 62.7022C25.1159 62.7059 25.1159 62.7097 25.1159 62.7135C25.5154 62.7135 25.9131 62.7135 26.3126 62.7135C26.3597 62.7135 26.4068 62.7078 26.452 62.7003C27.0588 62.6098 27.4715 62.1425 27.4715 61.5488C27.4715 60.9552 27.055 60.4389 26.4501 60.4087Z" fill="#0E5952"/>
<path d="M3.50657 22.7458C5.64545 24.1479 7.83332 25.4783 9.99669 26.8446C10.5941 27.2233 11.167 27.2215 11.7907 26.9049C14.0295 25.7704 16.2927 24.6812 18.5164 23.5166C19.2683 23.1227 19.8958 23.1265 20.6289 23.5317C21.7068 24.129 22.8337 24.6397 23.874 25.1542C24.3225 24.276 24.7295 23.4789 25.1441 22.6629C24.8049 22.4914 24.4525 22.3105 24.0963 22.1315C23.7402 21.9525 23.3783 21.7848 23.0241 21.6001C22.095 21.1177 21.9216 20.4713 22.5021 19.5818C23.3633 18.2646 24.2358 16.9549 25.1083 15.647C25.8847 14.4843 26.7704 14.4975 27.5053 15.6791C28.1121 16.6533 28.7114 17.6295 29.3107 18.6C30.006 17.9027 30.6637 17.2432 31.3497 16.5535C29.5575 13.642 27.7522 10.7022 25.9393 7.76616C25.6265 7.25924 25.1497 7.08022 24.5599 7.08398C22.1157 7.09529 19.6716 7.0576 17.2293 7.11602C16.745 7.12733 16.1665 7.37419 15.8103 7.70398C14.4516 8.96657 13.1626 10.3064 11.8548 11.6237C11.1198 12.3624 11.0539 13.184 11.6607 13.7908C12.2505 14.3788 13.1306 14.3147 13.841 13.6099C14.8926 12.5678 15.9026 11.4823 16.9956 10.4855C17.3386 10.1726 17.8832 9.95027 18.3487 9.92954C19.8487 9.85981 21.3544 9.91446 22.8582 9.89939C23.4443 9.89373 24.0021 9.92012 24.3262 10.5062C24.6579 11.1092 24.4242 11.6256 24.0775 12.1419C22.3739 14.6746 20.6967 17.2243 18.9762 19.7476C18.7256 20.1151 18.343 20.4487 17.9473 20.656C16.0553 21.6453 14.118 22.5499 12.2373 23.5599C11.3648 24.0292 10.6638 24.0084 9.83652 23.4506C8.2008 22.3501 6.50476 21.3419 4.83135 20.2979C4.33008 19.9851 3.74401 19.8833 3.32001 20.2734C2.98269 20.5843 2.65478 21.1384 2.6887 21.5549C2.72639 21.9789 3.12214 22.4952 3.50657 22.7458Z" fill="#FF7F45"/>
<path d="M27.5883 20.3073C27.1567 19.6175 26.7327 18.9372 26.2673 18.1929C25.8489 18.8298 25.4909 19.3726 25.0895 19.9812C25.6058 20.2375 26.0487 20.4109 26.4369 20.6634C26.989 21.0215 27.3245 20.8594 27.5883 20.3073Z" fill="#FF7F45"/>
<path d="M34.6024 2.34806C33.2927 2.33298 32.2317 3.39394 32.2317 4.71684C32.2317 6.03786 33.2889 7.09882 34.5986 7.08939C35.9102 7.07997 36.9504 6.01148 36.9372 4.68669C36.924 3.40336 35.8857 2.36313 34.6024 2.34806Z" fill="#FF7F45"/>
</svg>
