<svg width="76" height="74" viewBox="0 0 76 74" fill="none" xmlns="http://www.w3.org/2000/svg">
<path d="M68.8366 42.5552C66.6117 42.7737 64.6451 43.7073 62.758 44.8197C58.4275 47.3425 54.097 49.8654 49.7665 52.3683C49.0911 52.7656 48.3561 53.0437 47.4622 53.4609C47.641 53.0437 47.7205 52.8848 47.78 52.706C49.0514 49.6866 47.3033 46.389 44.0852 45.7335C43.7475 45.6541 43.39 45.6143 43.0721 45.515C39.278 44.3231 35.4441 43.1908 31.6897 41.8599C28.8292 40.8468 26.1077 41.0256 23.4856 42.4161C20.6251 43.9457 17.8242 45.5945 15.0034 47.2035C13.9108 47.8193 12.8183 48.455 11.6661 49.1304C11.3483 48.5742 11.0503 48.0577 10.7523 47.5611C9.77897 45.9123 8.01102 45.4157 6.32253 46.3295C5.11079 46.985 3.89904 47.6803 2.6873 48.3755C1.03854 49.3489 0.522053 51.1168 1.45569 52.7855C5.11079 59.2613 8.76588 65.7372 12.4607 72.2131C13.4142 73.8817 15.1822 74.3783 16.8707 73.4646C18.0824 72.809 19.2941 72.1138 20.5059 71.4185C22.1944 70.4253 22.6513 68.6573 21.7176 66.9291C21.3799 66.3133 21.0224 65.6975 20.6648 65.042C21.1614 64.744 21.6382 64.5255 22.0553 64.2275C22.6513 63.7905 23.2273 63.7905 23.9226 63.9693C29.3059 65.4392 34.6892 66.8695 40.0726 68.3196C42.9728 69.0943 45.734 68.7566 48.2965 67.1675C56.3616 62.2013 64.4465 57.255 72.4917 52.2491C73.1671 51.832 73.8226 51.1566 74.2 50.4414C75.2528 48.5344 75.1933 46.548 73.9815 44.7204C72.7698 42.9127 70.9224 42.3565 68.8366 42.5552ZM19.0756 69.4916C18.0228 70.0876 16.97 70.7034 15.8973 71.2794C15.1623 71.6767 14.8445 71.5973 14.4472 70.902C10.8517 64.5453 7.2363 58.1688 3.6408 51.8121C3.22364 51.0771 3.30311 50.7791 4.01824 50.362C5.11079 49.7263 6.22321 49.1105 7.31576 48.4947C7.51441 48.3954 7.71306 48.3159 8.09049 48.1769C8.34873 48.4748 8.64669 48.7331 8.84534 49.0708C11.2688 53.3218 13.6526 57.5728 16.0562 61.804C17.2084 63.8302 18.3406 65.8564 19.4928 67.8826C19.9894 68.7169 19.9099 69.0149 19.0756 69.4916ZM72.3327 48.7927C72.154 49.329 71.7169 49.925 71.2402 50.2229C63.195 55.2288 55.1101 60.1751 47.0451 65.1413C44.999 66.3927 42.8139 66.5914 40.5294 65.9756C34.9276 64.4659 29.3258 62.976 23.724 61.4464C22.9095 61.2279 22.254 61.2677 21.5587 61.7246C20.923 62.1616 20.2278 62.4993 19.4729 62.9562C17.2481 59.023 15.0431 55.1494 12.8381 51.236C13.0169 51.1168 13.1361 51.0175 13.2553 50.9579C16.6521 48.9913 20.0291 47.0247 23.4459 45.078C24.1411 44.6807 24.8562 44.3629 25.6111 44.0847C27.24 43.4491 28.8689 43.4292 30.5574 44.0053C33.8549 45.1376 37.1723 46.25 40.4897 47.3227C41.5624 47.6604 42.7146 47.8392 43.8071 48.1173C45.4757 48.5543 46.2703 50.2825 45.5552 51.8121C45.0586 52.8848 43.8866 53.441 42.5358 53.1232C39.8938 52.4676 37.2716 51.7326 34.6297 51.0374C34.3714 50.9579 34.1132 50.8785 33.8351 50.8387C33.1597 50.7195 32.6035 51.0572 32.4445 51.6532C32.2658 52.3087 32.5637 52.9047 33.259 53.1232C34.5105 53.5205 35.7818 53.878 37.0531 54.1959C39.3574 54.7521 41.6816 55.3281 44.0058 55.785C46.469 56.2618 48.7733 55.7652 50.9385 54.4938C55.269 51.9511 59.6392 49.4085 63.9896 46.8857C65.5788 45.952 67.2275 45.1574 69.0948 44.9389C71.4984 44.641 73.1075 46.5082 72.3327 48.7927Z" fill="#0E5952"/>
<path d="M73.6436 11.1094C74.4183 10.295 74.8752 9.32162 74.8951 8.18933C74.9149 7.35502 74.9149 6.50084 74.8951 5.66652C74.8156 3.40195 73.0079 1.55454 70.7235 1.53467C64.1681 1.51481 57.6128 1.51481 51.0575 1.53467C49.2697 1.53467 47.5613 2.70669 47.164 4.45478C47.1044 4.75275 47.0448 5.03085 46.9852 5.32882C46.9455 5.54733 46.9058 5.76584 46.8859 5.98435C46.8859 6.06381 46.866 6.12341 46.866 6.20287C46.8462 6.42138 46.8263 6.63989 46.8064 6.8584C46.727 8.36811 47.0051 9.8381 48.1572 11.169C47.462 12.1623 47.1441 12.6589 47.0051 13.374C46.9852 13.4733 46.9654 13.5925 46.9455 13.7117C46.9455 13.7713 46.9256 13.8309 46.9256 13.8905C46.9058 14.2282 46.8859 14.6453 46.8859 15.142C46.8859 15.5194 46.8462 15.8968 46.8859 16.2544C46.9654 16.8106 46.7667 17.049 46.1906 17.2079C39.3572 19.1546 35.0267 25.9285 36.1789 32.8414C37.1324 38.622 41.5224 43.2107 47.2037 44.3629C52.8453 45.515 58.5862 43.0915 61.7645 38.1849C62.0029 37.8075 62.2611 37.6486 62.718 37.6685C65.3203 37.6883 67.9226 37.6883 70.5447 37.6685C72.8093 37.6486 74.7163 36.0396 74.8355 33.8346C74.9546 31.8084 75.2923 29.6829 73.6039 28.054C75.4314 25.5709 75.4314 22.2734 73.6436 19.5519C75.4711 17.2079 75.4513 13.7912 73.6436 11.1094ZM49.2895 5.92476C49.3292 4.65342 50.0841 3.89857 51.3554 3.89857C54.5537 3.8787 57.7519 3.89857 60.9501 3.89857C64.049 3.89857 67.1478 3.89857 70.2467 3.89857C71.7962 3.89857 72.5113 4.61369 72.5113 6.183C72.5113 6.77894 72.5312 7.37488 72.5113 7.97082C72.4914 9.12297 71.7962 9.87783 70.644 9.97715C70.4454 9.99701 70.2467 9.99701 70.0481 9.99701C63.9496 9.99701 57.8512 9.99701 51.7527 9.99701C49.9649 9.99701 49.2895 9.32162 49.2895 7.51393C49.2895 6.97759 49.2697 6.44124 49.2895 5.92476ZM72.5113 16.4928C72.4716 17.6052 71.7366 18.3799 70.6242 18.3799C66.1149 18.3998 61.5858 18.3998 57.0765 18.3799C56.8977 18.3799 56.7189 18.36 56.5799 18.3004C54.3352 17.1284 51.9514 16.5921 49.3094 16.6914C49.3094 15.7379 49.2498 14.8639 49.3293 14.0097C49.4286 12.9767 50.2232 12.3609 51.3554 12.3609C54.8516 12.3609 58.3478 12.3609 61.844 12.3609C64.6648 12.3609 67.5054 12.3609 70.3262 12.3609C71.7962 12.3609 72.5113 13.076 72.5113 14.546C72.5312 15.2016 72.5312 15.8372 72.5113 16.4928ZM50.0047 42.2969C43.6281 42.2771 38.4037 37.0328 38.4236 30.6562C38.4434 24.2598 43.648 19.0752 50.0642 19.095C56.4805 19.1149 61.6652 24.2996 61.6453 30.7158C61.6255 37.0725 56.3812 42.3168 50.0047 42.2969ZM72.5113 33.3777C72.4716 34.4504 71.7763 35.2648 70.7235 35.2847C68.2603 35.3244 65.8169 35.3046 63.453 35.3046C63.6914 33.2982 63.9298 31.3714 64.188 29.2856C64.1681 29.2856 64.3271 29.226 64.5058 29.226C66.4724 29.226 68.4192 29.2061 70.3858 29.226C71.7366 29.2459 72.4914 30.0007 72.5113 31.3515C72.5312 32.0468 72.5312 32.7023 72.5113 33.3777ZM72.5113 24.9551C72.4716 26.0675 71.7167 26.8224 70.6242 26.8422C68.4192 26.8621 66.2142 26.8621 64.0092 26.8422C63.8106 26.8422 63.4729 26.6635 63.4133 26.4847C62.7379 24.4187 61.6453 22.6111 60.1754 21.0219C60.1555 20.9822 60.1555 20.9226 60.0959 20.7835C62.8372 20.7835 65.519 20.7835 68.2007 20.7835C68.9357 20.7835 69.6905 20.7637 70.4255 20.7835C71.7962 20.8232 72.5113 21.5781 72.5113 22.9488C72.5312 23.6242 72.5312 24.2797 72.5113 24.9551Z" fill="#0E5952"/>
<path d="M25.0146 11.3279C25.7099 11.3478 26.4052 11.3279 27.1998 11.3279C27.1998 11.6855 27.1998 11.9636 27.1998 12.2218C27.1998 16.7311 27.1998 21.2602 27.1998 25.7695C27.1998 26.8422 27.6169 27.2395 28.6896 27.2593C30.0205 27.2593 31.3713 27.2593 32.7023 27.2593C34.0332 27.2593 34.3709 26.9018 34.3709 25.5907C34.3709 21.1212 34.3709 16.6516 34.3709 12.1821C34.3709 11.9238 34.3709 11.6457 34.3709 11.3279C35.1456 11.3279 35.8409 11.3478 36.5361 11.3279C37.6883 11.308 38.2246 10.3347 37.589 9.38116C35.7018 6.46106 33.7749 3.58069 31.8481 0.680447C31.2521 -0.213462 30.3185 -0.233327 29.7226 0.660582C27.7758 3.56082 25.849 6.48092 23.942 9.42089C23.3659 10.3545 23.9221 11.308 25.0146 11.3279ZM30.8151 3.38204C32.0467 5.24932 33.2187 7.03713 34.5099 8.964C34.0729 8.964 33.7551 8.964 33.4571 8.964C32.4639 8.98387 32.0467 9.42089 32.0467 10.4539C32.0467 14.0096 32.0467 17.5455 32.0467 21.1013C32.0467 22.3329 32.0467 23.5645 32.0467 24.8756C31.1925 24.8756 30.4576 24.8756 29.6232 24.8756C29.6232 24.5776 29.6232 24.3194 29.6232 24.0611C29.6232 19.671 29.6232 15.281 29.6232 10.8909C29.6232 9.28184 29.365 9.00373 27.7162 8.98387C27.5772 8.98387 27.4381 8.964 27.16 8.94414C28.3916 7.057 29.5636 5.26918 30.8151 3.38204Z" fill="#0E5952"/>
<path d="M69.0748 44.9192C67.2075 45.1377 65.5588 45.9323 63.9696 46.866C59.6192 49.3888 55.2689 51.9116 50.9185 54.4741C48.7533 55.7455 46.4291 56.2421 43.9857 55.7653C41.6616 55.3084 39.3374 54.7324 37.0331 54.1762C35.7618 53.8583 34.4904 53.5008 33.239 53.1035C32.5437 52.885 32.2457 52.289 32.4245 51.6335C32.5834 51.0375 33.1397 50.6998 33.815 50.819C34.0733 50.8588 34.3514 50.9581 34.6096 51.0177C37.2516 51.7129 39.8738 52.4479 42.5158 53.1035C43.8666 53.4412 45.0386 52.885 45.5352 51.7924C46.2503 50.2628 45.4359 48.5346 43.7871 48.0976C42.6945 47.7996 41.5424 47.6407 40.4697 47.303C37.1523 46.2303 33.8349 45.1377 30.5374 43.9856C28.8688 43.4095 27.22 43.4095 25.5911 44.0651C24.8561 44.363 24.1211 44.6809 23.4258 45.0583C20.029 47.005 16.6321 48.9716 13.2353 50.9382C13.1161 51.0177 12.9969 51.0971 12.8181 51.2163C15.0231 55.1098 17.2082 58.9834 19.4529 62.9365C20.2276 62.4994 20.903 62.1419 21.5387 61.7049C22.234 61.2281 22.9094 61.1884 23.7039 61.4268C29.3058 62.9563 34.9076 64.4462 40.5094 65.9559C42.7939 66.5717 44.979 66.3731 47.025 65.1216C55.0901 60.1554 63.175 55.1893 71.2202 50.2032C71.6969 49.9053 72.1339 49.3292 72.3127 48.773C73.1073 46.5084 71.4983 44.6411 69.0748 44.9192Z" fill="#FF7F45"/>
<path d="M16.076 61.8039C13.6723 57.5529 11.2687 53.3018 8.86508 49.0707C8.66643 48.733 8.36846 48.4747 8.11022 48.1768C7.75266 48.3357 7.53416 48.3953 7.33551 48.4946C6.22309 49.1104 5.13053 49.7262 4.03797 50.3619C3.32284 50.779 3.24339 51.077 3.66055 51.812C7.25605 58.1687 10.8515 64.5452 14.4669 70.9019C14.8642 71.617 15.2019 71.6965 15.917 71.2793C16.9699 70.6834 18.0425 70.0875 19.0954 69.4915C19.9297 69.0148 20.0091 68.7367 19.5324 67.8825C18.3604 65.8563 17.2082 63.8301 16.076 61.8039ZM7.23619 53.6594C6.5012 53.6197 5.92512 53.0039 5.96484 52.2689C6.00457 51.5537 6.62038 50.9578 7.33551 50.9777C8.05064 50.9975 8.62671 51.6133 8.62671 52.3285C8.62671 53.1231 8.01091 53.6991 7.23619 53.6594Z" fill="#FF7F45"/>
<path d="M7.35527 50.9778C6.64014 50.9579 6.00447 51.5539 5.9846 52.269C5.94487 52.9841 6.52095 53.6198 7.25595 53.6595C8.03067 53.6992 8.64647 53.1232 8.64647 52.3484C8.64647 51.6134 8.0704 50.9976 7.35527 50.9778Z" fill="#0E5952"/>
<path d="M53.0833 30.3781C52.2887 29.9808 51.4147 29.7822 50.5605 29.5041C49.9249 29.3054 49.2495 29.1862 48.6337 28.9677C47.9781 28.7293 47.5411 28.2724 47.5411 27.5176C47.5411 26.7826 47.9384 26.2661 48.5741 25.9086C50.0639 25.0941 51.812 25.6106 52.6662 27.1203C53.0833 27.8752 53.7389 28.1334 54.3745 27.7957C54.9903 27.458 55.1493 26.7627 54.752 25.9681C54.1362 24.7763 53.2224 23.8824 51.9113 23.4851C51.375 23.3262 51.1763 23.0878 51.1962 22.5117C51.2161 21.8164 50.6599 21.3198 50.0242 21.3397C49.4084 21.3397 48.8323 21.8164 48.872 22.472C48.9118 23.1871 48.5542 23.346 47.998 23.5645C46.2499 24.2002 45.1573 25.7496 45.1573 27.458C45.1573 29.1862 46.1108 30.5172 47.8987 31.2323C48.4747 31.4508 49.0905 31.5501 49.6865 31.7488C50.5208 32.007 51.4147 32.2056 52.1894 32.6228C53.1032 33.1393 53.2224 34.351 52.5073 34.9668C51.0174 36.258 47.6404 35.9998 47.0644 33.7948C46.8657 33.0598 46.1903 32.7619 45.5546 32.9804C44.9587 33.179 44.6409 33.7948 44.8196 34.4901C45.1176 35.6422 45.7732 36.5759 46.7863 37.1917C47.4021 37.5691 48.1172 37.8273 48.7926 38.1452C48.9118 39.4761 49.2296 39.9529 50.0242 39.9529C50.8188 39.9529 51.1167 39.5158 51.2757 38.1054C51.7921 37.9267 52.2689 37.8075 52.7258 37.6088C54.2554 36.9533 55.2685 35.8607 55.3082 34.1127C55.3678 32.444 54.593 31.133 53.0833 30.3781Z" fill="#0E5952"/>
</svg>
