<svg width="74" height="72" viewBox="0 0 74 72" fill="none" xmlns="http://www.w3.org/2000/svg">
<path d="M72.9666 48.031C72.6646 41.3238 72.3786 34.6008 72.0607 27.8936C71.9971 26.5585 71.9812 25.1758 71.5998 23.9202C70.8051 21.3772 68.9137 19.9149 66.2753 19.6447C63.7164 19.3745 61.6503 20.3759 60.2675 22.5533C58.4079 25.4936 56.6119 28.4658 54.8318 31.4538C54.4663 32.0578 54.053 32.328 53.3696 32.4233C50.0001 32.8684 46.6306 33.3452 43.2612 33.8379C40.75 34.2034 38.8427 36.1902 38.6838 38.7332C38.6202 39.5755 38.8109 40.4338 38.8904 41.3238C38.6679 41.3238 38.4136 41.3238 38.1593 41.3238C34.4242 41.3238 30.6892 41.3238 26.9542 41.3238C26.4773 41.3238 26.0164 41.2921 25.5396 41.3397C24.9356 41.4033 24.4906 41.9119 24.5065 42.4841C24.5224 43.0722 24.9674 43.5331 25.5873 43.5808C25.7939 43.5967 26.0164 43.5967 26.223 43.5967C28.9727 43.5967 31.7223 43.5967 34.4719 43.5967C34.7262 43.5967 34.9646 43.5967 35.2825 43.5967C35.2825 43.9781 35.2825 44.2483 35.2825 44.5185C35.2825 52.7674 35.2825 61.0162 35.2825 69.2651C35.2825 69.5194 35.2825 69.7896 35.2984 70.0439C35.362 70.6479 35.7434 70.9816 36.3156 71.0452C36.8878 71.0929 37.3169 70.7909 37.4758 70.2346C37.5553 69.9485 37.5553 69.6307 37.5553 69.3287C37.5553 61.0639 37.5553 52.7833 37.5553 44.5185C37.5553 44.2324 37.5553 43.9304 37.5553 43.6125C38.3659 43.6125 39.0493 43.6284 39.7169 43.6125C40.3844 43.5808 40.9884 43.6761 41.5923 44.0417C42.4983 44.5821 43.5314 44.7569 44.5803 44.6139C46.0744 44.4231 47.5525 44.2165 49.0465 44.0099C52.6385 43.5013 56.2305 42.9927 59.8861 42.4682C59.8861 42.8973 59.8543 43.4377 59.9019 43.9622C59.9496 44.4708 59.7589 44.6615 59.2503 44.7092C57.057 44.9317 54.8636 45.2814 52.6703 45.4244C48.1406 45.7105 45.677 48.9529 45.8201 53.0693C45.9949 57.8375 45.8518 62.6056 45.8518 67.3737C45.8518 68.2002 45.836 69.0267 45.8677 69.8373C45.8836 70.5684 46.3446 71.0452 46.9803 71.0452C47.6002 71.0452 48.077 70.5525 48.1406 69.8532C48.1564 69.6465 48.1406 69.424 48.1406 69.2174C48.1406 63.5274 48.1247 57.8375 48.1406 52.1634C48.1406 49.8429 49.7617 48.0628 52.0186 47.8085C54.959 47.4747 57.8993 47.141 60.8397 46.8072C61.841 46.6959 62.1906 46.3304 62.1906 45.2973C62.2065 43.8668 62.1589 42.4364 62.2065 40.9901C62.2224 40.5292 62.3655 40.0206 62.6039 39.6073C63.637 37.8431 64.7178 36.1107 65.7826 34.3624C66.2436 33.5995 66.1641 32.9478 65.576 32.5664C64.9721 32.169 64.3204 32.3915 63.8277 33.1862C62.731 34.9663 61.6344 36.7464 60.5695 38.5424C59.9019 39.6868 58.9324 40.2908 57.6291 40.4497C56.1192 40.6404 54.6093 40.8788 53.0994 41.0854C50.1908 41.4987 47.2982 41.9437 44.3737 42.2775C42.5936 42.4841 41.1155 41.2444 40.9407 39.5755C40.7499 37.7477 41.8625 36.3173 43.7062 36.0471C47.3141 35.5226 50.9061 35.0299 54.514 34.5054C55.2927 34.3942 55.8967 34.0445 56.3258 33.3452C58.249 30.1664 60.1721 27.0036 62.1271 23.8566C63.1443 22.2036 64.9562 21.5202 66.7522 22.0129C68.4687 22.4897 69.613 23.9996 69.6925 25.891C69.7879 28.1161 69.8832 30.3571 69.9945 32.5823C70.2488 38.2881 70.5031 43.994 70.7892 49.684C70.9481 52.672 69.3587 54.5316 66.3707 54.8336C63.7006 55.1037 61.0463 55.4216 58.392 55.7554C57.1523 55.8984 56.9298 56.2004 56.9139 57.4401C56.8662 61.3818 56.8027 65.3393 56.755 69.281C56.755 69.5353 56.7232 69.8055 56.7709 70.0598C56.9298 70.918 57.9152 71.3472 58.5351 70.775C58.8212 70.5207 58.996 70.0121 58.996 69.6148C59.0755 66.0228 59.1073 62.4308 59.1708 58.8229C59.1708 58.5527 59.1708 58.2666 59.1708 57.9646C61.7456 57.6626 64.2409 57.3448 66.7363 57.0905C70.0263 56.7567 72.2196 54.8653 72.9666 51.7025C72.9984 51.5753 73.0461 51.4482 73.0938 51.3051C73.0938 50.5104 73.0938 49.6999 73.0938 48.9052C73.0461 48.6191 72.9825 48.3171 72.9666 48.031Z" fill="#0E5952"/>
<path d="M22.9174 45.6627C21.0896 45.329 19.2459 45.1859 17.4022 44.9634C16.3214 44.8363 15.2407 44.7091 14.1758 44.582C14.1758 43.7555 14.1758 43.0562 14.1758 42.2774C15.638 42.8495 17.0526 42.8813 18.4671 42.3092C20.3585 41.5304 22.2498 40.7834 24.1412 40.0363C26.9226 38.9238 29.7358 37.843 32.4854 36.651C34.9013 35.602 36.1251 32.9636 35.5052 30.4683C34.6946 27.2101 31.3569 25.4777 28.1623 26.7174C25.1743 27.8776 22.1862 29.0855 19.2141 30.3094C18.7373 30.5001 18.5307 30.4206 18.2764 29.9915C16.6393 27.2736 14.9864 24.5717 13.3175 21.8698C13.0632 21.4565 12.793 21.0274 12.4593 20.6777C10.8222 18.993 8.83547 18.4685 6.59445 19.1837C4.38522 19.8989 3.05014 21.8062 2.87531 24.2379C2.6369 27.6551 2.36671 31.0723 2.11241 34.5053C1.71506 39.7344 1.27004 44.9475 0.920375 50.1766C0.697863 53.5143 3.12961 56.4546 6.41962 56.9791C7.43682 57.138 8.46992 57.2652 9.48712 57.3923C11.299 57.6308 13.1109 57.8692 14.9705 58.1076C14.9705 58.4254 14.9705 58.6797 14.9705 58.934C14.9705 62.5101 14.9705 66.0703 14.9705 69.6464C14.9705 70.5206 15.4155 71.0451 16.0989 71.0451C16.7824 71.0451 17.2274 70.5047 17.2274 69.6305C17.2274 65.5458 17.2274 61.4453 17.2274 57.3606C17.2274 56.4387 16.9095 56.0732 16.0036 55.946C12.9043 55.5328 9.80499 55.1672 6.7216 54.7063C4.46469 54.3725 2.98657 52.2904 3.17729 50.0176C3.55874 45.329 3.9084 40.6562 4.25807 35.9675C4.56005 32.0577 4.83024 28.1478 5.14812 24.2379C5.27527 22.6645 6.16532 21.6314 7.53218 21.2658C8.97852 20.9002 10.3772 21.4724 11.2036 22.8393C13.0791 25.9068 14.9546 28.9743 16.83 32.0259C17.5453 33.202 17.8313 33.2974 19.1187 32.7729C22.4088 31.4537 25.6988 30.1345 28.9888 28.8312C30.6894 28.1637 32.4854 28.9266 33.1371 30.5637C33.7728 32.1689 33.0417 33.9808 31.3887 34.6484C26.859 36.4761 22.3293 38.288 17.7837 40.0681C15.8605 40.8151 14.4937 40.2906 13.4129 38.5264C12.3162 36.7463 11.2354 34.9662 10.1388 33.1702C9.66195 32.4073 9.05799 32.1848 8.45402 32.5345C7.81827 32.9 7.72291 33.5676 8.19972 34.3623C9.26461 36.1265 10.3613 37.8748 11.4103 39.6549C11.6169 40.0205 11.744 40.4814 11.7599 40.8946C11.8076 42.325 11.7758 43.7555 11.7758 45.2018C11.7758 46.3144 12.1096 46.664 13.2222 46.7753C15.8287 47.0614 18.4512 47.3634 21.0578 47.6654C21.4551 47.713 21.8525 47.7448 22.2498 47.8243C24.3955 48.2216 25.8259 49.9382 25.8259 52.1633C25.8418 57.9645 25.8259 63.7657 25.8259 69.5829C25.8259 70.4729 26.2392 70.9974 26.9226 71.0292C27.606 71.061 28.0987 70.5524 28.0987 69.7418C28.0987 63.7657 28.1305 57.8056 28.0669 51.8295C28.0828 48.7779 25.9054 46.219 22.9174 45.6627Z" fill="#0E5952"/>
<path d="M26.1276 19.6288C26.9223 19.9944 27.6375 19.8036 28.2732 19.2474C29.2427 18.405 30.2441 17.5785 31.1818 16.6885C31.7222 16.1799 32.2943 16.005 33.0255 16.005C36.6969 16.0368 40.3525 16.0209 44.024 16.0209C46.3603 16.0209 47.7431 14.6223 47.7431 12.2859C47.7431 9.42501 47.759 6.54823 47.7431 3.68736C47.7431 1.39865 46.3285 0.0158938 44.0557 0C41.5127 0 38.9856 0 36.4426 0C34.4718 0 32.501 0 30.5142 0C29.8626 0 29.1951 0 28.5434 0C26.4931 0.0158938 25.015 1.46223 25.015 3.51252C24.9991 8.26476 25.015 13.0011 25.015 17.7533C25.015 18.5957 25.3329 19.2633 26.1276 19.6288ZM27.2878 3.73504C27.2878 2.68605 27.701 2.2887 28.75 2.27281C33.8519 2.27281 38.9538 2.27281 44.0398 2.27281C45.0888 2.27281 45.4703 2.67015 45.4703 3.75093C45.4703 6.51645 45.4703 9.29786 45.4703 12.0634C45.4703 13.4143 45.1683 13.7322 43.8173 13.7322C40.1777 13.7322 36.538 13.7481 32.8983 13.7163C31.6745 13.7004 30.6573 14.066 29.7672 14.9084C29.0202 15.6236 28.2255 16.2752 27.3196 17.054C27.3037 16.752 27.2878 16.6249 27.2878 16.4818C27.2878 12.2382 27.2878 7.99457 27.2878 3.73504Z" fill="#0E5952"/>
<path d="M63.0968 16.0843C67.5629 16.1002 71.1708 12.5241 71.1867 8.05793C71.1867 3.63946 67.5788 0.0315713 63.1763 0.0156775C58.7578 -0.000216231 55.1499 3.59178 55.1181 8.01024C55.0863 12.4287 58.6783 16.0525 63.0968 16.0843ZM63.1763 2.28849C66.3391 2.32027 68.8821 4.87917 68.8821 8.05793C68.8821 11.2685 66.3073 13.8274 63.1127 13.8115C59.9498 13.7956 57.4068 11.2367 57.4068 8.05793C57.4068 4.86328 60.0134 2.2567 63.1763 2.28849Z" fill="#0E5952"/>
<path d="M10.7904 16.0843C15.2565 16.1002 18.8803 12.5082 18.8644 8.04203C18.8644 3.63946 15.2406 0.0156775 10.8381 0.0156775C6.43548 -0.000216229 2.82759 3.59178 2.8117 8.02614C2.7958 12.4446 6.3719 16.0684 10.7904 16.0843ZM10.8857 2.28849C14.0645 2.32027 16.5916 4.89507 16.5916 8.05793C16.5916 11.2685 14.0168 13.8274 10.8063 13.8115C7.6434 13.7956 5.1004 11.2367 5.1004 8.05793C5.1004 4.84738 7.70698 2.24081 10.8857 2.28849Z" fill="#0E5952"/>
<path d="M27.3199 17.0695C28.2258 16.2907 29.0205 15.6232 29.7675 14.9239C30.6576 14.0815 31.6748 13.7318 32.8986 13.7318C36.5383 13.7636 40.1779 13.7477 43.8176 13.7477C45.1686 13.7477 45.4706 13.4299 45.4706 12.0789C45.4706 9.31338 45.4706 6.53197 45.4706 3.76645C45.4706 2.70157 45.0891 2.28833 44.0401 2.28833C38.9382 2.28833 33.8363 2.28833 28.7503 2.28833C27.7013 2.28833 27.2881 2.70157 27.2881 3.75056C27.2881 8.01009 27.2881 12.2537 27.2881 16.5133C27.2881 16.6245 27.304 16.7676 27.3199 17.0695ZM31.5635 4.78365C34.8217 4.78365 38.0959 4.78365 41.3541 4.78365C42.2441 4.78365 42.7527 5.21278 42.7527 5.91211C42.7527 6.62733 42.26 7.04057 41.37 7.05646C40.5435 7.05646 39.7329 7.05646 38.9064 7.05646C38.08 7.05646 37.2694 7.05646 36.4429 7.05646C35.6323 7.05646 34.8217 7.05646 34.0112 7.05646C33.2006 7.05646 32.39 7.05646 31.5794 7.05646C30.6735 7.05646 30.1808 6.65912 30.1808 5.928C30.1966 5.21278 30.6894 4.78365 31.5635 4.78365ZM31.4205 8.96371C32.2469 8.93193 33.0575 8.96371 33.884 8.96371C34.6628 8.96371 35.4416 8.94782 36.2045 8.96371C37.031 8.97961 37.5396 9.44053 37.5237 10.124C37.5078 10.7597 36.9992 11.2365 36.2363 11.2524C34.6469 11.2683 33.0416 11.2683 31.4523 11.2524C30.6576 11.2365 30.1966 10.7915 30.1966 10.124C30.1808 9.42463 30.6258 8.97961 31.4205 8.96371Z" fill="#1BABA1"/>
<path d="M63.1125 13.8116C66.323 13.8275 68.8819 11.2527 68.8819 8.05806C68.8819 4.8952 66.3389 2.32041 63.1761 2.28862C60.0132 2.25683 57.4066 4.86341 57.4066 8.05806C57.4066 11.2368 59.9496 13.7957 63.1125 13.8116Z" fill="#FF7F45"/>
<path d="M10.7902 13.8116C14.0008 13.8275 16.5755 11.2686 16.5755 8.05806C16.5755 4.8952 14.0484 2.32041 10.8697 2.28862C7.70682 2.25683 5.08435 4.86341 5.08435 8.04216C5.10024 11.2209 7.62735 13.7957 10.7902 13.8116Z" fill="#FF7F45"/>
<path d="M31.5951 7.05699C32.4056 7.05699 33.2162 7.05699 34.0268 7.05699C34.8374 7.05699 35.648 7.05699 36.4586 7.05699C37.285 7.05699 38.0956 7.05699 38.9221 7.05699C39.7486 7.05699 40.5591 7.05699 41.3856 7.05699C42.2757 7.05699 42.7843 6.62786 42.7684 5.91264C42.7684 5.21331 42.2439 4.78418 41.3697 4.78418C38.1115 4.78418 34.8374 4.78418 31.5792 4.78418C30.6891 4.78418 30.1964 5.21331 30.1964 5.92853C30.1964 6.65964 30.6732 7.05699 31.5951 7.05699Z" fill="#0E5952"/>
<path d="M31.4524 11.2369C33.0418 11.2528 34.6471 11.2528 36.2365 11.2369C36.9994 11.221 37.508 10.7601 37.5238 10.1085C37.5397 9.44093 37.0311 8.98001 36.2047 8.94823C35.4259 8.93233 34.6471 8.94823 33.8842 8.94823C33.0577 8.94823 32.2471 8.93233 31.4206 8.94823C30.626 8.98001 30.1809 9.40915 30.1968 10.0926C30.1968 10.776 30.6577 11.221 31.4524 11.2369Z" fill="#0E5952"/>
<path d="M33.8839 8.94823C33.0575 8.94823 32.2469 8.93233 31.4204 8.94823C32.2469 8.93233 33.0734 8.94823 33.8839 8.94823Z" fill="#0E5952"/>
</svg>
