<svg width="72" height="68" viewBox="0 0 72 68" fill="none" xmlns="http://www.w3.org/2000/svg">
<path d="M7.79717 54.2696C10.1734 54.1622 12.557 54.2529 14.9369 54.2492C16.0037 54.2474 16.6427 53.7288 16.6519 52.8657C16.663 51.9989 16.0296 51.4674 14.9666 51.4656C12.5163 51.4619 10.066 51.4285 7.61752 51.4767C5.72655 51.5137 4.47084 50.6136 3.80224 48.9449C3.47628 48.1318 3.3133 47.2002 3.30774 46.3223C3.2707 38.2566 3.28552 30.1908 3.28552 22.1231C3.28552 21.8768 3.28552 21.6323 3.28552 21.3656C23.4361 21.3656 43.5033 21.3656 63.5724 21.3656C63.5724 26.0755 63.5724 30.7297 63.5724 35.4062C62.4723 35.3451 61.5759 35.6692 60.8184 36.4137C60.6943 36.536 60.3683 36.5508 60.1775 36.486C59.633 36.3008 59.1256 36.0044 58.5755 35.8396C58.1236 35.7044 57.9884 35.484 57.9551 35.0191C57.831 33.23 56.6493 32.078 54.8658 32.0077C53.8749 31.9688 52.8748 31.9688 51.8895 32.054C50.6282 32.1614 49.4411 33.0837 49.3466 34.3283C49.254 35.5322 48.6762 35.9896 47.6705 36.2378C47.5168 36.2748 47.3593 36.3452 47.2315 36.4378C46.8463 36.7156 46.5759 36.6378 46.2222 36.3119C44.9165 35.1062 43.1366 35.1451 41.8587 36.3749C41.2253 36.9823 40.5974 37.5991 40.001 38.2417C38.8972 39.4326 38.8805 41.1736 39.9307 42.4108C40.0936 42.6015 40.2677 42.783 40.4141 42.9442C40.1251 43.6683 39.8769 44.3647 39.5602 45.0296C39.4695 45.2222 39.1917 45.4278 38.9843 45.4463C36.8803 45.6389 35.7728 46.8168 35.7617 48.9263C35.7561 49.7505 35.7617 50.5747 35.7617 51.4674C35.4301 51.4674 35.1801 51.4674 34.9319 51.4674C32.552 51.4674 30.1721 51.4618 27.7922 51.4711C26.7698 51.4748 26.1457 52.1675 26.292 53.0954C26.405 53.8103 26.9828 54.2492 27.8644 54.2511C31.3315 54.2566 34.7967 54.2529 38.2638 54.2529C39.401 54.2529 39.3991 54.2529 39.8066 55.279C39.9251 55.579 40.0251 55.8939 40.1955 56.1643C40.4548 56.5791 40.4122 56.8551 40.0566 57.2292C38.9046 58.4423 38.8898 60.1944 40.0066 61.4353C40.6548 62.1557 41.3494 62.8373 42.068 63.4892C43.031 64.3634 44.5979 64.706 45.5128 63.8763C46.6185 62.8762 47.4575 63.3281 48.4891 63.7578C48.9947 63.9689 49.2318 64.1597 49.2688 64.7561C49.3744 66.5007 50.6783 67.6823 52.4155 67.7064C53.2712 67.7175 54.1268 67.7249 54.9806 67.7027C56.303 67.6675 57.6902 66.8322 57.8013 65.5765C57.9328 64.1004 58.7681 63.6448 59.9164 63.3022C59.9386 63.2947 59.9608 63.2892 59.9794 63.2762C60.3757 63.0077 60.6683 63.0669 61.0388 63.4188C62.2426 64.5634 64.0206 64.5745 65.2467 63.4633C65.9653 62.8114 66.6524 62.1205 67.3006 61.4001C68.2026 60.3981 68.4619 58.8127 67.6025 57.8237C66.7932 56.8921 66.9506 56.1717 67.458 55.2956C67.5377 55.1586 67.5951 54.9975 67.6229 54.8419C67.7081 54.3752 67.9581 54.2474 68.4378 54.2344C70.175 54.19 71.4567 52.849 71.4919 51.1062C71.5067 50.3673 71.4974 49.6264 71.4937 48.8875C71.4882 46.828 70.3714 45.6408 68.3082 45.4463C68.097 45.4259 67.8155 45.2315 67.7247 45.0426C67.3951 44.361 67.1339 43.6461 66.8395 42.9275C66.8654 42.8849 66.8913 42.8145 66.9395 42.7719C68.3896 41.5384 68.5137 39.2474 66.858 37.7695C66.6005 37.5398 66.4579 37.0527 66.4561 36.6823C66.4339 27.2293 66.4413 17.7763 66.4357 8.32332C66.4357 7.74547 66.419 7.16578 66.3616 6.59349C66.0431 3.37088 63.5279 -0.0221163 59.2274 0.000108597C42.0124 0.0871561 24.7955 0.0630692 7.57862 0.0130632C4.14488 0.0038028 1.99648 2.19666 1.1723 4.31728C0.890789 5.04144 0.720397 5.80822 0.5 6.5546C0.5 20.284 0.5 34.0135 0.5 47.7429C0.54445 47.8929 0.605563 48.0411 0.633344 48.1948C1.15378 51.21 3.55221 54.4622 7.79717 54.2696ZM64.3299 39.2345C65.4115 40.3161 65.4115 40.3161 64.3262 41.4125C63.4909 42.257 63.4909 42.6663 64.0262 43.7461C64.5355 44.774 64.9614 45.8482 65.3393 46.9317C65.6726 47.8874 66.032 48.2374 67.0098 48.2652C68.7082 48.3133 68.7119 48.3133 68.7082 50.0024C68.7063 51.5841 68.8767 51.4637 67.2673 51.4637C65.9301 51.4637 65.6856 51.7119 65.2615 52.975C64.904 54.0399 64.4355 55.0715 63.9447 56.0846C63.5187 56.9644 63.5354 57.444 64.2114 58.1386C64.4688 58.4034 64.7374 58.6572 64.9929 58.9257C65.1004 59.0387 65.1874 59.172 65.3059 59.3239C65.2096 59.4721 65.143 59.6184 65.0355 59.7277C64.5373 60.2407 64.0206 60.7389 63.5242 61.2538C63.2464 61.5427 63.0149 61.4908 62.763 61.2278C62.4593 60.9111 62.1482 60.6018 61.8296 60.2981C61.2999 59.7943 60.7332 59.7406 60.0553 60.0462C58.82 60.6018 57.5624 61.1075 56.2993 61.6001C55.6455 61.8538 55.264 62.265 55.2492 62.9799C55.2473 63.0484 55.2473 63.1188 55.2455 63.1873C55.2177 64.9227 55.2177 64.9264 53.4527 64.9209C51.8932 64.9172 52.0469 65.0876 52.0414 63.5133C52.0358 62.1428 51.7802 61.8872 50.4838 61.4556C49.4188 61.1 48.3891 60.6241 47.3779 60.1333C46.5037 59.7091 46.0277 59.7332 45.3221 60.4129C44.096 61.5945 44.0886 61.602 42.9032 60.3981C41.7327 59.2109 41.6883 59.5276 42.8921 58.3219C43.7885 57.4237 43.7941 57.0255 43.2199 55.8828C42.7273 54.8993 42.3161 53.8658 41.9661 52.8231C41.6198 51.7878 41.2845 51.4748 40.1881 51.4637C38.3657 51.4452 38.5861 51.7119 38.5749 49.8357C38.5675 48.2874 38.5731 48.2874 40.1566 48.267C41.2401 48.2522 41.6123 47.9059 41.955 46.9076C42.3254 45.8223 42.7662 44.7555 43.2626 43.722C43.7459 42.7145 43.7367 42.2941 42.9625 41.4977C41.8346 40.3364 41.829 40.3327 42.9977 39.1752C44.2256 37.9584 43.92 37.9565 45.1369 39.153C46.0129 40.0142 46.4185 40.016 47.5242 39.4604C48.528 38.9566 49.5818 38.5381 50.6449 38.1732C51.6339 37.8343 51.958 37.4898 51.9691 36.436C51.9858 34.8061 51.9858 34.8061 53.6397 34.8061C55.1566 34.8061 55.1566 34.8061 55.1751 36.3545C55.188 37.449 55.5251 37.8084 56.5271 38.1528C57.6532 38.5418 58.7626 39.0011 59.8368 39.516C60.7702 39.9642 61.2425 39.9494 62.0037 39.2104C63.1723 38.0769 63.1724 38.0769 64.3299 39.2345ZM4.40047 4.26727C5.1913 3.24863 6.23031 2.80415 7.53232 2.80601C22.4378 2.82082 37.3433 2.81525 52.2488 2.81525C54.5139 2.81525 56.779 2.81525 59.0422 2.81525C61.7611 2.81525 63.5242 4.44323 63.5946 7.19727C63.6743 10.3625 63.6243 13.5295 63.6298 16.6966C63.6317 17.2689 63.6298 17.8411 63.6298 18.4579C43.4978 18.4579 23.4305 18.4579 3.32441 18.4579C3.31145 18.2245 3.28922 18.0226 3.28922 17.8208C3.28737 14.4685 3.28737 11.1181 3.28737 7.76585C3.28922 6.48236 3.60408 5.29332 4.40047 4.26727Z" fill="#0E5952"/>
<path d="M31.7778 36.3822C30.6258 37.6749 29.5276 38.8899 28.4515 40.1215C27.8625 40.7957 27.8922 41.6272 28.483 42.1625C29.0645 42.6922 29.9276 42.644 30.5166 41.9958C31.8186 40.5604 33.1095 39.1177 34.3763 37.6508C35.0708 36.847 35.0542 35.8821 34.3485 35.0709C33.0928 33.6263 31.8167 32.1983 30.524 30.787C30.3054 30.5481 29.9721 30.3481 29.6572 30.2759C29.0331 30.1333 28.5145 30.3889 28.2052 30.9574C27.8848 31.552 27.9922 32.1187 28.4348 32.6169C29.5313 33.8596 30.6333 35.0968 31.7778 36.3822Z" fill="#0E5952"/>
<path d="M14.798 32.6725C15.411 31.9724 15.3907 31.1168 14.7758 30.5778C14.1775 30.0537 13.3478 30.1204 12.7459 30.7853C11.4754 32.191 10.2141 33.6041 8.96766 35.0302C8.21201 35.8951 8.21573 36.8452 8.96396 37.7194C9.65479 38.5269 10.3734 39.3104 11.0809 40.1049C11.681 40.7772 12.2588 41.4699 12.8885 42.1144C13.4126 42.6497 14.2368 42.6497 14.7739 42.1829C15.3184 41.7088 15.4092 40.9272 14.9758 40.3068C14.8313 40.0994 14.6517 39.916 14.485 39.7252C13.5071 38.6232 12.5274 37.5212 11.5309 36.4007C11.6921 36.2007 11.8125 36.0359 11.9477 35.884C12.8941 34.8135 13.8553 33.7523 14.798 32.6725Z" fill="#0E5952"/>
<path d="M23.2379 29.1944C22.5767 29.0777 21.8952 29.4777 21.7044 30.1945C21.3358 31.5761 21.0191 32.9726 20.6858 34.3635C20.095 36.8323 19.4986 39.2993 18.9281 41.7718C18.7263 42.6515 19.1578 43.3572 19.9357 43.5461C20.6987 43.7295 21.3784 43.272 21.6322 42.4034C21.6507 42.3367 21.6766 42.2719 21.6914 42.2052C22.3045 39.6234 22.9175 37.0416 23.5305 34.4598C23.8343 33.18 24.1417 31.9021 24.4066 30.7909C24.4214 29.9 23.9399 29.3185 23.2379 29.1944Z" fill="#0E5952"/>
<path d="M21.4581 51.4675C20.6765 51.4805 20.045 52.1324 20.0764 52.8954C20.1061 53.6289 20.7432 54.2419 21.4822 54.2456C22.2637 54.2493 22.8916 53.6196 22.886 52.838C22.8805 52.0509 22.26 51.4545 21.4581 51.4675Z" fill="#0E5952"/>
<path d="M62.0054 39.2104C61.2442 39.9494 60.772 39.9623 59.8385 39.516C58.7643 39.0011 57.6549 38.5418 56.5288 38.1529C55.5269 37.8065 55.1898 37.4472 55.1768 36.3545C55.1583 34.8061 55.1583 34.8062 53.6415 34.8062C51.9876 34.8062 51.9876 34.8062 51.9709 36.436C51.9598 37.4898 51.6357 37.8343 50.6467 38.1732C49.5836 38.5381 48.5297 38.9567 47.5259 39.4604C46.4184 40.016 46.0146 40.0142 45.1386 39.153C43.9218 37.9565 44.2292 37.9584 42.9994 39.1752C41.8308 40.3309 41.8363 40.3364 42.9643 41.4977C43.7366 42.2922 43.7477 42.7145 43.2643 43.722C42.7679 44.7555 42.3271 45.8242 41.9567 46.9076C41.6141 47.9059 41.2418 48.2522 40.1584 48.267C38.5748 48.2874 38.5674 48.2874 38.5767 49.8357C38.586 51.7119 38.3656 51.4452 40.1899 51.4637C41.2863 51.4748 41.6196 51.7878 41.9678 52.8231C42.3179 53.8677 42.729 54.8993 43.2217 55.8828C43.794 57.0255 43.7884 57.4237 42.8939 58.322C41.6919 59.5277 41.7363 59.2091 42.905 60.3981C44.0903 61.602 44.0977 61.5946 45.3238 60.4129C46.0294 59.7332 46.5073 59.711 47.3796 60.1333C48.3927 60.6241 49.4206 61.1019 50.4855 61.4557C51.782 61.8872 52.0376 62.1428 52.0431 63.5133C52.0487 65.0876 51.895 64.9172 53.4544 64.9209C55.2194 64.9246 55.2194 64.9227 55.2472 63.1873C55.2491 63.1188 55.2491 63.0484 55.2509 62.9799C55.2657 62.265 55.6473 61.8539 56.301 61.6001C57.5642 61.1093 58.8217 60.6019 60.0571 60.0462C60.7349 59.7406 61.3035 59.7943 61.8313 60.2981C62.148 60.6 62.4611 60.9111 62.7648 61.2279C63.0167 61.4908 63.2482 61.5409 63.526 61.2538C64.0223 60.7371 64.5391 60.2407 65.0373 59.7277C65.1428 59.6184 65.2095 59.4702 65.3077 59.3239C65.1892 59.172 65.1021 59.0405 64.9947 58.9257C64.7391 58.659 64.4706 58.4034 64.2131 58.1386C63.5371 57.4441 63.5186 56.9644 63.9464 56.0846C64.4372 55.0734 64.9058 54.04 65.2632 52.975C65.6874 51.7119 65.9318 51.4637 67.269 51.4637C68.8785 51.4637 68.7081 51.5841 68.7099 50.0024C68.7136 48.3152 68.7099 48.3152 67.0116 48.2652C66.0356 48.2374 65.6762 47.8874 65.341 46.9317C64.9632 45.8482 64.5372 44.7722 64.0279 43.7461C63.4927 42.6664 63.4927 42.2571 64.3279 41.4125C65.4133 40.3161 65.4132 40.3161 64.3316 39.2345C63.1722 38.0769 63.1722 38.0769 62.0054 39.2104ZM53.6507 58.3979C48.952 58.4071 45.0978 54.5567 45.0978 49.8524C45.0978 45.1296 48.9224 41.3144 53.647 41.3236C58.3605 41.3329 62.2018 45.1852 62.1814 49.8839C62.1647 54.5419 58.3105 58.3886 53.6507 58.3979Z" fill="#FF7F45"/>
<path d="M41.9401 15.4001C44.0644 15.4519 46.1906 15.4112 48.3149 15.4112C48.3149 15.413 48.3149 15.4149 48.3149 15.4167C50.3485 15.4167 52.3802 15.426 54.4138 15.413C55.877 15.4038 57.1327 14.8741 58.0643 13.7314C59.2811 12.2404 59.5404 10.5569 58.7458 8.80114C57.8994 6.93055 56.3548 6.03414 54.3268 6.02303C50.3078 6.00081 46.2869 6.01007 42.2679 6.02489C41.7882 6.02674 41.2956 6.08969 40.8326 6.21563C38.649 6.812 37.1803 8.94929 37.4118 11.1421C37.6618 13.5165 39.562 15.3427 41.9401 15.4001ZM42.1716 8.84003C44.2274 8.81225 46.2832 8.83261 48.3372 8.83076C50.3467 8.83076 52.3562 8.80484 54.3638 8.83818C55.9084 8.8641 56.8234 10.2587 56.177 11.5515C55.8103 12.2867 55.1713 12.6201 54.3731 12.622C50.3078 12.6294 46.2443 12.6386 42.179 12.6164C41.0178 12.6109 40.1992 11.783 40.1936 10.7273C40.188 9.6753 41.0048 8.85485 42.1716 8.84003Z" fill="#0E5952"/>
<path d="M25.6326 15.413C28.1959 15.413 30.3036 13.3164 30.3165 10.755C30.3295 8.15467 28.2218 6.02665 25.6326 6.02295C23.0805 6.0211 20.9673 8.11948 20.9395 10.6846C20.9117 13.2608 23.049 15.4148 25.6326 15.413ZM25.603 8.83995C26.6476 8.82328 27.5199 9.67152 27.5273 10.7068C27.5347 11.7347 26.6605 12.6145 25.6308 12.6163C24.5918 12.6163 23.7491 11.7551 23.7565 10.7031C23.7657 9.67337 24.5751 8.85662 25.603 8.83995Z" fill="#0E5952"/>
<path d="M13.4663 15.413C16.0666 15.4185 18.1669 13.3035 18.1539 10.6958C18.1409 8.12138 16.0537 6.03224 13.4867 6.02298C10.8993 6.01372 8.79167 8.1399 8.80093 10.7458C8.81019 13.3202 10.8975 15.4093 13.4663 15.413ZM13.4774 8.83812C14.5275 8.83998 15.3628 9.68823 15.3536 10.7421C15.3443 11.7829 14.4646 12.6423 13.4367 12.6164C12.4014 12.5904 11.5661 11.7088 11.592 10.668C11.6179 9.65304 12.4588 8.83627 13.4774 8.83812Z" fill="#0E5952"/>
<path d="M53.6471 41.3235C48.9224 41.3142 45.0979 45.1295 45.0979 49.8523C45.0979 54.5584 48.9521 58.407 53.6508 58.3978C58.3106 58.3885 62.1629 54.5436 62.1814 49.8838C62.2018 45.1851 58.3606 41.3328 53.6471 41.3235ZM53.6434 55.5993C50.4948 55.6085 47.9149 53.0379 47.9001 49.8782C47.8871 46.7019 50.4208 44.1368 53.586 44.1201C56.7882 44.1035 59.3867 46.676 59.3792 49.856C59.3737 53.0008 56.7863 55.59 53.6434 55.5993Z" fill="#0E5952"/>
<path d="M42.1809 12.6146C46.2462 12.635 50.3097 12.6276 54.375 12.6202C55.1732 12.6183 55.8122 12.2849 56.1789 11.5496C56.8234 10.2588 55.9103 8.86228 54.3657 8.83635C52.3562 8.80302 50.3467 8.82894 48.339 8.82894C46.2832 8.82894 44.2274 8.80857 42.1735 8.83635C41.0067 8.85302 40.1899 9.67165 40.1973 10.7236C40.201 11.783 41.0196 12.609 42.1809 12.6146Z" fill="#FF7F45"/>
<path d="M48.3372 8.83069C50.3467 8.82884 52.3562 8.80477 54.3638 8.8381C52.3562 8.80477 50.3467 8.83069 48.3372 8.83069Z" fill="#FF7F45"/>
<path d="M25.6327 12.6165C26.6606 12.6165 27.5347 11.7367 27.5292 10.707C27.5218 9.66981 26.6494 8.82342 25.6049 8.84009C24.577 8.85675 23.7676 9.67351 23.7602 10.7033C23.7509 11.7552 24.5936 12.6165 25.6327 12.6165Z" fill="#FF7F45"/>
<path d="M13.4386 12.6164C14.4665 12.6423 15.3444 11.7829 15.3555 10.7421C15.3648 9.68639 14.5313 8.83999 13.4793 8.83814C12.4607 8.83629 11.618 9.65305 11.5939 10.668C11.5662 11.707 12.4014 12.5904 13.4386 12.6164Z" fill="#FF7F45"/>
<path d="M53.5861 44.1202C50.4209 44.1369 47.8872 46.7038 47.9002 49.8783C47.9132 53.0379 50.4931 55.6068 53.6435 55.5994C56.7865 55.5901 59.3738 53.0009 59.3812 49.8561C59.3868 46.6761 56.7883 44.1035 53.5861 44.1202Z" fill="#FF7F45"/>
</svg>
