<svg width="1440" height="910" viewBox="0 0 1440 910" fill="none" xmlns="http://www.w3.org/2000/svg">
<g opacity="0.8">
<rect opacity="0.8" width="1440" height="910" fill="white"/>
<path d="M1650.19 143.848C1577.93 130.515 1503.92 147.144 1431.11 138.903C1287.4 122.618 1148.57 10.5753 1008.91 53.9045C916.27 82.6533 848.428 173.512 783.765 257.24C719.091 340.969 643.827 426.769 548.653 439.278C475.004 448.96 402.573 412.406 328.516 409.19C186.143 402.999 54.3275 519.356 -87.8518 508.77C-154.217 503.826 -216.489 471.472 -279.805 447.209V785.671C-146.331 675.391 30.981 624.852 198.177 654.173C289.203 670.138 376.06 707.837 467.431 721.479C558.791 735.132 661.927 719.487 723.659 646.654C797.178 559.904 787.644 425.945 834.164 320.197C871.678 234.901 948.073 170.101 1034.67 150.119C1121.27 130.125 1216.1 155.407 1283.54 216.475C1328.87 257.504 1365.17 315.242 1422.44 332.626C1504.2 357.449 1597.06 289.182 1673.55 328.666C1714.51 349.816 1737.71 396.43 1753.79 441.681C1764.86 472.845 1774.24 505.496 1788.73 534.749V243.553C1761.69 189.386 1704.97 153.953 1650.19 143.848Z" fill="#F7FAFC"/>
<path d="M1752.54 0C1737.09 37.7557 1693.09 58.8252 1653.21 56.2501C1608.78 53.389 1568.54 28.8175 1530.04 5.09284C1527.28 3.39904 1524.52 1.6938 1521.75 0H737.687C687.675 35.9245 646.747 87.7685 605.236 135.595C549.429 199.903 481.393 263.248 399.158 267.38C303.273 272.187 215.317 194.478 119.756 204.126C67.2019 209.436 19.7334 240.84 -32.5078 248.874C-119.785 262.287 -202.214 209.745 -279.805 164.894V447.197C-216.489 471.46 -154.217 503.813 -87.8518 508.758C54.3382 519.344 186.143 402.987 328.516 409.178C402.563 412.406 475.004 448.948 548.653 439.266C643.827 426.757 719.102 340.957 783.765 257.228C848.439 173.5 916.27 82.6413 1008.91 53.8925C1148.57 10.5633 1287.4 122.606 1431.11 138.891C1503.91 147.143 1577.92 130.514 1650.19 143.836C1704.97 153.941 1761.69 189.374 1788.73 243.552V0H1752.54Z" fill="#EFF4F6"/>
<path opacity="0.7" d="M-32.497 248.862C19.7442 240.828 67.2234 209.424 119.766 204.114C215.328 194.466 303.284 272.187 399.169 267.368C481.404 263.237 549.439 199.891 605.247 135.584C646.747 87.7685 687.675 35.9245 737.687 0H-279.805V164.894C-202.214 209.745 -119.785 262.287 -32.497 248.862Z" fill="#D9E3E9"/>
</g>
</svg>
